/* XPM */
static char *result[] = {
/* columns rows colors chars-per-pixel */
"64 64 243 2 ",
"   c #3C6918",
".  c #3D6A25",
"X  c #487D06",
"o  c #47761A",
"O  c #487425",
"+  c #497729",
"@  c #528403",
"#  c #578A05",
"$  c #5C8C04",
"%  c #5B9303",
"&  c #599C03",
"*  c #5C8818",
"=  c #628E07",
"-  c #669708",
";  c #719E0D",
":  c #638C18",
">  c #699816",
",  c #729D19",
"<  c #54A301",
"1  c #5BA502",
"2  c #5CAA03",
"3  c #63A403",
"4  c #63AB02",
"5  c #6CAC02",
"6  c #6AA609",
"7  c #72AD03",
"8  c #76AB09",
"9  c #65B402",
"0  c #67B706",
"q  c #6BB402",
"w  c #6CBA03",
"e  c #74B303",
"r  c #7BB403",
"t  c #74BB02",
"y  c #7BBD02",
"u  c #78B40B",
"i  c #69A516",
"p  c #76A817",
"a  c #74A21C",
"s  c #6DB113",
"d  c #7AB516",
"f  c #588526",
"g  c #56862B",
"h  c #638C2C",
"j  c #689826",
"k  c #739D28",
"l  c #6A9936",
"z  c #74A324",
"x  c #77A727",
"c  c #7BAB2D",
"v  c #7AB225",
"b  c #78A737",
"n  c #71A930",
"m  c #77C002",
"M  c #7DC102",
"N  c #6B9747",
"B  c #739A48",
"V  c #799E55",
"C  c #77A645",
"Z  c #72A648",
"A  c #7AA54C",
"S  c #7CAA4C",
"D  c #7CA756",
"F  c #7DA566",
"G  c #7FA674",
"H  c #82AD09",
"J  c #8BB604",
"K  c #85B805",
"L  c #92BC05",
"P  c #86AF13",
"I  c #87B717",
"U  c #94BB19",
"Y  c #83AB29",
"T  c #87B828",
"R  c #95BC27",
"E  c #85AD37",
"W  c #84AD3B",
"Q  c #87B637",
"!  c #97BB38",
"~  c #84C203",
"^  c #8BC403",
"/  c #8BC508",
"(  c #94C302",
")  c #9BC502",
"_  c #94CA03",
"`  c #9BCB03",
"'  c #98C70B",
"]  c #93CA0C",
"[  c #98C715",
"{  c #A2CC04",
"}  c #ABCC03",
"|  c #A6C908",
" . c #B2CD05",
".. c #ACD302",
"X. c #A9D504",
"o. c #B3D403",
"O. c #BCD503",
"+. c #B4DB02",
"@. c #BADD02",
"#. c #B5D30C",
"$. c #ABCC15",
"%. c #A3C918",
"&. c #B2CC19",
"*. c #AAD217",
"=. c #B6D518",
"-. c #BBE102",
";. c #B9E007",
":. c #8DC324",
">. c #9BC427",
",. c #9CC334",
"<. c #99C439",
"1. c #A6C928",
"2. c #B4CD28",
"3. c #ADD12A",
"4. c #B7D528",
"5. c #A7C838",
"6. c #AED03A",
"7. c #B7D537",
"8. c #C5DA03",
"9. c #C5DA05",
"0. c #C5DD16",
"q. c #C7E605",
"w. c #CFE815",
"e. c #C6DC28",
"r. c #C4DC36",
"t. c #D1E634",
"y. c #86AC48",
"u. c #8BB344",
"i. c #8DB34B",
"p. c #88B748",
"a. c #95B944",
"s. c #92B64C",
"d. c #93BA4C",
"f. c #9BBC4C",
"g. c #86AA56",
"h. c #83AB5C",
"j. c #91AE51",
"k. c #85B354",
"l. c #8CB353",
"z. c #8BB857",
"x. c #8BB55C",
"c. c #94B453",
"v. c #94BA53",
"b. c #9CBB52",
"n. c #98B65A",
"m. c #93BB5C",
"M. c #A2BE51",
"N. c #85AB63",
"B. c #88AB68",
"V. c #8DB364",
"C. c #8BB569",
"Z. c #94BB64",
"A. c #96B968",
"S. c #86AB78",
"D. c #8EB075",
"F. c #98B975",
"G. c #9CB47C",
"H. c #A7BB69",
"J. c #A5BA76",
"K. c #B2BF7A",
"L. c #8FC144",
"P. c #9CC446",
"I. c #99C158",
"U. c #A6C847",
"Y. c #B2CF4F",
"T. c #B8D547",
"R. c #A7C758",
"E. c #B9D458",
"W. c #9EC06B",
"Q. c #A8C667",
"!. c #B2CB67",
"~. c #BCD566",
"^. c #A9C678",
"/. c #B4C679",
"(. c #BCD377",
"). c #C3DA47",
"_. c #C4DA53",
"`. c #C5DB5C",
"'. c #D2E748",
"]. c #DDEB58",
"[. c #C5D968",
"{. c #C5D977",
"}. c #D0E372",
"|. c #D3E47C",
" X c #E1EE72",
".X c #8AAB85",
"XX c #99B686",
"oX c #9CB796",
"OX c #A3BE85",
"+X c #A2BC98",
"@X c #ACC683",
"#X c #ABC688",
"$X c #B6C887",
"%X c #BBD387",
"&X c #ADC596",
"*X c #B3C994",
"=X c #B5CA9C",
"-X c #B9CA99",
";X c #BDD296",
":X c #B7CCA4",
">X c #B8CAA6",
",X c #B9CCA5",
"<X c #C7D886",
"1X c #CBDB8C",
"2X c #C5D597",
"3X c #CDDA94",
"4X c #CAD79A",
"5X c #CDDB9B",
"6X c #D3E387",
"7X c #CFE290",
"8X c #C3CEA5",
"9X c #CDDBA4",
"0X c #C7D5A9",
"qX c #D2DCA4",
"wX c #D4DEAC",
"eX c #CAD7B7",
"rX c #D3DDB3",
"tX c #D7DEBA",
"yX c #CEE1AD",
"uX c #D7E2A9",
"iX c #D8E2B4",
"pX c #DBE3BC",
"aX c #D6DDC5",
"sX c #D7E0C7",
"dX c #DDE3C3",
"fX c #DDE3CA",
"gX c #DFE3D3",
"hX c #E1E4C4",
"jX c #E1E8C3",
"kX c #E3E6CC",
"lX c #E4E9CC",
"zX c #E3E6D3",
"xX c #E8E7D7",
"cX c #E5E9D2",
"vX c #EAE5DD",
"bX c #EBEADC",
"nX c #F0EADF",
"mX c #ECE8E3",
"MX c #EEEBE3",
"NX c #F2ECE4",
"BX c #F2EEEA",
"VX c #F3F1ED",
"CX c #F6F4F2",
/* pixels */
"K K M y r u r 7 7 e e e e u Q L.C.W.W.W.C.I.L.:.:.:.:.:.<.<.L.I.Q.%X;XyXyX7X7X7X`._.T.).E.T.T.7.e.#.-.-.@.-.-.;.-.-.q.q.q.w.t.].",
"~ ~ K y e e 7 7 7 7 7 e e u c z.z.W.C.W.W.z.L.d m M M M ~ ~ :.:.<.U.E.`._._.'.7.e.e.4.4.4.4.=.=.;.+.@.-.-.@.-.;.-.q.q.q.w.t.]. X",
"/ ~ y r r e 7 5 5 5 q e w m :.L.I.z.W.W.Z.L.v m m m M m M y K M M ] *.*.;.;.;.;.-.@.+.o.X.+.#.o.O.@.@.@.-.-.;.;.-.-.q.q.w.'.]. X",
"^ ^ ~ K r e q 5 5 5 5 q 0 0 v S z.D I.I.L.v m m u 0 m m t y M M M ] _ X.;.;.;.;.8.@.+.o.X.X...+.+.@.@.@.-.-.;.;.-.-.-.w.t.]. X6X",
"_ _ _ ^ ~ K r 5 3 4 4 5 5 5 s v Q L.z.L.Q d r r 0 0 9 w w t t y M _ _ X.;.;.-.-.-.@.o...| | }  .o.+.+.@.@.+.+.+.+.;.@.w.].]. X X",
"_ _ _ ( ( ^ K e 5 4 4 4 4 5 u I T Q v v d u e 5 4 9 4 9 9 q w t m M _ X.X.;.;.-.@.+...X.| %.%.&.#.O.o.+.o.O.+.+.X.X.+.w.t.].]. X",
"_ _ ` ` ) ( ^ r 5 3 2 3 s d v v T v d d u 5 4 4 2 < 2 2 4 9 q w m M _ X.X.+.+.+.+.o...| %.>.1.1.1. . ...o.#...X.X.X.+.-.t.].].].",
"_ ` ` ) ( ( L K 5 3 1 i x S p.p.p.E s e 5 4 2 & & < < 2 2 4 9 9 m M M _ _ X.X.X.+.o.} | [ 1.,.5.5.1.$.| } ..X.{ X.X.+.q.w.t.t.t.",
"_ ` ) ) ) ) _ K 7 - i n C z.z.z.I.S v s 4 4 & & < < 1 < 2 2 2 9 w m m _ ` X.X.X.X.X.X.` %.>.,.f.5.f.,.%.1.%.%.| ] *.*.*.=.t.t.t.",
"^ ) ) ) ) ) / K 7 1 > Z D S k.D k.k.v 9 2 < < < < < 1 2 2 2 9 9 w w m m M _ _ ` X.` ` { %.%.1.,.a.5.! ! R R R ,.>.,.1.3.4.7.r.e.",
"~ ( ) ) ' [ :.m 6 1 j Z F z.k.x.x.S v s 1 & < < & < 1 2 2 2 9 9 9 0 m m m m M _ _ ` ` X.| | $.1.1.! ! R ! >.R 5.U.<.5.6.3.7.7.4.",
"y K L ' >.R <.v i - n Z D D D N.x.S n 6 & < < < < < 1 2 2 9 4 9 0 0 0 0 m m m m _ _ ` ` { }  .$.%.&.>.>.>.>.>.f.U.U.U.U.6.3.4.=.",
"e e K / L.L.p.Z l i j l D D C.C.V.k.c 6 2 < < < < 2 2 2 0 2 0 2 9 0 9 0 0 0 w m ~ _ ` ` X.X..... .| | | { [ 1.U.U.U.Y.6.6.7.4.=.",
"q q d T p.p.p.Z Z n j l Z F N.C.V.u.p 7 2 2 < < 2 2 s s s s s 0 9 0 0 0 0 0 0 m m ~ _ _ { { .... . . .| | $.$.6.6.U.T.T.7.T.7.4.",
"q w d v p.p.p.S Z Z j * l A h.x.j.E d r s 2 < 2 0 n C L.z.d.p.Q m s 0 0 0 0 0 0 w M _ _ ` { X.+.o.O. . .} } $.6.T.T.T.).)._._.).",
"t w s <.L.L.k.Z Z Z j > : b b y.W Q P u s 0 < s n D W.^.^.^.Q.I.L.m 0 0 0 0 0 w w m ~ _ ` { #.=.4.7.7.7.4.3.&.7.T.T._.`.[.}.}.`.",
"u t m L.z.I.D I.k.A l > & a c E E Q T P H 7 i b k.F.#X&X#X#X^.H.I.<.m m w m m m m m m _ _ [ 7.`.{.6X6X1X|.[.T.7._._.[.}.|.|.|.}.",
"q u M S I.z.I.C.h.h.l > - > c W u.u.E I d s v D C.XX#X&X*X*X$X^.W.I.v m m m m M m m M ] [ T.{.7XuXiXpXpXiX7X<X`.E.[.{.6X6X6X|.}.",
"e t d <.z.C.C.D.D.N.B j > i c W u.u.W Y v v S G .XOX+X>X=X*X*X@XQ.I.:.M M M M M m M M :.U.%X5XyXjXjXjXlXjXuXuX{.[.{.|.6X6X6X|.|.",
"r u v b k.W.W.D.D.B.A b n z c W u.i.j.y.S S F D..XoX>X>X,X=X*X$X^.R.<.] ] M M M ] M :.P.^.2XyXdXjXlXcXcXjXjXuX1X{.{.{.6X6X6X|.|.",
"d v c u.z.I.G W.B.h.V A Z k c S y.y.z.k.D D G XXoXoX&X>X>X,X*X*X/.Q.<.[ ] _ M M ] :.P.^.*X0XyXjXlXlXcXcXlXjXiX5X1X{.1X7X7X6X6X6X",
"v p.k.x.W.G G F N.h.g.V C b b b y.k.k.D F F G S..XoX+X>X>X>X*X#X@XQ.I.<.:.] ] *.<.R.I.%X;X0XsXfXlXcXcXxXlXhXiX5X1X<X|.7X7X6X6X6X",
"I.A.F.F.F.F.W.G N.N.h.D A C b C S S F F F F G .X.XoXoX+X+XOX@X^.^.^.Q.Q.R.L.<.P.P.Q.^.;X,XyXpXfXkXcXcXkXlXpXrX1X<X{.}.{.6X7X6X6X",
"F.G.G.G.XXXXXXC.B.N.h.N.D A C C S D D F F G G S..X.XXXXXG.G.F.^.^.@X@X@X^.^.(.Q.!.^.@X;X=XeXeXsXkXzXcXkXdXiXqX<X~.E.E.~.{.{.}.}.",
"J.J.XXG.G.G.G.D.B.N.g.g.D D S S C Z A D F F G S.S.S..XF.D.C.W.XXOX#X*X*X*X;X*X@X^.^.(.*X*X,XyXeXpXsXdXpXwX9X2X~.E.T.T.T.`.`.`.`.",
"J.G.G.G.G.G.D.V.V.N.N.g.g.S D S C b C A D D F F G S.S.D.D.C.F.#X#X&X&X=X:X,X:X;X*X^.#X#X#X;X,X;X,X9XyX2X1X{.!.Y.6.3.3.3.T.T.).r.",
"J.G.J.J.G.V.A.V.V.V.B.g.g.S k.S b b x n C S A D C.C.C.C.C.C.F.XX#X&X:X:X,X0X:X:X&X#X@X#X#X#X#X#X(.^.!.~.R.U.U.6.5.1.6.U.T.7.4.;.",
"J.J.J.J.J.A.A.x.n.V.V.V.x.k.S b b x i p i z n Z S S D F k.z.x.^.#X&X:X:X,X,X,X:X=X#X^.^.^.^.Q.I.P.P.P.U.U.Y.Y.Y.!.~.~.(.~.E.T.4.",
"H.J.K.J.J.A.m.l.n.V.A.Z.Z.x.y.b n i 6 6 6 6 i z n b C b S <.k.Z.OX&X:X:X,X,X,X,X=X#X^.Q.R.R.P.P.<.,.,.U.U.R.!./.<X4X9XqX5X1X~.T.",
"n.J.H.K.Q.Z.v.i.s.A.n.Z.A.n.p.x a 6 3 3 3 - 3 6 i s z v n v Q l.W.+X&X:X:X:X,X:X;X#XQ.U.P.<.>.,.1.,.5.T.U.!.%X4X0XrXtXtXdXiX3X{.",
"c.n.n.n.c.v.v.d.s.n.Z.A.Z.H.p.v 3 3 & - - - 1 3 2 3 5 6 q s v E p.W.&X=X:X=X:X;X%X@XR.P.[ [ ] *.3.U.U.Y.R.{.4XrXtXhXfXkXlXhXiX3X",
"a.a.f.f.d.v.v.d.s.d.b.I.n.n.p.p - = % % % & - 2 4 4 5 5 5 s p v v I.^.#X*X=X*X#X@XQ.R.1.%.X.X.*.3.Y.Y.Y.H.<XqXtXaXhXhXhXlXlXhXuX",
"u.s.M.b.f.s.c.b.d.d.d.v.b.c.E p - % $ @ @ % % 3 6 5 7 5 7 7 s T v L.R.^.$X$X@X/./.R.U.1.$.} #.4.7.Y.E.E./.<XqXaXhXhXlXlXlXlXhXpX",
"s.f.b.b.a.a.s.b.d.a.d.i.i.W Y 8 - % $ @ @ # & 3 5 7 e e 7 8 d T ! L.f.Q.^./.^./.!.U.5.2.*.#.4.7.T.T.E.~./.<XwXhXkXxXbXnXnXxXlXhX",
"c.b.M.s.! E E W u.i.u.p.Q c ; , i > > : % % - 5 7 r y K K H I T ! a.P.M.Q.!.!.!.R.6.1.3.3.=.4.7.T.T.E.~.{.<XqXhXkXnXNXNXNXnXxXhX",
"j.s.a.W Y a p ; c c c v a 8 k y.j.c.V.y.n - - 7 r r K / I I I Q L.P.b.R.H.Q.!.!.R.5.3.2.2.4.4.7.r.T.E.E.[.<XqXhXnXNXBXCXCXBXnXhX",
"Y E Y Y p ; ; - - - > 6 ; Y W j.A.J.J.H.n.E H 8 r K H I :.K I T a.f.b.b.R.!.!.R.U.5.&.$.*.4.4.4.7.7.Y.E.[.{.5XhXnXCXCXCXCXCXnXlX",
"k z , , - - = = # $ $ % = Y j.H.K.K.K.K.H.M.R H H K I R T :.I T u.s.a.f.M.M.!.M.M.5.$.$.=.7.T.T.E.~.~.~.(.(.5XhXnXCXCXCXCXCXNXlX",
"; = > = = = # @ @ @ @ @ > y.j.J.K.K.OXK.K.H.! T K u R ! p.Q :.b u.d.u.! ! f.M.U.U.2.3.7.7.E.{.<X7X1X<X<X{.{.9XhXbXNXCXCXCXBXNXlX",
"= = = = $ # @ @ @ X @ @ o g.H.K.<X$X$XK.K.!.M.Q I T a.I.I.I.V.k.z.l.i.! Y R 5.5.5.7.Y.[.1XuXpXpXiXiX9X2X<X2XqXaXbXnXBXVXVXVXNXcX",
"= > - - ; = # X X @ @ # > g.H.K.K.$XK.<XK.K.M.! W p.v.A.^.F.W.F.C.F.z.z.u.a.5.6.Y.<X4XwXsXfXgXfXhXtXiXqX4X3XqXhXbXnXBXBXCXBXNXcX",
", , z Y k , > # @ # @ % > y.n.K.K.$X<XK.K.H.j.j.y.y.Z.^.#X*X&X&X#XG.W.m.v.P.R.!.<XwXaXzXvXvXbXcXhXhXpXuX4XqXwXhXlXnXNXBXNXNXbXhX",
"Y Y E W u.W c k - = = = > E j.H.<XK.<XK.H.H.j.j.A V.OX=X0XeXeX,X,X*X#XW.W.R.!.%XwXfXxXvXmXVXVXbXxXhXpXuXqXqXqXtXhXnXnXnXnXbXkXrX",
"W a.i.s.c.c.s.W a ; - = ; k W n.K.K.K.K.H.j.j.E D G.>X0XeXsXaXaXsXyX;X*X^.Q.%X9XdXxXvXNXVXVXVXmXbXcXhXpXqX3X4XqXjXhXhXlXlXhXpXqX",
"u.i.i.s.b.b.n.s.E Y ; ; X Y Y W c.M.H.H.M.y.Y l x.OXeXaXaXgXgXgXgXsXrX0X%X;X9XsXxXmXBXBXBXVXCXBXvXcXhXiXqX1X<XqXqXhXtXhXpXiXqX3X",
"u.i.c.s.b.c.c.j.y.Y , , P H P U ! ! ! j.W E E + C.&XeXaXgXvXmXvXmXgXsXrX0X9XiXfXxXmXmXmXVXVXCXMXbXlXpXuX<X{.{.<X3XqXqXqXqXqX5X1X",
"i.s.l.d.c.c.s.j.W h Y , H H J U U U U Y E k k h B.:XaXaXgXmXmXmXMXxXfXdXwXiXdXgXxXmXmXBXVXVXBXbXlXiX3X<X[.`.[.[.|.<X1X4X4X1X{.{.",
"i.i.s.d.v.c.s.y.y.Y k P H H J L L L H P Y k k h N.&XaXgXgXgXvXmXmXxXzXdXiXsXsXlXvXmXmXBXmXmXvXsXuX6X[.`.[._._.`.`.[.[.[.[.~.E.).",
"u.a.i.i.i.y.y.W b k k H H J J J J J J P Y z h h D &XeXsXgXgXvXvXmXbXgXdXpXdXlXzXvXmXMXMXbXxXtX3X[.`.)._._._._._.).r.r.2.2.2.&.&.",
"x c E W y.W E c k k k P H H J J H J J H p k l h D OX,XaXgXgXgXxXgXgXlXdXpXhXhXcXxXzXzXzXlXrX5X{.`.).).).r.).).r.e.0.9. . . . .| ",
"i a z x Y Y k k k k k Y H H J J J J J H a k l h N S.=XeXsXsXgXgXgXfXdXpXpXpXhXlXcXkXfXtXwXqX2X[._.).r.t.t.e.e.0.9.9.9.9. . .| | ",
"- i > i , , , Y k k k , 8 P U P U R R P x x l l N D XX=X,XeXeXtXtXyXyXiXiXpXaXfXkXhXtXrX9X3X<X[.).r.r.e.0.w.9.9.9.9.9. . . .} | ",
"- , ; - ; ; ; , k k k k , Y R ! ,.5.f.! E b l N N N D F.#X*X%X%X%X%X7XyXrXrXtXtXaXtXtX0X4X2X<X[.T.e.0.0.9.8.8.8.9.9.O.O. .} | | ",
"= - - - ; ; , , j : : j b E j.f.f.M.M.f.i.C C l N N N Z S L.<.3.1.U.(.5XqX0XrXrXrXrXrX9X;X<X%X~.7.2.O.O.8.8.8.8.9.O.O. . .} | ) ",
"o = = = - ; , k : h : f h W j.s.c.f.c.n.l.y.B B N N N Z Q <.:.[ ] *.T.(.4X2X0X0XrX0X8X8X;X;X(.E.T.6.4.0.9.8.8.8.9.O. . . .| L ) ",
"f : = = - - : : , o f + h B g.j.c.c.c.n.j.A Z V N V V D L.:.>.' ] ] 1.Y.(.%X;X;X;X2X;X*X#X%X^.R.Y.Y.T.7.&.9.O.O.O. . . .) ) ) L ",
"+ : : = - - : : + : o + h y.g.g.j.j.c.j.g.y.b B V V V g.v.P.5.>.] ] ' 1.R.^.^.$X$X$X^.^.G.^.^.Q.!.R.Y.T.2.&.&. . . . .) L ) L L ",
"h f : - = = : f h + + O O l g.g.g.j.c.j.y.C b B V V F N.m.P.5.,.,.] / / :.d.m.W.A.Z.m.Z.W.F.W.W.Q.Q.Q.R.U.5.1.2.&. .| ) ) L L L ",
"+ k : : = = * * : o + O . O h V g.g.j.y.b l j l V N.N.B.Z.b.U.<.,.] / y u s c Q u.s.s.n.F.F.C.C.Z.A.Q.Q.M.U.,.,.R U L L L ( L ^ ",
"+ : : > = = > g + h + O . . + g B B B b k > - a E j.j.V.V.m.f.<.<.:./ r 7 8 P I R ! ,.U.I.I.m.m.Z.F.A.Q.Q.H.H.M.! R L L L ^ ~ K ",
": ; X H = = : * g g + . .     . O g h j > - - 8 Y ! c.n.V.n.l.Q Q T d r 7 r L ( | *.$.1.5.U.b.m.x.C.W.#XK.OX{.K.M.! U L ( ^ ^ ~ ",
"= X X X = : : * g g + . . .       o O o # - 7 8 H R ! s.n.g.g.y.W x 8 8 8 J ( { } o.#.#.1.U.P.m.z.A.@X*X-X2X-X$X/.U.[ ) ( ( L ^ ",
"= X X H = * h h g + + + . .       X o X % 5 7 r r H R ! a.y.A Z n z 6 6 K L { } o. .#.=.&.5.<.P.A.@X=X-X2X+X2X8X2XH.5.U | ) ) ( ",
"X X X X @ : o + + + + + O .           X % 5 e r e r K P Y c n j z i 7 7 J ) { | #.4.4.7.3.1.5.R./.-X8X0X8X8X8X8X2X!.R.>.| | { { "
};
