/* XPM */
static char *_bc247c0a2844dade89857b4b41a56b7juDP8AlNHK9O7G5P[] = {
/* columns rows colors chars-per-pixel */
"64 91 256 2 ",
"   c #3C0D77",
".  c #3A1867",
"X  c #202C7D",
"o  c #43127C",
"O  c #471177",
"+  c #4B147B",
"@  c #502C76",
"#  c #6E146E",
"$  c #6C6265",
"%  c #990137",
"&  c #AA013D",
"*  c #B8003F",
"=  c #9E313E",
"-  c #ED0101",
";  c #F60304",
":  c #F91716",
">  c #FC2A2A",
",  c #FE3937",
"<  c #E0271C",
"1  c #FA551F",
"2  c #B30141",
"3  c #BB0345",
"4  c #B70947",
"5  c #B50E4D",
"6  c #A72859",
"7  c #DB125B",
"8  c #CA0D51",
"9  c #F21E6B",
"0  c #E81865",
"q  c #DB3974",
"w  c #CA3169",
"e  c #F82874",
"r  c #C81E5F",
"t  c #AE4F75",
"y  c #A27D70",
"u  c #966844",
"i  c #FF4848",
"p  c #FF5857",
"a  c #FD5749",
"s  c #D04F7B",
"d  c #FE6969",
"f  c #FF7777",
"g  c #EB6E62",
"h  c #E36456",
"j  c #857421",
"k  c #58A90D",
"l  c #68B709",
"z  c #6EB70D",
"x  c #5EA521",
"c  c #79C60B",
"v  c #79C316",
"b  c #58A86E",
"n  c #66BA6A",
"m  c #8EB822",
"M  c #DDB530",
"N  c #F8AE2C",
"B  c #89CD19",
"V  c #91D62A",
"C  c #9ADA39",
"Z  c #8ED124",
"A  c #B9D12B",
"S  c #FDCC19",
"D  c #FFD21D",
"F  c #F6D51B",
"G  c #FDEB1A",
"H  c #FFD524",
"J  c #FFD62A",
"K  c #FEDC29",
"L  c #FFDE3A",
"P  c #FFD833",
"I  c #F8CD32",
"U  c #FCE628",
"Y  c #FFE13C",
"T  c #FCE836",
"R  c #CFE13A",
"E  c #8DAA71",
"W  c #AAA962",
"Q  c #CDB24E",
"!  c #E7A165",
"~  c #97D746",
"^  c #8ECC4D",
"/  c #A1DF42",
"(  c #AAD252",
")  c #A4E148",
"_  c #ABE555",
"`  c #B2E95C",
"'  c #9DD861",
"]  c #ABD56B",
"[  c #B5EA63",
"{  c #B8EB73",
"}  c #ABE165",
"|  c #FAD94A",
" . c #FFEA46",
".. c #FFED4B",
"X. c #FFE442",
"o. c #FFF257",
"O. c #EFEA4E",
"+. c #FED271",
"@. c #C3F379",
"#. c #C3E974",
"$. c #FFF567",
"%. c #FBEF70",
"&. c #C9C85B",
"*. c #002B93",
"=. c #023996",
"-. c #082D89",
";. c #001C87",
":. c #491583",
">. c #551891",
",. c #582990",
"<. c #6B3792",
"1. c #6D19B0",
"2. c #6C32A6",
"3. c #60199F",
"4. c #054899",
"5. c #0B569C",
"6. c #134B97",
"7. c #13669F",
"8. c #0B59A3",
"9. c #156AA5",
"0. c #177CB5",
"q. c #1572A9",
"w. c #2E73AC",
"e. c #2E5398",
"r. c #784DAF",
"t. c #7172B2",
"y. c #595BA1",
"u. c #7D1CC5",
"i. c #0B7EC5",
"p. c #7F59E6",
"a. c #8531BB",
"s. c #FC3E83",
"d. c #AD6D90",
"f. c #8A55BA",
"g. c #9672B4",
"h. c #AC6FB6",
"j. c #9F6287",
"k. c #D45582",
"l. c #F75290",
"z. c #D36F91",
"x. c #F36797",
"c. c #F878AB",
"v. c #C866B3",
"b. c #8921D4",
"n. c #8F27D6",
"m. c #9A2AE8",
"M. c #A127EC",
"N. c #B13FD5",
"B. c #9059C2",
"V. c #9866C5",
"C. c #A172CA",
"Z. c #A95EDC",
"A. c #CA64E2",
"S. c #CB2AC5",
"D. c #248AB5",
"F. c #298EB7",
"G. c #288A98",
"H. c #4896B3",
"J. c #5F9DA4",
"K. c #1B8BCC",
"L. c #1F90CF",
"P. c #2A96D4",
"I. c #339CD8",
"U. c #2D93CC",
"Y. c #3CA3DC",
"T. c #37A2DD",
"R. c #33A6C3",
"E. c #4DAED8",
"W. c #71B0D3",
"Q. c #48ADE3",
"!. c #59B9E9",
"~. c #4EB1E4",
"^. c #6CB8E5",
"/. c #6C9CC8",
"(. c #78C9CF",
"). c #70C7F0",
"_. c #4DC0D3",
"`. c #86B894",
"'. c #9089AD",
"]. c #AC95B4",
"[. c #ACA79C",
"{. c #DA839C",
"}. c #CE859F",
"|. c #FE8888",
" X c #FF9393",
".X c #FF9E9E",
"XX c #F28E92",
"oX c #DA94AC",
"OX c #D08EA9",
"+X c #F795BB",
"@X c #E894B0",
"#X c #D3A7B8",
"$X c #FEA6A6",
"%X c #F0B2B6",
"&X c #EFB891",
"*X c #94D690",
"=X c #B5D592",
"-X c #9DD8A4",
";X c #C4D796",
":X c #CAF08A",
">X c #FFFB96",
",X c #F8F38E",
"<X c #D9F7A9",
"1X c #FAF4B0",
"2X c #EDCFA6",
"3X c #B493D1",
"4X c #90AFCE",
"5X c #AFB4CE",
"6X c #979AC3",
"7X c #FA9CC2",
"8X c #E29FC6",
"9X c #CEB1CE",
"0X c #FBACCD",
"qX c #FAA4C8",
"wX c #E7B7C7",
"eX c #FBB6D3",
"rX c #EFB1C8",
"tX c #C8A6E0",
"yX c #8EC8D6",
"uX c #B6C7DC",
"iX c #ABC3D9",
"pX c #8FD1F0",
"aX c #B5DAEF",
"sX c #B2E3F9",
"dX c #D7C7D6",
"fX c #D1CDD7",
"gX c #E9C2CE",
"hX c #FCCACB",
"jX c #EAC9D5",
"kX c #FDC3DC",
"lX c #F5C8D6",
"zX c #EAD4DB",
"xX c #F7D2D6",
"cX c #FEFBC7",
"vX c #F1EED0",
"bX c #C7D6E5",
"nX c #D5DCE6",
"mX c #CCCDE0",
"MX c #FCCDE1",
"NX c #EDDBE1",
"BX c #FBD8E6",
"VX c #DBE3EB",
"CX c #D6E9F4",
"ZX c #EEEEEE",
"AX c #E8E7EA",
"SX c #F7E7EA",
"DX c #F6F5EB",
"FX c #EBECF1",
"GX c #EDF1F3",
"HX c #EDF4F9",
"JX c #F3F4F4",
"KX c #F6F9FA",
"LX c #FCFCFC",
"PX c #F8F7F7",
"IX c #FBEAF1",
"UX c #CFEDC9",
/* pixels */
"LXLXLXZXZXLXLXLXJXZXJXLXLXPXZXGXLXLXLXZXZXPXLXLXGXGXJXLXLXPXZXZXLXLXPXZXZXPXLXLXZXZXPXLXLXPXZXZXLXLXLXZXZXLXLXLXJXZXJXLXLXPXZXZX",
"LXLXLXZXZXPXLXLXJXZXJXLXLXPXZXZXLXLXLXZXZXLXLXLXJXJXPXLXLXJXZXGXLXLXLXZXZXPXLXLXZXZXJXLXLXPXZXGXLXLXLXZXZXPXLXLXGXZXPXLXLXPXZXZX",
"PXLXPXJXJXKXLXPXJXPXPXLXKXPXJXPXLXKXPXPXJXPXLXHXuX'.6XmXGXPXJXJXLXLXPXJXJXPXLXLXPXJXPXLXLXPXJXKXPXLXPXJXPXPXPXLXPXPXPXPXLXPXJXJX",
"ZXZXPXLXLXJXZXJXLXLXPXZXZXLXLXLXGXZXJXLXLXPXmXy.-.X 6.9./.VXLXLXJXZXJXLXLXPXZXZXLXLXKXZXZXPXLXLXZXZXPXLXLXJXZXZXLXLXKXZXZXLXLXLX",
"ZXZXJXLXLXPXZXZXLXLXPXZXZXPXLXLXZXZXKXLXPXnXw.*.*.5.q.F.R./.FXLXGXZXPXLXLXJXZXZXLXLXLXZXZXLXLXLXGXZXJXLXLXPXZXZXLXLXKXZXZXPXLXLX",
"PXPXPXPXJXKXPXLXPXJXPXLXPXPXJXLXZXnX9XnXFX4X8.=.*.9.D.R._.(.4XKXPXPXPXJXPXKXKXLXPXJXPXPXKXPXPXPXPXPXKXJXJXKXLXLXPXJXPXLXPXPXJXPX",
"LXLXLXZXZXKXLXLXJXZXJXLXLXPXAX3X<.:.2.f.V.w.8.=.=.7.0.F.R.(.t.AXLXLXLXZXZXPXLXLXZXZXPXLXLXJXZXZXLXLXLXZXZXPXLXLXZXZXPXLXLXJXZXZX",
"LXLXLXZXZXLXLXLXJXZXPXLXLXJX'..   >.r.C.3Xr.8.4.=.5.7.q.q.G.e.VXLXLXKXJXZXLXLXLXGXZXPXLXLXPXZXJXLXLXLXZXZXLXLXLXJXZXKXLXLXPXZXGX",
"JXZXKXLXLXJXZXJXLXLXPXZXJXtX:.  :.2.B.C.tXtXy.8.4.4.5.5.5.4.@ XXf |.%XPXLXPXZXJXLXLXLXZXZXKXLXLXJXZXPXLXLXJXJXJXLXLXPXZXZXKXLXLX",
"ZXZXJXLXLXPXZXGXLXLXLXZXZXg.1.o :.2.f.C.3X9Xt.w.9.=.*.*.X . * - : , d  XIXPXZXZXLXLXLXZXZXLXLXLXZXZXJXLXLXJXZXZXLXLXLXZXZXLXLXLX",
"JXJXJXPXLXPXPXJXLXLXPXJXGXf.2.o :.2.f.B.V.C.r.w.D.5.-.*.X * > : p f  X.X$XLXJXJXKXLXPXJXJXPXLXLXJXJXPXLXLXPXPXJXLXLXPXPXJXPXLXLX",
"LXLXKXZXZXLXLXLXZXZXJXLXLXB.3.:.:.:.2.2.r.2.,.J.E Q A W = < ; > d .X$XhX%XSXLXLXZXZXPXLXLXJXZXZXLXLXPXZXZXKXLXLXZXZXJXLXLXJXZXZX",
"LXLXLXZXZXPXLXLXDXZXGXLXLX3Xu.3.>.O :.:.:.O @ M D T  ...1 ; - , f $X%XxXhXxXLXLXZXZXJXLXLXPXZXZXLXLXLXZXZXKXLXLXGXZXPXLXLXJXZXZX",
"PXPXPXPXPXPXPXJXKXKXKXAX#Xv.M.u.3.>.O o     $ S K  .o.+.> ; - > d  X$XhXhXxXJXPXPXLXPXJXJXPXLXLXKXPXPXPXLXPXJXPXLXPXPXJXPXKXPXLX",
"ZXZXJXLXLXPXZXZXLXLX9X6 5 0 S.M.b.3.>.:.O   u U L  .$.,X, ; - : i f  X$X$XkXZXGXLXLXLXZXZXPXLXLXGXZXJXLXLXPXZXGXLXLXPXZXZXLXLXLX",
"ZXGXPXLXLXPXZXJXLXzX6 % 8 9 s.N.M.b.1.>.:.+ M H P X.o.,Xa : ; - : i p d ! IXGXJXLXLXLXZXGXLXLXLXJXZXPXLXLXJXZXJXLXLXPXJXZXLXLXLX",
"LXLXPXZXGXPXLXLXGXz.% % r 9 l.+XA.M.n.1.,.y D D P X...$.g > ; ; - : : : N %.>XDXJXZXPXLXLXJXGXJXLXLXLXZXJXPXLXLXJXZXJXLXLXPXZXGX",
"LXLXLXZXZXLXLXLXNXs 5 2 8 9 e c.+XA.N.N.h.&XL H J L X...N , : ; - - ; 1 I Y  .%.vXGXJXLXLXJXZXZXLXLXLXZXZXPXLXLXJXZXPXLXLXPXZXZX",
"LXLXPXPXJXKXLXLXSXs 5 & 8 7 9 e l.+X+X+XeXMXhX+.J J P L | a > ; - - 1 S | o.$.>X,XDXPXPXLXPXPXJXPXLXPXJXJXKXLXPXJXPXPXPXLXPXJXJX",
"ZXZXJXLXLXJXZXZXPXs 3 & & 8 7 0 l.qX+XeXMXMXIXIX+.K Q E J.y w ; - 1 N L X.$.>XcX1XcXPXZXZXLXLXLXZXZXJXLXLXJXZXJXLXLXKXZXZXLXLXLX",
"ZXZXJXLXLXJXZXZXLX@X8 * 2 2 2 8 7XeX7XeXMXBXBXIX%XE 0.K.T.Q.H.t 1 J H L ..$.>X1XcX1XLXZXZXLXLXLXJXZXJXLXLXPXZXZXLXLXLXZXZXKXLXLX",
"PXLXKXPXPXKXPXLXPXzXq 8 2 2 2 6 0XeX0XeXeXeXkXMX5XL.i.I.Q.!.pX).( U H L  .o.%.>X1X1XPXPXPXKXJXPXPXPXPXPXPXKXLXLXPXJXJXLXPXPXPXPX",
"LXLXPXZXZXLXLXLXJXZX8Xq r 8 2 w eXeXeX0X0XeXeX0XW.T.K.T.~.!.pXsXJ.U H P X.X...o.%.,XJXLXLXJXZXZXLXLXLXZXZXPXLXLXGXZXJXLXLXJXZXZX",
"LXLXLXZXZXLXLXLXZXZXJX7Xx.w 6 6 8XkXeX0X0X0X7X8X!.T.L.T.~.!.).sXyXI K J P X.X.X.X.vXJXLXLXPXZXJXLXLXLXZXZXKXLXLXZXZXKXLXLXPXZXZX",
"JXJXJXLXLXPXZXJXLXLXLXfX<.e.G.H./.].MXkXeXqX7X8X!.Y.P.I.Y.~.!.).(.R U H H J P P | PXLXZXDXPXLXLXJXZXPXLXLXJXZXJXLXLXPXZXZXKXLXLX",
"ZXZXPXLXLXJXZXGXLXLXnXe.-.9.F._.).H.g.MXeX0XqXwX).!.T.P.T.Y.Y.~.E.T G K H D D S 1XLXLXZXZXPXLXLXZXZXPXLXLXJXZXGXLXLXLXZXZXLXLXLX",
"JXJXPXLXLXPXJXPXPXPXt.;.6.q.F.R.E.F.6.9XeXrXhX2XyX).Q.P.L.P.I.R.G.x z m A F S | DXLXPXPXJXPXLXLXJXJXPXPXLXPXPXJXLXLXPXJXJXPXLXLX",
"LXLXKXZXZXLXLXLXJXmX6.*.4.7.0.D.q.7.X t.,X| T ..%.;X^.Y.P.K.K.G.k k k z z m | DXGXZXJXLXLXPXZXZXLXLXKXZXZXLXLXLXJXZXJXLXLXPXZXZX",
"LXLXLXZXZXPXLXLXJXuX8.=.=.6.9.9.7.4.-.$ G U ..o.>X1X;X!.I.L.D.x l k c c B ` ;XLXGXZXJXLXLXJXZXJXLXLXLXZXZXPXLXLXZXZXPXLXLXJXZXZX",
"PXPXPXLXPXPXJXPXPXbXq.4.=.=.=.4.4.-.X M S Y ..$.>X1XcX-XQ.I.b v k l c B / :X=XSXSXIXIXKXPXPXPXLXKXPXJXKXKXPXPXPXKXKXPXJXPXKXPXKX",
"ZXZXJXLXLXJXZXZXLXHXH.8.8.4.4.=.=.*.$ F D L  .$.>X1XcX:X!.Y.n c l l B Z _ <X;X%X7X7X0XzXZXPXLXLXJXZXJXLXLXPXZXZXLXLXPXZXZXLXLXLX",
"GXZXJXLXLXJXGXJXLXLXpX0.i.0.0.9.4.=.$ U D T  ...$.%.$.%.W.yX' c z l c B C #.=X#X0XeXeXkXNXPXLXLXZXZXPXLXLXPXZXJXLXLXLXJXZXLXLXLX",
"LXLXPXJXDXPXLXLXJXZXGX4XD.D.D.D.G.b ] T J J Y X. .....| `.9X#.V c l c c B V W rXeXMXMXIXBXIXGXJXLXLXLXZXZXPXLXLXJXJXPXLXLXPXGXJX",
"LXLXPXZXZXKXLXLXZXxX|.f OX4X/.n C { ,XT K H J L Y Y L I d.f.[._ B l l l l k [.0XeXMXBXBXIXBXZXJXLXLXLXZXZXLXLXLXZXZXJXLXLXJXZXZX",
"LXLXPXJXJXPXKXLXhXi i x.$XxX;XZ _ #.:XO.T K H H P J H S ].3X].} C c l k x x %X0X0XeXMXBXBXMXHXPXPXLXPXJXJXPXLXLXJXPXPXLXPXPXJXJX",
"ZXZXPXLXLXJXZXSXd > p ! .X2XC V _ ` { #.T U U U H D D N C.tX9X=X) v l k x ;XkX0X0X0XeXeX0XMXLXLXZXZXJXLXLXJXZXZXLXLXPXZXZXLXLXLX",
"ZXGXJXLXLXPXZX%X, , p x.|.&XZ C ) _ ` _ R U G U J H D Q C.3XtX'.] Z c x #XBXxXeXqXqXqX7X+XIXLXLXJXZXJXLXLXPXZXZXLXLXLXZXZXKXLXLX",
"PXPXKXPXJXJXKX$Xa i a d f ! ~ ~ C / / C C R R G U P H d.B.V.V.r.=X^ j u t }.eXeX0X7X7X+XlXJXPXPXKXPXPXJXPXKXKXLXPXJXJXLXPXKXPXPX",
"LXLXLXZXZXKXLX$Xd p a a p ! [ ` ) ) ) / ~ ~ y Q U L Q <.2.2.2.,.d.6 % % 2 8 s @X0XqXqXMXLXJXZXJXLXLXLXZXZXPXLXLXGXZXJXLXLXPXZXZX",
"LXLXPXZXDXLXLXeXf p p p p p Q [ ` ` ` _ _ ( h.a.j.W $ o + + O + w r 2 4 7 9 s.z.jXNXIXLXLXJXZXJXLXLXLXZXZXLXLXLXJXZXPXLXLXJXZXZX",
"PXGXPXLXLXPXGXNX|.f d d d p h &.@.@.:X{ } *X6Xb.u.2.<.:.      # 8 4 & 8 9 s.c.@XgXLXLXJXZXPXLXLXJXZXPXLXLXJXGXJXLXLXPXGXZXPXLXLX",
"ZXZXPXLXLXJXZXDXhX X|.|. X|.d g `.*X-X`.(.yXpXp.M.n.2.>.:.:.  5 * & 4 7 e x.+XlX9XLXPXZXZXLXLXLXZXZXJXLXLXJXZXZXLXLXLXZXZXLXLXLX",
"JXPXPXPXPXPXJXJXPXxX$X X X X|.}.0.K.E.~.!.).aX^.m.m.b.1.>.:.,.r 3 * 3 7 e l.+XxXwXLXPXJXJXPXLXLXJXJXJXLXLXPXJXPXLXLXPXJXJXPXLXLX",
"LXLXKXZXZXLXLXLXGXZXDXSXhXxXNXyXU.K.I.Q.!.!.^.~./.tXm.b.1.>.h.q 8 2 2 8 9 e +X@XdXZXPXLXLXJXZXZXLXLXLXZXZXPXLXLXZXZXPXLXLXPXZXZX",
"LXLXLXZXZXPXLXLXJXZXJXLXLXJXDXpXY.L.P.Y.Q.Q.Y.Y.R.UX5XB.a.g.8Xl.8 2 & 3 7 9 x.z.fXDXJXLXLXPXZXZXLXLXLXZXZXPXLXLXZXZXPXLXLXJXZXZX",
"PXJXPXPXPXKXPXKXPXLXPXJXPXPXLXaX~.Y.L.P.I.I.I.U.J.~ V ^ ] =X%Xc.q 3 * & 3 8 5 }.KXKXPXJXPXKXKXLXKXPXJXKXKXPXPXPXPXPXPXJXPXPXPXPX",
"ZXZXPXLXLXJXZXZXLXLXLXZXZXPXLXHX).~.Y.T.P.P.U.b V V ) ' :X<X:XXXx.8 3 & & % t AXLXLXKXZXZXPXLXLXJXZXJXLXLXPXZXGXLXLXLXZXZXLXLXLX",
"ZXGXPXLXLXJXZXJXLXLXPXZXZXLXLXLXsX).!.~.T.P.H._ C C } } :X1X<XW c.r 3 & % t zXZXLXLXLXDXZXLXLXLXZXZXPXLXLXPXZXJXLXLXLXZXZXLXLXLX",
"LXLXLXJXZXPXLXLXJXJXPXLXLXPXGXJXKXsX).).!.~.*X` / / _ } { :X:X^ x.q 3 2 k.SXLXLXJXZXPXLXLXPXZXJXLXLXLXJXZXPXLXLXJXJXPXLXLXPXGXJX",
"LXLXLXZXZXLXLXLXZXZXJXLXLXJXZXZXLXKXsXpXpX).*X` ) / ) ) ' _ ~ B {.k.w OXFXLXLXLXZXZXJXLXLXJXZXGXLXLXKXZXZXLXLXLXZXZXJXLXLXJXZXZX",
"LXLXPXJXJXPXLXLXPXJXPXLXLXPXJXJXPXLXPXCXpXpX-X[ _ _ / / ^ C V m %XOXwXAXHXKXLXPXPXJXJXLXLXPXPXJXLXLXPXJXJXPXKXLXPXJXPXLXPXPXJXJX",
"ZXZXJXLXLXJXZXZXLXLXPXZXZXLXLXLXGXZXKXLXLXCXUX:X{ ` ) / ^ C V &.dXnX%XLXLXJXZXGXLXLXPXZXZXKXLXLXZXZXJXLXLXJXZXJXLXLXPXZXZXLXLXLX",
"ZXZXJXLXLXPXZXGXLXLXPXZXZXLXLXLXZXZXJXLXLXJXZX<X:X{ ` _ ~ C ( %XdXdXjXLXLXPXZXZXLXLXLXZXZXPXLXLXZXZXJXLXLXPXZXZXLXLXLXZXZXKXLXLX",
"PXPXPXPXJXKXPXLXPXJXPXLXPXJXJXPXPXLXKXJXPXPXLXPXUX:X#.[ ] =XdXoXdX%XSXKXJXPXPXKXKXPXJXKXPXPXKXPXPXPXPXPXPXKXPXLXPXJXJXLXPXKXPXPX",
"LXLXLXZXZXPXLXLXGXZXPXLXLXJXZXGXLXLXPXZXZXLXLXLXKXzX2XUX[.5XdXoXdXwXPXGXZXPXLXLXJXZXJXLXLXPXZXZXLXLXLXZXZXPXLXLXJXZXJXLXLXPXZXZX",
"LXLXLXZXZXLXLXLXJXZXPXLXLXJXZXJXLXLXLXZXZXKXLXLXDXJXdXzXbX].9XoX#XjXKXGXJXLXLXLXZXZXPXLXLXPXZXJXLXLXLXZXZXKXLXLXGXZXPXLXLXJXZXZX",
"ZXJXJXLXLXJXZXJXLXLXPXJXGXKXLXLXJXJXJXLXLXPXGXJXLXLXPXwXdX].9XOXoXNXJXLXLXJXJXJXLXLXPXZXJXKXLXLXJXZXPXLXLXJXJXJXLXLXPXZXJXPXLXLX",
"ZXZXJXLXLXJXZXJXLXLXPXZXZXLXLXLXGXZXJXLXLXJXZXZXLXLXPXAXwX].].}.oXZXPXLXLXPXZXZXLXLXLXZXZXPXLXLXZXZXJXLXLXJXZXGXLXLXLXZXZXPXLXLX",
"JXJXJXLXLXPXJXJXLXLXPXPXJXKXLXPXJXJXJXPXLXJXJXPXLXLXPXPXSX9Xg.d.wXKXJXLXLXPXGXJXLXLXKXPXJXLXLXPXPXJXJXLXLXPXJXJXLXLXLXJXJXPXLXLX",
"LXLXKXZXZXLXLXLXZXZXJXLXLXPXZXZXLXLXLXZXZXLXLXLXZXZXJXLXLXzXj.j.IXLXKXZXZXLXLXLXZXZXJXLXLXJXZXZXLXLXPXZXZXKXLXLXZXZXJXLXLXPXZXZX",
"LXLXLXZXZXPXLXLXZXZXJXLXLXPXZXZXLXLXLXZXGXPXLXLXZXZXPXLXLXPX9Xt IXLXLXGXZXPXLXLXZXZXJXLXLXJXZXZXLXLXLXZXZXPXLXLXZXZXPXLXLXJXZXZX",
"LXPXPXPXKXPXKXPXPXKXKXPXPXPXPXKXPXPXPXPXPXPXPXPXPXPXPXKXPXPXAXj.{.JXPXPXPXJXPXPXPXLXKXPXPXPXKXLXKXPXPXPXPXPXPXKXPXPXPXJXPXPXPXPX",
"ZXZXJXLXLXPXZXZXLXLXLXZXZXLXLXLXZXZXPXLXLXJXZXJXLXLXPXZXZXPXLXiXd.gXPXLXLXJXZXGXLXLXLXZXZXLXLXLXZXZXJXLXLXPXZXGXLXLXLXZXZXLXLXLX",
"ZXZXPXLXLXPXZXJXLXLXPXZXZXLXLXLXGXZXPXLXLXJXZXJXLXLXLXZXGXLXLXCX'.oXPXLXLXJXZXJXLXLXPXZXZXKXLXLXJXZXPXLXLXPXZXJXLXLXLXZXZXLXLXLX",
"LXLXKXZXJXPXLXLXJXJXJXLXLXPXZXJXLXLXLXZXJXKXLXLXJXZXKXLXLXKXGXAX6XOXHXGXDXKXLXLXJXJXJXLXLXPXJXJXLXLXPXJXGXPXLXLXJXJXJXLXLXPXGXZX",
"LXLXLXZXZXPXLXLXGXZXJXLXLXJXZXJXLXLXLXZXZXPXLXLXZXZXJXLXHXAXZXFX5X].KXGXZXKXLXLXZXZXPXLXLXJXZXZXLXLXPXZXZXPXLXLXZXZXJXLXLXJXZXZX",
"LXLXPXJXJXKXLXLXJXJXJXLXLXPXGXJXLXLXPXJXJXKXLXLXJXJXPXbXnXiXFXFXbX5XLXJXJXPXLXLXJXJXPXLXLXJXJXJXLXLXPXJXZXKXLXLXJXJXJXLXLXJXJXPX",
"GXZXJXLXLXPXZXZXLXLXPXZXZXLXLXLXZXZXJXLXLXJXZXZXLXLXAXiXVXuXLXHXmX5XJXLXLXJXZXZXLXLXKXZXZXLXLXLXZXZXPXLXLXJXZXJXLXLXLXZXZXLXLXLX",
"ZXZXPXLXLXJXZXZXLXLXLXZXZXLXLXLXZXZXJXLXLXPXZXZXLXLXbXbXFXKXLXJXfX5XHXLXLXJXAXJXLXLXLXZXZXPXLXLXZXZXPXLXLXJXZXZXLXLXLXZXZXKXLXLX",
"JXPXPXPXPXPXKXPXJXPXPXPXPXPXPXKXPXKXPXPXPXKXPXLXPXPXuXnXKXKXKXAXmXbXLXJXPXPXKXLXKXPXJXKXPXKXKXPXKXPXPXPXLXPXKXPXJXPXPXPXPXPXLXPX",
"LXLXPXZXZXLXLXLXZXZXPXLXLXJXZXZXLXLXLXZXZXLXLXLXGXZXbXbXLXDXAXzXuXKXLXZXZXLXLXLXJXGXJXLXLXJXZXZXLXLXPXZXZXLXLXLXGXZXPXLXLXJXZXZX",
"LXLXLXZXZXLXLXLXJXZXPXLXLXJXZXJXLXLXLXZXZXPXLXLXJXJXGXbXVXZXnX5XVXLXLXZXZXPXLXSXgXzXKXLXLXJXZXJXLXLXLXZXZXLXLXLXJXZXJXLXLXPXZXJX",
"PXGXJXLXLXPXJXJXLXLXPXJXZXPXLXLXJXZXPXLXLXPXZXJXPXLXPXGXVXVXfXdXJXZXPXLXLXPXwXz.z.k.wXJXZXKXLXLXJXGXJXLXLXPXJXJXLXLXPXJXGXPXLXLX",
"ZXZXPXLXLXJXZXZXLXLXPXZXZXKXLXLXZXZXJXLXLXJXZXJXLXLXPXZXZXKXdXgXJXZXJXPXLXNXwXZXLXxXz.zXZXLXLXLXJXZXJXSXwXgXAXJXLXLXPXZXZXLXLXLX",
"JXJXPXLXLXJXJXPXLXLXPXJXJXPXLXLXJXJXJXLXLXPXJXJXLXLXPXJXJXLX5XoXJXZXaXuXPXNXJXPXPXLXwXgXPXKXLXPXJXzXoX{.{.k.oXJXLXLXPXJXJXPXLXLX",
"LXLXKXZXZXLXLXLXZXGXJXLXLXJXZXJXLXLXLXGXZXPXLXLXJXZXJXLXLXPXuXd.lXGXVXVXNXwXLXLXJXJXzXSXLXJXZXZXgX@XlXAXNXIX@XPXZXGXJXLXLXJXZXZX",
"LXLXPXZXZXPXLXLXZXZXJXLXLXPXZXGXLXLXLXZXZXPXLXLXGXZXJXLXLXPXVX'.t 9XnXVXZXz.IXLXZXZXzXPXLXPXAXwXgXLXLXjXgXPXxXPXZXZXPXLXLXPXZXZX",
"PXLXPXLXPXKXJXPXPXKXPXPXPXKXPXPXPXKXPXPXPXPXPXKXKXPXPXPXPXPXPXHX9Xt OXCXCX%Xz.jXJXjXzXPXDXzX@XjXPXPXLXjXz.oXjXKXKXKXPXPXPXKXPXLX",
"ZXZXJXLXLXJXZXZXLXLXLXZXZXLXLXLXGXZXJXLXLXPXZXJXLXLXPXZXZXLXLXLXAX].j.t d.wX{.w s s {.c.z.oXBXLXDXZXJXPXwXjXZXZXLXLXLXZXZXPXLXLX",
"ZXZXJXLXLXPXZXJXLXLXLXZXZXPXLXLXJXZXPXLXLXJXZXJXLXLXLXZXZXLXLXLXJXuX6X3XoXz.z.oXjXwXwXwXzXLXLXLXZXZXPXLXLXPXZXJXLXLXPXZXZXKXLXLX",
"LXLXKXJXZXKXLXLXJXJXJXLXLXJXZXJXPXLXLXJXZXLXLXLXJXZXPXLXLXJXJXJXLXGXnXKXJXPXLXaXbXJXKXLXLXPXGXJXLXLXKXZXZXKXLXPXJXZXPXLXLXJXGXJX",
"LXLXPXZXZXLXLXLXZXZXJXLXLXPXZXGXLXLXKXZXZXKXLXLXZXZXJXLXLXPXZXZXLXHX4XAXGXLXHXiXiXAXJXLXLXJXZXZXLXLXPXZXZXLXLXLXZXZXJXLXLXJXZXZX",
"LXLXPXJXJXPXLXPXJXJXPXLXLXPXJXJXLXLXPXJXJXPXLXLXJXPXPXLXLXJXJXJXLXLXbX4XnXLXKXCXnXDXKXKXLXPXJXJXLXLXKXJXJXPXLXLXJXJXJXLXLXPXJXJX",
"ZXZXPXLXLXJXZXJXLXLXPXZXZXLXLXLXZXZXJXLXLXJXZXJXLXLXKXZXZXLXLXLXGXZXJXVX4X4X5XiXHXLXKXZXZXLXLXLXZXZXPXLXLXPXZXJXLXLXLXZXZXLXLXLX",
"ZXZXJXLXLXJXZXZXLXLXLXZXZXPXLXLXZXZXJXLXLXPXZXZXLXLXLXZXZXLXLXLXZXZXJXLXLXVXnXZXLXLXKXZXZXKXLXLXJXZXJXLXLXJXZXZXLXLXLXZXZXPXLXLX",
"LXPXPXPXPXPXKXPXKXPXJXPXPXPXPXKXKXPXPXPXPXKXPXLXPXJXPXPXPXJXPXPXPXLXKXPXPXPXKXLXPXPXPXLXPXJXPXKXPXPXKXPXPXPXKXPXKXPXPXPXPXPXKXPX",
"LXLXPXZXZXLXLXLXGXZXJXLXLXPXZXZXLXLXPXZXZXPXLXLXGXZXPXLXLXJXZXZXLXLXPXZXZXLXLXLXGXZXJXLXLXPXZXZXLXLXPXZXZXLXLXLXZXZXJXLXLXPXZXZX",
"LXLXLXZXZXLXLXLXJXZXPXLXLXPXZXJXLXLXLXJXZXKXLXLXJXZXPXLXLXJXZXGXLXLXLXZXZXKXLXLXJXZXJXLXLXPXZXZXLXLXLXZXZXLXLXLXJXZXPXLXLXPXZXJX",
"PXJXJXLXLXPXGXJXLXLXKXJXJXKXLXLXJXJXPXLXLXJXJXPXLXLXKXZXJXPXLXLXJXJXJXLXLXPXZXJXLXLXPXJXJXPXLXLXPXJXPXLXLXJXJXJXLXLXKXJXJXPXLXLX",
"ZXZXPXLXLXJXZXZXLXLXPXZXZXPXLXLXZXZXJXLXLXJXZXZXLXLXLXZXZXPXLXLXZXZXJXLXLXJXZXGXLXLXLXZXZXPXLXLXZXZXPXLXLXJXZXZXLXLXPXZXZXKXLXLX",
"ZXZXPXLXLXJXJXJXLXLXLXZXZXPXLXLXJXZXJXLXLXPXZXJXLXLXPXGXZXLXLXLXJXZXPXLXLXPXZXJXLXLXPXGXGXPXLXLXJXZXJXLXLXPXZXJXLXLXLXZXZXPXLXLX"
};
