/* XPM */
static char *_212755a27f343ea8e50529e313a8787pB0lDFQJNYCiKiUt[] = {
/* columns rows colors chars-per-pixel */
"64 91 256 2 ",
"   c None",
".  c #3C0D77",
"X  c #3A1867",
"o  c #202C7D",
"O  c #43127C",
"+  c #471177",
"@  c #4B147B",
"#  c #502C76",
"$  c #6E146E",
"%  c #6C6265",
"&  c #990137",
"*  c #AA013D",
"=  c #B8003F",
"-  c #9E313E",
";  c #ED0101",
":  c #F60304",
">  c #F91716",
",  c #F93E11",
"<  c #FC2A2A",
"1  c #FE3937",
"2  c #C81126",
"3  c #FA551F",
"4  c #B30141",
"5  c #BB0345",
"6  c #B70947",
"7  c #B50E4D",
"8  c #A72859",
"9  c #C81253",
"0  c #DB125B",
"q  c #CA0B50",
"w  c #F21E6B",
"e  c #E81865",
"r  c #DB3974",
"t  c #CA3169",
"y  c #F82874",
"u  c #C81E5F",
"i  c #AE4F75",
"p  c #A27D70",
"a  c #966844",
"s  c #FF4848",
"d  c #FF5857",
"f  c #FD5749",
"g  c #D04F7B",
"h  c #FE6969",
"j  c #FF7777",
"k  c #EB6E62",
"l  c #E36456",
"z  c #857421",
"x  c #449B03",
"c  c #58A90D",
"v  c #68B709",
"b  c #6EB70D",
"n  c #6FAD35",
"m  c #79C60B",
"M  c #79C316",
"N  c #58A86E",
"B  c #66BA6A",
"V  c #8EB822",
"C  c #DDB530",
"Z  c #F8AE2C",
"A  c #89CD19",
"S  c #91D62A",
"D  c #9ADA39",
"F  c #8ED124",
"G  c #B9D12B",
"H  c #FDCC19",
"J  c #FFD21D",
"K  c #F6D51B",
"L  c #FDEB1A",
"P  c #FFD524",
"I  c #FFD62A",
"U  c #FEDC2A",
"Y  c #FFDA25",
"T  c #FFDA33",
"R  c #FFDE3A",
"E  c #FFD632",
"W  c #F8CD32",
"Q  c #FCE628",
"!  c #FFE13C",
"~  c #FCE836",
"^  c #CFE13A",
"/  c #8DAA71",
"(  c #AAA962",
")  c #CDB24E",
"_  c #E7A165",
"`  c #97D746",
"'  c #8ECC4D",
"]  c #A1DF42",
"[  c #AAD252",
"{  c #A4E148",
"}  c #ABE554",
"|  c #ADE659",
" . c #B2E95C",
".. c #9DD861",
"X. c #ABD56B",
"o. c #B5EA63",
"O. c #B8EB73",
"+. c #ABE165",
"@. c #FAD94A",
"#. c #FFEA46",
"$. c #FFED4B",
"%. c #FFE442",
"&. c #FFF257",
"*. c #EFEA4E",
"=. c #FED271",
"-. c #C3F379",
";. c #C3E974",
":. c #FFF567",
">. c #FBEF70",
",. c #C9C85B",
"<. c #042789",
"1. c #002B93",
"2. c #023996",
"3. c #123A8A",
"4. c #001C87",
"5. c #491583",
"6. c #581894",
"7. c #51188C",
"8. c #582990",
"9. c #6B3792",
"0. c #6D19B0",
"q. c #723BAA",
"w. c #672BA4",
"e. c #60199F",
"r. c #054899",
"t. c #0B569C",
"y. c #134B97",
"u. c #324E96",
"i. c #13669F",
"p. c #0B59A3",
"a. c #156AA5",
"s. c #1B77A7",
"d. c #177CB5",
"f. c #0B68AB",
"g. c #2E73AC",
"h. c #22649E",
"j. c #784DAF",
"k. c #7172B2",
"l. c #595BA1",
"z. c #7D1CC5",
"x. c #0B7EC5",
"c. c #7F59E6",
"v. c #8531BB",
"b. c #FC3E83",
"n. c #AD6D90",
"m. c #8A55BA",
"M. c #9670B1",
"N. c #AC6FB6",
"B. c #9F6287",
"V. c #D45582",
"C. c #F75290",
"Z. c #D36F91",
"A. c #F36797",
"S. c #F878AB",
"D. c #C866B3",
"F. c #8921D4",
"G. c #8F27D6",
"H. c #9A2AE8",
"J. c #A127EC",
"K. c #B13FD5",
"L. c #9059C2",
"P. c #9866C5",
"I. c #A172CA",
"U. c #A04ED7",
"Y. c #CA64E2",
"T. c #CB2AC5",
"R. c #248AB5",
"E. c #298EB7",
"W. c #288A98",
"Q. c #4896B3",
"!. c #5F9DA4",
"~. c #1B8BCC",
"^. c #1F90CF",
"/. c #2A96D4",
"(. c #339CD8",
"). c #2D93CC",
"_. c #3CA3DC",
"`. c #37A2DD",
"'. c #33A6C3",
"]. c #43A8DE",
"[. c #55B2D4",
"{. c #71B0D3",
"}. c #48ADE3",
"|. c #59B9E9",
" X c #4EB1E4",
".X c #6CB8E5",
"XX c #6C9CC8",
"oX c #78C9CF",
"OX c #70C7F0",
"+X c #4DC0D3",
"@X c #86B894",
"#X c #ACB28D",
"$X c #9089AD",
"%X c #AC95B4",
"&X c #AC9FA7",
"*X c #D7859B",
"=X c #FE8888",
"-X c #FF9393",
";X c #FF9E9E",
":X c #F28E92",
">X c #D995AC",
",X c #CD90AA",
"<X c #F795BB",
"1X c #EA92B0",
"2X c #D2A5B8",
"3X c #FEA6A6",
"4X c #FAB7B7",
"5X c #E6AFB5",
"6X c #EFB891",
"7X c #94D690",
"8X c #B5D592",
"9X c #9DD8A4",
"0X c #C4D796",
"qX c #FBDE90",
"wX c #CAF08A",
"eX c #FFFB96",
"rX c #F8F38E",
"tX c #D9F7A9",
"yX c #FDF8A9",
"uX c #FEFABB",
"iX c #F4EDAE",
"pX c #E5C6B4",
"aX c #B591D3",
"sX c #8DAFCE",
"dX c #B1B3CD",
"fX c #9898C3",
"gX c #FA9CC2",
"hX c #E29FC6",
"jX c #CEB0CE",
"kX c #FBACCD",
"lX c #FAA4C8",
"zX c #E7B4C5",
"xX c #FCB4D2",
"cX c #FAB9D4",
"vX c #EFB1C8",
"bX c #C8A6E0",
"nX c #8EC8D6",
"mX c #B3C6DC",
"MX c #8FD1F0",
"NX c #B5DAEF",
"BX c #B2E3F9",
"VX c #D8C7D5",
"CX c #D1CDD7",
"ZX c #FDC9CB",
"AX c #FDC3DC",
"SX c #F7CAD8",
"DX c #F8D3D5",
"FX c #EAC9D6",
"GX c #FEFBC7",
"HX c #F1EED1",
"JX c #C5D5E4",
"KX c #D7D9E2",
"LX c #FCCDE1",
"PX c #FBD7E6",
"IX c #F8E7ED",
"UX c #CFEDC9",
/* pixels */
"                                                                                                                                ",
"                                                                                                                                ",
"                                                                                                                                ",
"                                              l.<.<.y.s.XX                                                                      ",
"                                            g.1.<.t.a.R.'.XX                                                                    ",
"                                          sXp.2.2.a.R.'.+X[.sX                                                                  ",
"                                9.7.w.m.M.g.p.2.2.i.R.E.'.{.!.                                                                  ",
"                              O . 8.j.I.aXj.p.r.2.y.i.s.W.R.u.                                                                  ",
"                            5.. 5.q.m.I.bXbXl.p.r.2.r.t.t.r.# :Xh =X4X                                                          ",
"                            0.O 5.q.m.I.aXbXk.g.f.2.2.2.1.X 2 ; > s d -X                                                        ",
"                          m.w.5.5.w.m.L.P.I.j.h.R.t.1.1.o 2 < > d j -X3X4X                                                      ",
"                          L.e.7.O 7.w.q.j.q.8.!.( ) C / - > : < h -X4XZX4X                                                      ",
"                            0.e.7.+ 5.5.5.+ # C K ! $.$., > ; 1 j ;X4XZXZX                                                      ",
"                          D.G.F.e.6.+ O . . % H Q #.&.=.< : ; < h -X4XZXZX                                                      ",
"                      8 6 e T.J.F.e.6.5.O . a Q ~ $.:.qX1 : ; > s h -X3X3XDX                                                    ",
"                    8 * q w C.K.J.F.0.6.@ @ C J R $.:.>.f > : ; < s d h j IX                                                    ",
"                  Z.& 4 9 y C.S.Y.J.G.0.7.p J J E %.$.:.k < : : ; > > > Z >.yX                                                  ",
"                  g u & 9 e b.S.<XY.K.K.N.6XR J I R %.$.Z 1 > : ; ; : 3 W ! %.:.                                                ",
"                  t 7 * 5 0 y y C.<X<XlXxXLXDX=.P I W @.@.s < : ; ; , J @.$.:.eXrX                                              ",
"                  g 5 4 4 q 0 e C.lX<XcXLXPXIXIX=.I ) B !.( t : ; , Z R $.:.eXuXyXGX                                            ",
"                  1Xq 5 4 * 4 9 gXxXlXcXAXLXPXIX4X/ d.~._.].[.i 3 I P R #.:.eXGXGXGX                                            ",
"                    t q 5 = * 8 xXxXkXkXcXAXAXLXdX).x.(.}.|.OXOX .Q P R #.&.>.eXuXiX                                            ",
"                      r u q * t cXcXxXkXxXxXxXxX{.`.~.`. XOXMXBX!.Q P E %.#.&.&.:.iX                                            ",
"                      gXA.t 8 8 hXAXcXxXlXlXgXhX[._.~.`.].|.OXBXnXW U P E R ! %.%.iX                                            ",
"                        9.u.s.Q.XXfXLXAXxXlXgXhX.X]././._. X|.OXoX^ L I P W E E @.                                              ",
"                      u.3.a.E.+XoXQ.M.LXcXkXlXjXOX|.`./.`.`._. X[.~ L Y P J J J yX                                              ",
"                    k.4.y.s.E.'.[.Q.3.jXSXvX4XiXnXOX}.(.^././.'.W.n b V G H H @.                                                ",
"                    y.1.r.i.R.d.s.a.<.k.qX@.! $.>.0X.X`.^.~.~.W.c x c b b F @.HX                                                ",
"                    p.2.1.y.a.a.t.t.o % K Q $.&.rXyX0X[._.^.W.n v c m A F +.0X                                                  ",
"                    d.r.r.2.r.2.r.1.3.C J ! $.:.eXuXuXnX}.(.N m c v m A ] wX8XIX                                                ",
"                    Q.p.p.r.r.2.2.1.% K J ! $.:.eXyXGXwX|._.B m v v A F } tX0X5XgXgXkXFX                                        ",
"                    MXd.d.d.d.f.r.2.% Q J T #.$.:.>.:.>.nX{...A v v b A D O.8X5XlXcXAXAXPX                                      ",
"                      sXE.E.E.R.W.N X.Q I I ! %.#.$.#.@.&XjX;.S m v v m A S ( vXcXLXLXPXIX                                      ",
"                    =Xj ,X{.XXB D O.rX! U P I R R R R W n.m.#X| A v v v v c #XkXcXAXPXPXIXPX                                    ",
"                  s s A.3XDX8XS } O.-.&.~ U P I W E W H %XaX$XX.D m v c x n 5XkXkXcXAXPXPXLX                                    ",
"                h < d _ -XpXD S } o.O.;.~ Q Q Y P P H C %XbXjX8X] A v c c pXAXkXkXxXcXcXcXLX                                    ",
"              4Xs 1 d j :X:XS D ] }  .} } Q L Q U P J ) I.aXbX&XX.F m b 0XPXLXxXlXlXlXlX<X                                      ",
"              3Xs s f h j _ ] D ] ] ] D S ^ Q L Q U P n.L.L.P.j.#XD z % B.D.cXxXlXlX<X<XSX                                      ",
"              3Xh d s d d _ o.} { ] ] ] ] ` p ) U T ) 9.q.q.9.9.Z.8 & & 4 q r 1XkXlXlXPX                                        ",
"              ZXj d d d d d ) o.o. . . .} ..N.v.B.( % O O O . @ u t 4 5 0 w C.Z.FXPX                                            ",
"                =Xj h h h d k ,.-.-.-.O.X.7X$XH.z.q.9.5.. . . $ 7 7 * q y C.S.1XVX                                              ",
"                ZX-X=X=X-X=Xh l @X7X9X9X{.nXMXc.J.H.e.7.5.. + 7 6 * 5 0 y C.<XcX5X                                              ",
"                  DX3X;X-X-X=X*Xd.).]. X|.OXBX{.H.J.F.0.6.5.8.u q * 6 0 y C.lXFXVX                                              ",
"                        DXZXIXnX^.x.(. X|.|..X X{.aXH.F.0.e.N.r q 5 4 q w y 1X1X5X                                              ",
"                              MX_.^.)._.}.}._._.'.UXdXL.v.N.5XC.q = * q 0 w C.Z.                                                ",
"                              NX X`././.(.(.(.).!.` S ' X.8X5XS.r 5 * * 5 q 9 ,X                                                ",
"                                OX X_.`./.^.^.B S S { ..wXtXwX1XA.q 5 * & & i                                                   ",
"                                BXOX|. X_.(.Q...D D  .X.wXtXtX( A.t 5 * & i                                                     ",
"                                  BXOXOX|. X7X .] ] } +.O.wXO.[ A.r 5 6 V.                                                      ",
"                                    BXMXMXOX7X .{ ] ] } ..| ] V *Xg t >X                                                        ",
"                                        BXMX9Xo. .{ ] D ' D S V 5X2XzX                                                          ",
"                                            UXwXO. .} ] ' D S ,.VXCXzX                                                          ",
"                                              tXwXO. .{ ` D [ 5XVXVXSX                                                          ",
"                                                UXwX-.o.X.8XVX>XVXzX                                                            ",
"                                                    pXUX&XjXCX,XVXzX                                                            ",
"                                                      IXJX&XCX,X2XFX                                                            ",
"                                                      zXVX%XjX,X>X                                                              ",
"                                                        hXdX%X*X2X                                                              ",
"                                                          2XM.n.zX                                                              ",
"                                                            B.i                                                                 ",
"                                                            jXB.                                                                ",
"                                                              B.*X                                                              ",
"                                                              mXn.                                                              ",
"                                                                $X1X                                                            ",
"                                                                fX,X                                                            ",
"                                                                dX%X                                                            ",
"                                                      JXKXmX    JXdX                                                            ",
"                                                      mX  mX    JXdX                                                            ",
"                                                    JXJXIX      VXdX                                                            ",
"                                                    mX          JXJX                                                            ",
"                                                      JX        JX                                                              ",
"                                                            KXjX                                                                ",
"                                                            JXFX              Z.A.V.                                            ",
"                                                            CXFX                    Z.                                          ",
"                                                            dX>X                                          V.                    ",
"                                                              n.                                                                ",
"                                                              $XB.        Z.                                                    ",
"                                                                2Xi ,X    zXZ.                                                  ",
"                                                                  %XB.i n.  *Xt g g                                             ",
"                                                                    fXdX1XZ.*X                                                  ",
"                                                                                                                                ",
"                                                                                                                                ",
"                                                                      sX                                                        ",
"                                                                        sXsX                                                    ",
"                                                                                                                                ",
"                                                                                                                                ",
"                                                                                                                                ",
"                                                                                                                                ",
"                                                                                                                                ",
"                                                                                                                                ",
"                                                                                                                                "
};
