/* XPM */
static char *_310a1a061114be1e88c1354c9636a8aoqYZgVFlZeM3GGjV[] = {
/* columns rows colors chars-per-pixel */
"64 68 243 2 ",
"   c None",
".  c #452111",
"X  c #4C2512",
"o  c #552915",
"O  c #5C2D14",
"+  c #5B2E19",
"@  c #5B3319",
"#  c #612E11",
"$  c #612F19",
"%  c #653214",
"&  c #6B3413",
"*  c #65331A",
"=  c #6B361A",
"-  c #6D391C",
";  c #673918",
":  c #703714",
">  c #733916",
",  c #743B1B",
"<  c #7A3D1C",
"1  c #612E0F",
"2  c #743E21",
"3  c #6F3F22",
"4  c #395E15",
"5  c #58551B",
"6  c #7C411E",
"7  c #794D1F",
"8  c #6B4C1A",
"9  c #476A1C",
"0  c #55651F",
"q  c #4C741F",
"w  c #7C4322",
"e  c #764524",
"r  c #6A5D21",
"t  c #7E5636",
"y  c #7F5738",
"u  c #7A5222",
"i  c #4C7422",
"p  c #4E732F",
"a  c #547A23",
"s  c #577A27",
"d  c #567A35",
"f  c #506E28",
"g  c #686625",
"h  c #756927",
"j  c #687827",
"k  c #7A7530",
"l  c #61611F",
"z  c #3D1D0F",
"x  c #813F1E",
"c  c #82421E",
"v  c #8A441F",
"b  c #844421",
"n  c #8A4522",
"m  c #844924",
"M  c #8C4A24",
"N  c #874D29",
"B  c #944A23",
"V  c #9B4D25",
"C  c #914923",
"Z  c #8D532B",
"A  c #855929",
"S  c #9C5026",
"D  c #92552D",
"F  c #9C5229",
"G  c #96562C",
"H  c #805737",
"J  c #865B38",
"K  c #955B32",
"L  c #995E33",
"P  c #915730",
"I  c #A14F26",
"U  c #A35127",
"Y  c #A4552A",
"T  c #A9562A",
"R  c #AC5A2C",
"E  c #A4582C",
"W  c #B45D2D",
"Q  c #A85E31",
"!  c #B35F30",
"~  c #84662C",
"^  c #866736",
"/  c #9D6236",
"(  c #976737",
")  c #867835",
"_  c #977639",
"`  c #8E6C2C",
"'  c #B7602F",
"]  c #A26539",
"[  c #A56A3B",
"{  c #AA6D3D",
"}  c #AA6533",
"|  c #B46332",
" . c #BB6432",
".. c #BD6936",
"X. c #BD6C39",
"o. c #B56A37",
"O. c #A5763D",
"+. c #BE703B",
"@. c #C26E39",
"#. c #C16B37",
"$. c #C5723C",
"%. c #C8753D",
"&. c #967648",
"*. c #AD7342",
"=. c #A97C41",
"-. c #B27543",
";. c #B57A46",
":. c #BB7E49",
">. c #B87C47",
",. c #A77147",
"<. c #C87841",
"1. c #5D822C",
"2. c #5A8126",
"3. c #5E8136",
"4. c #64882B",
"5. c #6B8C33",
"6. c #678738",
"7. c #798434",
"8. c #789939",
"9. c #71922E",
"0. c #7FA03C",
"q. c #769649",
"w. c #7A9856",
"e. c #718C47",
"r. c #7F9A61",
"t. c #8A8A38",
"y. c #96873D",
"u. c #88973B",
"i. c #97953D",
"p. c #A2853D",
"a. c #84A43C",
"s. c #8AA83C",
"d. c #93A53C",
"f. c #95B43C",
"g. c #998A42",
"h. c #889A46",
"j. c #9B9344",
"k. c #819E56",
"l. c #939054",
"z. c #A98644",
"x. c #BD824B",
"c. c #B88A4B",
"v. c #A99845",
"b. c #B5964B",
"n. c #A48559",
"m. c #BF9752",
"M. c #84A443",
"N. c #8AA948",
"B. c #95AA46",
"V. c #95B24A",
"C. c #8AA656",
"Z. c #94A959",
"A. c #94B152",
"S. c #99B45A",
"D. c #A8A847",
"F. c #A8B14C",
"G. c #859D67",
"H. c #989469",
"J. c #A58A64",
"K. c #B4996B",
"L. c #B49B7B",
"P. c #AC9A70",
"I. c #8CA669",
"U. c #97AB68",
"Y. c #9CB66B",
"T. c #9CB664",
"R. c #95AC7A",
"E. c #9BB376",
"W. c #8BA471",
"Q. c #A4B969",
"!. c #A6A879",
"~. c #BAA474",
"^. c #A6BA77",
"/. c #B6A76F",
"(. c #C3864D",
"). c #C5884F",
"_. c #CA8D52",
"`. c #C58B50",
"'. c #CD9355",
"]. c #C59452",
"[. c #D19357",
"{. c #D39658",
"}. c #C2994F",
"|. c #C2AB79",
" X c #C9B07E",
".X c #ACC279",
"XX c #B5C67B",
"oX c #ACC46B",
"OX c #BA9A85",
"+X c #9FB486",
"@X c #BAA987",
"#X c #A7BA87",
"$X c #B6B786",
"%X c #AABC96",
"&X c #B9BA96",
"*X c #BEAB95",
"=X c #C9B583",
"-X c #D2BC8A",
";X c #C5B497",
":X c #C2AE87",
">X c #C9BBA8",
",X c #AEC288",
"<X c #B3C58B",
"1X c #B7C888",
"2X c #BBCC94",
"3X c #BCCC9D",
"4X c #B5C596",
"5X c #B5C795",
"6X c #BAC9A6",
"7X c #D9C695",
"8X c #C3D397",
"9X c #C8CC97",
"0X c #E0CD9C",
"qX c #C1CEAC",
"wX c #C8D5A9",
"eX c #D7DAAB",
"rX c #C8C7B3",
"tX c #DACCB6",
"yX c #CAD6B6",
"uX c #D2DDBC",
"iX c #D7DBB8",
"pX c #DDCAA2",
"aX c #EAD9A9",
"sX c #E6D5B7",
"dX c #E0CFB3",
"fX c #D7E2BB",
"gX c #F4E5B3",
"hX c #F6E8BA",
"jX c #EDE1AF",
"kX c #D4DDC4",
"lX c #D8DBC8",
"zX c #D7D6CA",
"xX c #E1DBD0",
"cX c #DBE3CB",
"vX c #D9E2C4",
"bX c #DDE4D3",
"nX c #F7ECC7",
"mX c #E5EADC",
"MX c #E4E7D8",
"NX c #F5F1D7",
"BX c #EAEDE5",
"VX c #EBECE7",
"CX c #F3F4EE",
/* pixels */
"                                                          mXwX<X      BXbXCXVX                                                  ",
"                                                bX6XmX    uXs.8.W.G.W.w.q.6Xw.%XCX                                              ",
"                                      r.C.W.6XbX#X1.R.cX  BXY.9.a i W.6.i 6.e.R.5XmX                                            ",
"                                      e.a a p 4.W.6X3XN.Y.fXY.9.4.1.w.3.4.1.R.M.f.T.w.4X                                        ",
"                                      w.1.r.e.2.p %X2XN.XXeXV.4.q i 2.i e.8.w.V.0.0.2.3.rX                                      ",
"                              eXC.+X3X,X0.0.a 1.9.8.8XiXlX$XV.4.2.2.2.i w.0.f.0.6.a 2.5.4X2XwX                                  ",
"                              T.0.0.8.C.N.f.C.E.A.T.yXmX~.z.s.a.8.d.7.2.5.0.S.f.0.q.5.5XbXS.a.wX                                ",
"                          #X6XyX^.C.4.0.8.w.uXkX.X$X@X!.S.a.0.4.7.b.j.2.q 6.$XQ.Y.w.0.T.vXI..X                                  ",
"                        6Xd #XQ.w.d 9 9.a.Z.<X0.F.z.z.i.u.s.5.4.s 7.y.f ) g.7.h.C.0.M.E.S.T.mX                                  ",
"                          yX,XN.0.4.1.w.S.5XeXN.v.m.D.M.d.s.M.4.i 4.z.^ c.].D.0.8.1.5.E.A.0.3X                                  ",
"                        bXcXbX<X5.2.a j W.MX*X) _ b.v.b.t.t.B.7.t.z.v.a.j.'.}.) &.d I.I.M.V..XVXMXkX                            ",
"                  6X+X5XN.V.wX6X6.i d 6.H.n.>.t.8.B.}.[./ / ].].'.[.v.u.B.`.;.Z -.z.&.&X^.2X4XkXoXM.Y.4XR.bX                    ",
"                  w.6.yXA..XU.e.q.C.!.k L L _.D.s.u.m._.;./ [.[.[.(.=.O.].'.x.L _.'.P / l.A.e.q.5XV.1XR.2.yX                    ",
"              uX1XE.%XuX<XvX,X3.Z.h.( x.`.L -.[.v.z.[ / Z w / [ ,.K N ] *.).-.>.[.*.P ).z.t.6.q.kX3X3XyXR..X2X                  ",
"            BXU.0.,X3XN.oX  cXA.l.*.P *.{.<.K >.L < * * & . . . . . O & , w m ] >.D ;.{.{ A 9..XMX8XA.Y.6XA.q.yX                ",
"            uXV.f.q.Q.N.1X  kXu.p.[.:.P x.`.D , O # o O # o o z o o o % & & & & w L _.-.Z c.v.g.&XuXV.Q.U.M.s..X                ",
"            cX8X.X#XMX2XwXkXQ.) m +.[.;.G N & # O & O % : . . . . . $ , > , : $ : < K D >.{.z.u.&.*X<XuXyXY.2X8XVX              ",
"          bXA.Y.    BXY..X~.t.B.z.K ;.[ > : : # # & % > 2 X . . X . $ x x < < 2 < < : Z ).-.) B.b.g.A.qX    uXM.<X              ",
"            1XY.cXVXyXN.A.&.u O.'.x.N < : , < > : , : x n o X o o X , n n b n x n m < < M / x.b.c.i.s.Y.VXBX6XT.vX              ",
"            BX6Xw.I.MXwXt.g.u.t.O.*.2 x x x n x < < , m C $ O o $ O 2 B V C B n V B c v < D b.d.) y.i.*XqXe.R.bX                ",
"            kX4X1.G.wXU._ u.N.u.K b n C M B B n x b < C B % % O * $ x V Y B I B F E V V b x ~ 0.a.v.v.l.6X2.k.uXmX              ",
"        mX3X^.^.+X#X5Xu.~ ~ t.y.Z C I F V V I C n n b V F O 1 O # 1 v I T I Y I Q ! E E B n u i.v._ t.h.!.R.%XS.yX              ",
"        bXQ.5XyXqX^.^.u.x.+.[ Z b F R R I T T V n B n F T & 1 % % 1 v T ' T R T | ..Q ! U C n D ] ] _ t.t.,XiXwXwXbX            ",
"          qXA..X4X<Xl.t.c.'._.N n C ! ' T R R I B V C T R & % % & % v T  .W W R #.#.o.o.| n C M x.[.j.t.) #X5XS.Y.mX            ",
"          fXY.wXr.e.( K N ] ] x F | #...R ' ' Y V V C R | < & & > : v W  .'  .W X.%...#...T Y B ] [ N ( ) 6.%X1X<X              ",
"            uX.XE.k.-.'.:.>.N : V o.@.@. . .' T V V V R | : & & : & v W #.W  .' $.%.$.$.@.W Y n w *.-._.=.e.#X1X                ",
"            E.a.4X*X,.:.).`.e + * m <.@. ...W B C V V R | : & & & # V W .. .' U } <.%.%.$.F - O 3 (.x.>.[ n.Y.M.kX              ",
"          BXT.V.C.Q.( D P L - + - | <.@.F C , & > n n Q | : % = & & B W Q E C = , M F X.+.R b o * K D Z _ 7.B.V.6X              ",
"            BXeX1XF.D.'.(.>.- o * m b G < < 2 < = < = F Q > & & : & C E , , 6 , m m 2 M M w - + * [ (.m.f.i.1XvX                ",
"            fXq.S.N.8.=.).;.- + o + O $ % < , * = # $ 2 M , & & > & x c * % % = - m , O O + o o * *.x.i.8.B.a.Q.                ",
"            bX0.s.8.k P / P = o * 3 * 2 * 2 2 = $ = o V W : & & : % C T * - - = e N - 3 = - - + O D K A 5.s.a.#X                ",
"            BXwXXX0.v.'.'.x., o = o.*.#.N , $ o * C v T R : % & : % C W E Y m + + 3 N X.X.Q b o O [ '.c.u.a.1XvX                ",
"              3X8XH.>.(.:.*.- O $ 2 <...W ' T x C V V T R & % & & & B W ' W W B Q <.$.$.<.Z + + O Z *.*._ ) Q.MX                ",
"            mXA.oXJ.( _ _ / , = B Q <.#.W ' ' T V V V T T < & & : & v T W W W ' +.%.$.$.$.T B w $ D _ O.=._ u.1X                ",
"              wX1Xn.b.f.u.x.b < ! X.<.#.W W W T V V V T T > & & : & B W W W W ' X.%.%.%.#.W W V & ) a.D.}.z.Y.mX                ",
"            mXT.Q.&._ u.u.( < < E V @. .W W W T V V B T T : & : : % C W W W W ' X.@.$.$...B U B & ) s.i.[ y.N.wX                ",
"            VX,X2XJ.O.y.=.{ 6 < Q @.<.| W W W T B V V I T : & & : 1 v W W W W W $.%.$.%. .W W B : ] v.v.z._ Z.vX                ",
"            5XQ.iXJ.D.d.`.(.b < R <.<. .T R W T V V V U T & 1 & : & B W W W ' W @.%.%.$.#.W W B & { z.f.b.( l.Y.                ",
"            1XQ.kXJ.u.s.y.L , < Y | @. .Y R W T V n C I T < = & > & C W R S I ' @.%.$.$. .U T B & Z u.s.y.^ $XA.cX              ",
"          fX3XvXiXD.i.p.-.*.< < Y Y @. .T R ' T n $ # Y T : & & : & B R R 6 1 U #.$.%.$. .B V V & ] ].v.v.j.uXqXwX              ",
"        vXM.E.uXQ.a.c._.'.;.< < R <.@. .T W W F 2 + o v E : & & & 1 B R w - X 6 } @.$.$. .T T B & L (.-.u.N.<XwXM.^.            ",
"        <Xs.M.T.Q.B._ K ] P , < R @.<. .R R W 2 o $ * , v : & & : & B M O * O e 6 o.%.@. .T Y B & N / L i.i.C.Z.a.A.            ",
"      MXmXyXY.N.2XL.>.).`.(.< , T ! @. .R R U % = n B m % : % & : & v 6 % C F K @ | %.@. .V Y C & *.[.`._.O.u.A.<X              ",
"    wXA.2XmXfX.XbXL.(.`.).:.w , E F X...W W E & < F L * = < & & > & v 6 & Y | N O o.%.$. .V I C & [ :.-.>.O.$X,X    T.Q.        ",
"    oXs.2X  8XS.kXOX} [ ] L < , R @.#.#.W W W < O = @ o B : & = & & B B 1 & ; X m %.$.@.#.W W v & G { { / ( U.Q.    S.V.uX      ",
"      <XwXmXwXS.mXOX`.'.[.`.b , W $.$.W W W W U < # = C R : % & & & v W S & % c X.<.$.$.#.W T v & -.{.[.'.,.Z.^.    ,XyX        ",
"      2XoX  MX1X4XJ.-.>.;.-.b < T | #.#.W W W T V V I T R : & & : 1 B T ' ' R R ..@.$.$.#.T T v & L :.:.>._ Q.    8XT.cX        ",
"    bXN.V.uXbXXXA.n.] } [ L < < F S #.#.W W W T V I V T R : & & : : B W ' ' ' ' ..%.@.@.W V U v & Z / L ] y.A.    .Xa.,X        ",
"      yXE.2XfXcX,Xg.'.[.[.(., & C | X. .' W | T V I I T R > & & > & C W W W W ' @.$.@.#. .R F , # [ [._.'.y.<X  8X^.8XmX        ",
"      CXbXT.oXwXE.u.y.-.-.] = O * m .. .W W R M B U I T W : % & & & B W W W E V Q @.@.#.#.B = + O N / ( u.h.  8XB.qX            ",
"        VXT.A.R.C.a.8.O.-.*.- o = |  . .B c , % : B v E T : & & & & V W S V b = : c D  .| R w o O ] x.g.a.u.#XT.N.6X            ",
"        CXyXuXkXe.u.v.].[.(.3 o * 2 w n , < 6 , : < & C T & & = & & C E , < < < m m < m c < = o O { [.c.b.t.&X                  ",
"      CXkXbX  kXp g ^ { L K - o o + O O % , , % * % + 2 C > & & > & v m $ & $ = - w , O O O o o $ D [ L ] K                     ",
"      VX%X6X%X6Xp l _ -.:.>.2 o * w - 2 * - e & $ 2 o V R > & & > & S ' * - - * 6 e ; w - , = O O { _.)._./                     ",
"      CX6Xr.r.r.p 0 y.].{.<.2 o * o... .n , % o = V C U W : & & : 1 S ' T U n + + x Z o. .Y < X O ] *.-.x.L >X                  ",
"      CXzXd d 3.p i t _ ( K * o + e X. .T Y T C V I I T T : # & & & S W ' T T F Q #.$.$. .v o O O Z K P ^ J                     ",
"        BXk.&Xw.a i p.p.(.O.< % m h o. .R U W W U Y V T T : & & : & V W ' T T ' ..#.#.$. .T v : % ] '.`.g.J               bX    ",
"  VXyXmXqXiXCXtX8.2.D.p.c.O.6 8 h h +. .R M T W I B v T R < & & > & S ' ' S U ' ..#.E o.} G B 7 8 D O.&.j &.          bXbXE.mX  ",
"  mX+X6X&XnXhXnXaXC.9.h ) ` 8 0 2.h } T B c I I C v v S U & 1 % % 1 B T T B B T R R S R ` M u h 8 G _ g s ^ &X  vX  CXsX#X#XBX  ",
"  bXI.I.2XhXjXgXhX9Xu.7.t.y.0 s 2.g 7 6 8 : > : & & & : < X X o o X & 6 > : < > < 6 6 6 r r g j 8 _ c.j s ) E.6XwX  nXhX9X5XbX  ",
"  4Xw.5XgXaXgXhXhXgXXX4.s s 9 a 2.j r ; & : 1 & - % : & % & & & & % & & & & & & : ; % : l 0 j 9.5 h k 9 q j I.I.fXnXaXgXjX4XmX  ",
"  MX3XhXaXgXgXgXaXaXjX|.6.9 4 q 4.2.5 @ % 1 & & % % & % % % & & & % & & & & 1 & % * & 5 0 q 9.9.a 9 4 4 9 j 8.$XNXgX7X7X7X5XkX  ",
"  VXnXgXjXgXgXaX0X X-X X XH.q.6.4.6.!.;XK.e 1 1 1 1 1 1 1 1 o O O 1 1 1 1 1 1 1 o o @ @ e.^.XXh.s i p H./.9XaXnXhX7X XK.~.!.6X  ",
"  xX|.-X-X-X7XaXgX-X|.|.=X-X7XQ.9.0XnXhXgXK.t H H H H H H t t J t t H H H H t t y y y ,.jXhXhX7X7.C.7XaX X|.7XaX7X|./.~.K.!.yX  ",
"    *XJ.P.J.K.L.~.K.K.;.P.K.K.~.9X7X7X;X=X@X                  dXsXsXdXdXtXsXsXsXtXdXdXpX0X0X7X|.:X    :XL.@X@X;X;X;X;X>XtXVX    ",
"      xXxXVXmXxXrXtX>XzXzX>X;XxX      xX                                                xXzXtX                                  ",
"                                                                                                                                ",
"                                                                                                                                "
};
