/* XPM */
static char *result[] = {
/* columns rows colors chars-per-pixel */
"64 68 248 2 ",
"   c #452111",
".  c #4C2512",
"X  c #552915",
"o  c #5C2D14",
"O  c #5B2E19",
"+  c #5B3319",
"@  c #612E11",
"#  c #612F19",
"$  c #653214",
"%  c #6B3413",
"&  c #65331A",
"*  c #6B361A",
"=  c #6D391C",
"-  c #673918",
";  c #703714",
":  c #733916",
">  c #743B1B",
",  c #7A3D1C",
"<  c #612E0F",
"1  c #743E21",
"2  c #6F3F22",
"3  c #395E15",
"4  c #58551B",
"5  c #7C411E",
"6  c #794D1F",
"7  c #6B4C1A",
"8  c #476A1C",
"9  c #55651F",
"0  c #4C741F",
"q  c #7C4322",
"w  c #764524",
"e  c #6A5D21",
"r  c #7E5636",
"t  c #7F5738",
"y  c #7A5222",
"u  c #4C7422",
"i  c #4E732F",
"p  c #567A26",
"a  c #567A35",
"s  c #506E28",
"d  c #686625",
"f  c #687827",
"g  c #786F2C",
"h  c #61611F",
"j  c #3D1D0F",
"k  c #813F1E",
"l  c #82421E",
"z  c #8A441F",
"x  c #844421",
"c  c #8A4522",
"v  c #844924",
"b  c #8C4A24",
"n  c #874D29",
"m  c #904721",
"M  c #944A23",
"N  c #9B4D25",
"B  c #934F29",
"V  c #8D532B",
"C  c #855929",
"Z  c #9C5026",
"A  c #92552D",
"S  c #9C5229",
"D  c #96562C",
"F  c #805737",
"G  c #865B38",
"H  c #955B32",
"J  c #995E33",
"K  c #915730",
"L  c #A14F26",
"P  c #A4552A",
"I  c #A9562A",
"U  c #AC5A2C",
"Y  c #A35227",
"T  c #B45D2D",
"R  c #A85E31",
"E  c #B35F30",
"W  c #84662C",
"Q  c #866736",
"!  c #9D6236",
"~  c #976737",
"^  c #867835",
"/  c #977639",
"(  c #8E6C2C",
")  c #B7602F",
"_  c #A26539",
"`  c #A56A3B",
"'  c #AA6D3D",
"]  c #AA6533",
"[  c #B46332",
"{  c #BB6432",
"}  c #BD6936",
"|  c #BD6C39",
" . c #B56A37",
".. c #A5763D",
"X. c #BE703B",
"o. c #C26E39",
"O. c #C16B37",
"+. c #C5723C",
"@. c #C8753D",
"#. c #967648",
"$. c #AD7342",
"%. c #A97C41",
"&. c #B57A46",
"*. c #BB7E49",
"=. c #B47845",
"-. c #A77147",
";. c #C87841",
":. c #5D822C",
">. c #5A8126",
",. c #5E8136",
"<. c #64882B",
"1. c #688936",
"2. c #798434",
"3. c #789939",
"4. c #71922E",
"5. c #7FA03C",
"6. c #769649",
"7. c #7A9856",
"8. c #718C47",
"9. c #7F9A61",
"0. c #8A8A38",
"q. c #96873D",
"w. c #88973B",
"e. c #97953D",
"r. c #A2853D",
"t. c #84A43C",
"y. c #8AA83C",
"u. c #93A53C",
"i. c #95B43C",
"p. c #998A42",
"a. c #889A46",
"s. c #9B9344",
"d. c #819E56",
"f. c #939054",
"g. c #A98644",
"h. c #BD824B",
"j. c #B88A4B",
"k. c #A99845",
"l. c #B5964B",
"z. c #A48559",
"x. c #BF9752",
"c. c #84A443",
"v. c #8AA948",
"b. c #95AA46",
"n. c #95B24A",
"m. c #8AA656",
"M. c #94A959",
"N. c #97B357",
"B. c #A8AB49",
"V. c #859D67",
"C. c #989469",
"Z. c #A58A64",
"A. c #B4996B",
"S. c #B49B7B",
"D. c #AC9A70",
"F. c #8CA669",
"G. c #97AB68",
"H. c #9CB66B",
"J. c #9CB664",
"K. c #95AC7A",
"L. c #9BB376",
"P. c #8BA471",
"I. c #A4B969",
"U. c #A6A879",
"Y. c #BAA474",
"T. c #A6BA77",
"R. c #B6A76F",
"E. c #C3864D",
"W. c #C5884F",
"Q. c #CA8D52",
"!. c #C58B50",
"~. c #CD9355",
"^. c #C59452",
"/. c #D19357",
"(. c #D39658",
"). c #C2994F",
"_. c #C2AB79",
"`. c #C9B07E",
"'. c #ACC279",
"]. c #B5C67B",
"[. c #ACC46B",
"{. c #BA9A85",
"}. c #9FB486",
"|. c #BAA987",
" X c #A7BA87",
".X c #AABC96",
"XX c #B9BA96",
"oX c #B9B38C",
"OX c #C9B583",
"+X c #D2BC8A",
"@X c #C5B497",
"#X c #C2AE87",
"$X c #C9BBA8",
"%X c #AEC288",
"&X c #B3C58B",
"*X c #B7C888",
"=X c #BBCC94",
"-X c #BCCC9D",
";X c #B5C596",
":X c #B5C795",
">X c #BAC9A6",
",X c #D9C695",
"<X c #C3D397",
"1X c #C8CC97",
"2X c #E0CD9C",
"3X c #C1CEAC",
"4X c #C8D5A9",
"5X c #D7DAAB",
"6X c #C8C7B3",
"7X c #D9CCB6",
"8X c #CAD6B6",
"9X c #D3DDBC",
"0X c #D6DBB7",
"qX c #DBC9A7",
"wX c #EAD9A9",
"eX c #E6D5B7",
"rX c #E0CFB4",
"tX c #D7E2BB",
"yX c #F4E5B3",
"uX c #F6E8BA",
"iX c #EDE1AF",
"pX c #D4DDC4",
"aX c #D9D9C8",
"sX c #D7D6CA",
"dX c #E1DBD0",
"fX c #DCE4CB",
"gX c #D8E1C4",
"hX c #DDE4D3",
"jX c #DFE4D9",
"kX c #F7ECC7",
"lX c #E4EAD5",
"zX c #E2E6DA",
"xX c #E5EADB",
"cX c #E5E7D9",
"vX c #F0EDD3",
"bX c #E6EAE2",
"nX c #EAEDE5",
"mX c #EEEFED",
"MX c #E9E5E0",
"NX c #EFF0EE",
"BX c #EDF1E6",
"VX c #F2F3ED",
"CX c #F8F5E8",
"ZX c #EFF0F0",
"AX c #F4F4F4",
"SX c #F7F8F6",
"DX c #FCFCFC",
"FX c #F8F8F8",
/* pixels */
"DXDXDXNXmXFXDXDXAXNXAXDXDXAXZXAXDXDXDXmXmXDXDXDXAXZXAXDXDXxX4X*XVXSXVXbXhXAXbXFXAXNXAXDXDXAXmXNXDXDXFXAXmXFXDXDXAXNXAXDXDXAXZXNX",
"DXDXFXmXAXFXDXDXAXmXAXDXDXSXmXNXDXDXAXbXbXAXDXDXhX>XjXDXDX9Xc.3.P.9.P.7.7.>X7.%XZXZXAXDXDXAXmXAXDXDXFXmXAXFXDXDXAXmXAXDXDXSXmXmX",
"FXFXFXAXAXFXFXFXAXAXAXFXFXFXAXAXFXFXmX9.9.F.>XjX X:.K.fXVXbXI.4.>.u P.1.u ,.8.P.:XjXmXZXDXAXAXFXFXFXFXAXAXFXFXFXAXAXAXFXFXFXAXAX",
"mXAXAXDXDXAXmXNXDXDXFXAXAXFXDXDXZXmXmX8.>.0 u 1.P.>X-Xv.H.9XH.4.:.:.7.,.<.<.K.m.n.N.7.;XAXFXDXDXZXAXAXDXDXAXmXNXDXDXFXAXAXFXDXDX",
"mXZXAXDXDXAXNXAXDXDXFXNXmXFXDXFXjXBXjX6.:.7.8.>.i .X=Xv.[.0Xn.<.0 0 <.u 6.3.7.v.5.5.>.,.8XFXDXDXAXmXAXDXDXAXNXAXDXDXFXNXmXFXDXDX",
"FXFXAXAXAXFXDXFXSXAXAXDXFXAXSX5Xm.}.>X%X5.5.p :.4.3.<XtXaXoXb.<.>.>.p u 7.5.i.5.1.p >.1..X=X4XNXFXFXFXAXAXFXDXFXAXAXFXDXFXAXAXAX",
"DXDXDXmXAXFXDXDXAXmXAXDXDXFXbXJ.5.5.3.m.v.i.m.L.n.N.0XxXY.r.i.t.3.u.1.>.4.3.N.i.3.6.1.=XlXM.y.4XDXDXFXNXAXFXDXDXAXmXAXDXDXAXAXmX",
"DXDXFXAXZXFXDXDXAXNXAXDXAX}.>X8XT.m.<.5.3.7.9X9X XoX|.U.J.t.5.<.2.l.s.>.u 1.oX[.L.5.c.J.gXF.'.BXDXDXFXAXZXFXDXDXAXAXAXDXDXAXmXAX",
"ZXZXFXDXDXAXZXAXFXDXFXAX>Xa  XT.7.a 8 <.t.F.*Xc.B.g.g.s.w.y.4.<.p g q.p ^ p.2.a.m.c.v.H.N.J.lXDXAXZXAXDXDXAXNXAXFXDXFXAXmXFXDXDX",
"NXmXAXDXDXAXmXZXDXDXFXmXbX8X%Xy.5.<.:.m.N.:X0Xv.k.).b.y.u.c.c.<.u 1.g.g j.^.b.t.3.p 1.L.m.5.-XDXZXZXFXDXDXAXmXZXDXDXFXAXmXFXDXDX",
"AXAXFXFXFXFXAXSXFXDXFXmXhXfXhX%X4.>.p >.F.cX@Xg / l.k.l.0.0.b.2.0.g.k.a.s.~.).^ #.p V.F.t.n.'.nXlXpXxXFXFXFXAXSXFXFXFXAXAXFXFXDX",
"DXDXFXNXZXFXDXDXmX;X}.;Xv.n.4X>X1.u i 1.C.z.=.q.3.b.)./._ ! ^.^.Q./.l.t.b.!.=.V =.g.#.$XT.=X>XpX[.c.H..X}.hXDXDXAXmXAXDXDXAXmXNX",
"DXDXFXAXmXSXDXDXmX7.1.8XN.'.G.8.6.m.K.Q J J /.k.b.w.)./.&.! /.(./.E.%.g.j.~.h.J Q.~.K ! f.M.8.6.:Xn.*X}.>.8XDXDXAXmXAXDXDXAXAXmX",
"AXAXFXFXDXSXAXpX%XL..XpX&XgX%X,.M.s.~ E.Q.! $./.k./ -.! V q ! ` ` H n ` $.E.=.=./.$.K W.k.0.1.6.pX-X>X3XK.'.=XBXFXDXFXAXAXFXFXFX",
"mXmXAXDXDXAXxXH.5.%X:X5.[.hXfXm.f...A ' /.h.H &.J , $ # @       . . X % , q v ` *.K &./.` C 4.'.zX<Xn.H.3XN.5.3XDXDXFXNXNXFXDXDX",
"AXAXAXDXDXAXpXv.n.5.[.n.*XxXgXw.r./.*.A E.!.A > o o X @ % X X j X X X $ $ % % % , J Q.=.V h.k.q.XX9Xn.I.G.c.v.'.FXDXAXAXAXDXDXDX",
"DXDXFXAXZXFXfX=X'.T.jX=X4XgXI.^ v ../.&.K b % @ o % # $ ;           @ : : : ; # ; , A A &./.g.w.#.oX&X9X8XJ.=X4XbXNXAXDXDXAXAXmX",
"DXDXFXZXZXlXm.I.jXzXbXL.'.Y.0.b.g.J =.` > % ; $ @ % $ ; , .     .   & k k , , 1 , , > V !.=.^ b.l.p.N.3XmXnX9Xc.&XmXAXDXDXSXmXmX",
"FXFXAXSXSXBX*XH.fXmX8Xv.n.#.y ../.E.b , ; , , > * > ; , x X . X X . > c b x c k x c , , b ! h.l.j.s.y.H.mXxX>XJ.tXSXSXSXFXFXAXAX",
"AXmXAXDXDXAXbX>X7.F.xX4Xa.p.0.0.' ' x , , k x k , , , x M O o X # o 1 B N m M c B B x z , A l.u.^ p.q.oX>X6.K.fXAXDXFXNXAXFXDXDX",
"mXNXSXDXDXVXpX;X:.9.8XG./ w.v.w.J x b b b M M c k x , M M $ $ o # @ k N P N N M P P Z B x , W t.t.k.k.f.3Xp V.8XxXDXFXmXmXFXDXDX",
"FXDXFXAXnX-XT.T.}. X&Xw.W W 0.q.V m N Y N N L M c c x Z S @ o o @ @ x L U N I N R E P P N x y e.k./ 0.a.U.K.;XN.8XAXFXDXFXAXAXAX",
"DXDXFXNXhXI.:X8X>X'.T.e.h.X.` V x N U U L Y Y N c M c S I $ < $ $ @ z I E I T P {  .E R P m z A _ _ / 0.0.].pX4X3XlXFXDXDXAXmXAX",
"DXDXSXAXAX4Xm.'.;X%Xf.0.j.~.Q.n b b { E Y T T L M N m P T % $ % % @ z T { T T U | o.{ { T b m b *./.s.0.^  X:XM.H.cXAXDXDXAXmXAX",
"AXNXAXDXDXtXH.4X7.8.~ K n J _ k N E o.} U T T I N N M U [ : % % , % z T { E O.T | +.o.o.{ U I M _ ' n ~ ^ 1.;X*X&XSXDXZXmXFXDXDX",
"mXmXAXDXDXAX8X*XL.V.=.Q.*.*.V ; Z  .o.o.{ { E I N N M T [ : % % ; $ z T } T O.T X.+.+.+.o.U P x 5 $.' Q.%.8.L.=XBXDXFXmXmXFXDXDX",
"FXFXFXFXSXAXH.y.>X|.` h.W.!.q o * v ;.o.{ } T M M N M T [ : $ % % % m T } { T L  .@.+.+.+.S = o w j.h.h.` z.H.c.gXFXFXFXAXAXFXFX",
"DXDXFXNXNXBXJ.n.m.I.~ D K J = X =  .o.o.S b , & ; c c U [ ; % % % % N T R P M % : V S | +.U x X & H H G / g v.B.>XVXAXDXDXAXmXAX",
"DXDXFXAXNXFXnX4X*Xn.B.~.E.&.2 X & v x A , , , , = , $ S [ ; % * % % m I > , q > q x 1 B b q * O # ` E.x.n.u.T.tXnXZXAXDXDXAXAXmX",
"AXAXAXDXFXFXpXc.N.b.3.%.W.&.2 X X O o @ $ 1 > # & # # 1 b > % % > % l l & $ $ & 2 v > o o O X X & $.E.e.5.b.c.T.AXFXFXAXAXFXDXFX",
"NXmXAXDXDXFXsXc.y.3.g K _ K * X & 2 & 1 * 1 1 * # ; X Z U : % % ; % m U & = > & w n 2 2 * = = O o A K C 4.t.t. XDXDXFXAXAXFXDXDX",
"AXAXAXFXDXFXbX4X*Xt.k.~.~.;.2 X =  .$.O.b 1 # X & M x I T % % $ % $ m U R P x O O 2 v X.| U x X # ` ~.j.w.w.*XgXDXDXAXZXAXFXDXDX",
"DXDXFXZXZXFXDX-X<XC.r.h.*.$.= X O q o.O.T T I x m N N I U ; $ % % % m T ) T T m R ;.+.;.+.b O X O A ' $./ ^ I.lXZXNXAXDXDXAXAXmX",
"DXDXFXmXZXDXlXn.[.Z.] / ~ ! > * B E ;.O.T T T I N N N I I : % % : % m T ) T ) ) +.@.+.+.;.U N 1 # A / ..%./ w.&XmXmXAXDXDXSXmXmX",
"FXFXFXFXAXFXAX4X*XZ.l.u.a.j.k k R | ;.O.T T T I N N N I I : % % : % m I ) T T ) | +.+.@.} U E N % ^ t.B.^.g.G.lXAXFXFXFXFXAXAXSX",
"ZXmXSXDXDXAXjXJ.I.#...y.w.~ , , P S +.O.T T T I M N M I I ; % % % % m T T I T ) o.+.+.+.} N Y M ; ( y.e...q.b.4XDXDXFXmXZXDXDXDX",
"AXAXAXDXDXAXNX*X=XZ...q.%.' , , U o.;.E T I T I M N M Y I ; % % % % z T ) I T ) +.+.+.@.O.T T M ; ! l.r.g./ M.aXDXDXFXAXAXFXDXDX",
"FXFXAXAXAXVX&XH.0Xz.B.u.^.E.x , U ;.;.{ I T T I N L L Y I ; $ % % % m T T T T ) o.+.+.@.{ T T M % ..s.b.l.~ M.H.gXAXAXDXFXAXAXAX",
"DXDXFXAXNXFX*XI.aXZ.w.y.q.J : , P  .o.{ Y T T I M z m P I : ; * 5 % m T ) Z L ) O.@.+.+.{ Y I M % V w.i.q.Q  XM.fXAXAXDXDXAXmXmX",
"DXDXAXAXBXtX-XgX0XB.e.r.=.$., , P P o.{ Y T T I b # # P I : $ % ; < M U P 5 o P O.+.+.+.O.M Y M % _ ^.k.k.s.0X4X4XfXAXDXDXAXAXAX",
"AXmXAXDXfXc.L.9XI.y.l.Q.~.=., , E o.+.E I I T Y q O X z P ; % % ; % M I v = . , ] | @.+.{ I P M % H j.=.0.b.&X3Xc.T.AXNXNXFXDXDX",
"mXmXAXDX&Xy.c.J.H.b.~ J ! H > , E o.;.} T T U 1 X # & > z ; $ % ; < m M X & X w 5 } @.o.{ I Y M % V ! H 0.u.m.M.t.M.fXNXNXFXDXDX",
"AXFXSXxXlX8XH.v.;XS.h.E.!.E.q > P ] o.{ T T P $ * c M q $ ; % % ; % z 6 $ M S H & ] @.o.{ Y Y m % $.~.Q.~.r.w.n.%XfXlXnXFXFXFXFX",
"DXDX3Xn.<XlX9X'.lXS.h.!.E.*.q > P S o.{ T T I $ , N J 2 = > % % : ; m : % Y [ n o { @.+.{ N L m ; _ ;.=.&.-.oX&XhXtXI.H.nXAXmXVX",
"DXSX'.y.=XlX<XJ.pX{._ ` ! J , : T o.o.{ T T T , o % + X M ; % * ; < m M < $ - . v +.+.+.O.T T z % A ' ` _ ~ G.I.tXgXN.v.9XAXAXmX",
"AXNXbX*X4XxX4XN.vX{.E././.!.x , I +.+.{ T I T P , # & M U % % % ; ; m T M - $ 5 | ;.+.+.O.T I z * =.(./.~.` M.T.lXlX%X8XAXAXDXDX",
"NXBXAX=X[.tXlX*X-XZ.=.*.*.$.x , I [ o.O.T T T I N N L I U ; % % ; < m T ) ) ) ) | +.+.o.{ I I z % J *.*.&.#.I.0XxX<XI.fXAXFXDXDX",
"ZXAXlXv.v.8XfX*XN.#._ _ ' J , , S S O.{ T T T I N L N I I : % % ; % m T ) ) ) T | o.+.O.O.m Y z % b _ J ! e.n.0XxX'.t. XAXFXDXDX",
"DXDXVX0XL.=XtXfX Xg.^.(.(.E.5 % B ] O.} T T T I N L L I I : % % : % M T T T T ) O.+.o.O.{ R S > $ ` ~.Q.~.r.&XfX4X'.=XvXDXSXNXNX",
"DXDXDXZXjXJ.[.4XK.t.p.X.' _ = X $ v O.{ T T U b M Y L I U ; % % % % M T ) T I B R o.o.o.{ N * O o n ! ~ w.a.7X=Xv.-XSXDXDXAXmXNX",
"AXFXAXSXBXN.n.K.m.t.3...=.' = O * [ { { M l > $ > N c P T ; % * % % Z T Z N z * ; l V  .[ U x X o ! *.p.t.w. XM.v.4XSXSXFXFXAXSX",
"ZXBXAXxXAX8XpXpX8.w.e./.~.E.2 X O q q z : , 5 , * , $ m Y % % % % % M P = > , , v v 5 z l , & X o ' ~.!.l.0.XXzXlXBXFXNXZXFXDXDX",
"ZXNXFXBXpXjX>XpXa d C -.J H = O X O X o $ , > $ $ $ O 1 m , % % : ; z z & $ # & ; q > o o o X X # A ` H _ H sXZXDXDXFXAXZXFXDXDX",
"DXDXFXnX.X>X.X>Xi h / &.*.*.1 X & q 2 1 & = 1 % # > X N I ; % % ; % Z E * * = & w q & q = > * O o ' Q.E.Q.! 7XDXAXAXAXDXDXAXAXAX",
"DXDXDXNX>X9.P.V.i 9 / ^.(.*.= X &  .} { c > - X = N M P I ; % % % % Z ) I Y c O O q V } ) P : . o _ $.=.h.! $XDXAXmXAXDXDXAXmXmX",
"DXDXAXAXsXi a a i 8 g / ! K * X O w X.{ I Y U z M L L I U : $ % % < Z T { I I N R O.+.+.{ b o < O V H H Q G dXDXAXAXAXDXFXAXAXAX",
"mXmXzXDXbXd.XX7.p u r.j.E.X.7 $ z W ..{ I Y ) T L Y N I U ; % % ; % Z ) ) I I ) } O.O.+. .P z ; @ _ /.!.p.Q sXAXFXDXFXAXNXfXBXDX",
"mXmX8XbX3XtXCX7X3.:.e.r.j...> 7 g d } { I M I I L N z I U , % % 5 % Z ) ) Z Z ) } } P } ] Z M 6 7 A %.#.g Q sXbXSXAXDXjXhXK.xXDX",
"AXxX}.;X.XkXuXkXwXM.2.g g ~ 7 d >.g ] P Z l Z Z m c l S L % < $ < < m I I M M I U U M U ( C 6 g 7 D / d p g XXnXpXCXCXeX X}.BXSX",
"SXfXF.F.1XuXiXuXuX*Xt.4.0.0.9 p >.d 6 5 ; ; 5 ; % % % : : X . X X . % 5 , ; , : 5 l 5 l e e e f 7 ~ j.f p ^ U.>X4XvXkXuX1X;XhXZX",
"BX;X7.:XyXwXyXyXuXyX].<.>.p 8 p >.f e - % : % % = < % % $ % % % ; < $ ; < % % < % ; $ ; h h f 4.9 d g 9 0 f F.F.tXkXwXyXiX;XxXZX",
"ZXjX-XuXwXyXuXyXwXwXiX_.1.8 3 0 <.>.4 + $ < $ < % % % % % $ $ % $ % % $ % % % % $ $ - 4 4 0 4.4.p 8 8 3 8 <.3.oXCXyX,X+X,X;XpXSX",
"mXmXkXyXyXyXuXwX2X`.+X`.`.C.7.<.<.1.U.@XA.w < < < < < < < < X @ X < < < $ < < < o X . + 3.T.].a.>.8 s C.R.1XwXkXuX,X_.R.Y.U.>XfX",
"AXjX_.+X+X`.,XwXyX+X_._.OX+X2XG.4.2XkXuXyXA.r F F F F F t F t G t r t F t t C r t t t z.eXkXuX,X1.m.2XwX`._.,X2X,X_.Y.Y.A.U.8XnX",
"DXFXoXZ.A.Z.A.S.S.A.A.#.D.Y.S.Y.1X+XqX+X#X#XqXeX7XrXrXeXeXrX7XrXeXeXeX7X7XrXeXeXrX7XrX2X2X2X,X_.#XdXqX#XS.S.|.@X@X@X@X$X7XmXmXmX",
"DXDXFXdXdXMXMXdXsX$XqX7XsX$X@XdXFXVXMXdXdXVXDXDXAXNXFXDXDXFXNXZXDXDXDXZXVXDXDXDXAXmXAXVXdXaX7XsXFXDXAXnXmXAXDXDXZXZXAXDXDXFXZXZX",
"FXAXAXDXFXFXFXFXDXDXFXFXAXFXFXDXAXFXFXDXDXFXAXAXFXFXFXAXAXFXFXFXAXAXFXFXFXFXAXAXFXFXFXAXAXFXFXDXSXAXFXFXFXFXAXFXFXFXFXAXAXFXFXFX",
"NXmXAXDXDXAXmXZXDXDXDXZXmXFXDXDXAXmXAXDXDXAXmXZXDXDXFXZXmXDXDXDXZXmXAXDXDXAXNXAXDXDXFXZXZXDXDXDXVXmXAXDXDXAXmXZXDXDXFXNXAXFXDXDX"
};
