/* XPM */
static char *f359661689704e019f196d487e427810HCexVW1KDre1qh4D[] = {
/* columns rows colors chars-per-pixel */
"75 76 236 2 ",
"   c None",
".  c #030201",
"X  c #0A0908",
"o  c #021802",
"O  c #12100D",
"+  c #1A1716",
"@  c #110F0F",
"#  c #112812",
"$  c #1F1E20",
"%  c #2A272B",
"&  c #3A3734",
"*  c #33302C",
"=  c #202019",
"-  c #423B37",
";  c #10440F",
":  c #136815",
">  c #2E742F",
",  c #2C652D",
"<  c #4C473C",
"1  c #534C3C",
"2  c #655D3E",
"3  c #3A3A40",
"4  c #4D4B43",
"5  c #4B4946",
"6  c #534E42",
"7  c #504F4E",
"8  c #555243",
"9  c #595345",
"0  c #56554A",
"q  c #5B564B",
"w  c #5D594B",
"e  c #5C5947",
"r  c #5C555B",
"t  c #5A5755",
"y  c #4C475A",
"u  c #615C4E",
"i  c #675D46",
"p  c #635E52",
"a  c #625C5A",
"s  c #6A624C",
"d  c #75654B",
"f  c #656254",
"g  c #6A6555",
"h  c #6B665A",
"j  c #6E6A5B",
"k  c #676558",
"l  c #726C5D",
"z  c #726854",
"x  c #78725D",
"c  c #595368",
"v  c #504D61",
"b  c #655E6B",
"n  c #635B67",
"m  c #665E76",
"M  c #6B6565",
"N  c #6C6768",
"B  c #736E61",
"V  c #726C6B",
"C  c #767263",
"Z  c #797465",
"A  c #76736A",
"S  c #7B7669",
"D  c #7D796B",
"F  c #777868",
"G  c #6A6375",
"H  c #746C7A",
"J  c #7E7A73",
"K  c #7A7578",
"L  c #817C6E",
"P  c #817969",
"I  c #837E72",
"U  c #857E77",
"Y  c #8C7E5A",
"T  c #0C8C09",
"R  c #089209",
"E  c #188D18",
"W  c #16A916",
"Q  c #3D963E",
"!  c #2B8A2C",
"~  c #31AB2E",
"^  c #1BB022",
"/  c #35C736",
"(  c #35D032",
")  c #4B8D4A",
"_  c #4EB54F",
"`  c #69A568",
"'  c #6CB66A",
"]  c #689370",
"[  c #53DB51",
"{  c #52E553",
"}  c #6BC36B",
"|  c #79CD75",
" . c #65E267",
".. c #76F376",
"X. c #60D061",
"o. c #87816E",
"O. c #94866B",
"+. c #868273",
"@. c #8A8576",
"#. c #8B8977",
"$. c #8C877A",
"%. c #8D897B",
"&. c #868679",
"*. c #918C7D",
"=. c #948877",
"-. c #95917A",
";. c #879074",
":. c #ADA07B",
">. c #C6B67D",
",. c #D0B67F",
"<. c #81F97E",
"1. c #7B7483",
"2. c #7A758B",
"3. c #7B7294",
"4. c #7E769A",
"5. c #716A84",
"6. c #827A9B",
"7. c #867E96",
"8. c #867DA1",
"9. c #7EBD89",
"0. c #7EFC81",
"q. c #8B8582",
"w. c #8A8985",
"e. c #938E82",
"r. c #938C88",
"t. c #969283",
"y. c #9A9485",
"u. c #9D9985",
"i. c #9C9689",
"p. c #9E9A8B",
"a. c #96908D",
"s. c #8A8497",
"d. c #9D9B93",
"f. c #9B9595",
"g. c #908F92",
"h. c #A39D8E",
"j. c #A19685",
"k. c #A49E91",
"l. c #A59D98",
"z. c #8DBA92",
"x. c #A8A38C",
"c. c #A5A092",
"v. c #A7A197",
"b. c #BAAD91",
"n. c #8C83A4",
"m. c #8F86A9",
"M. c #948AAC",
"N. c #958BAA",
"B. c #9A92AB",
"V. c #968DB2",
"C. c #998EB3",
"Z. c #9A8FB8",
"A. c #9B91B4",
"S. c #9D94B9",
"D. c #9E9AB1",
"F. c #A49ABA",
"G. c #A49CA6",
"H. c #A6A3A7",
"J. c #AEA8B9",
"K. c #B1AABA",
"L. c #BAB6AF",
"P. c #C8B588",
"I. c #D2BC89",
"U. c #C9BA95",
"Y. c #D1BC92",
"T. c #C4BDAF",
"R. c #A7D6A6",
"E. c #B7D7B6",
"W. c #ACD2AC",
"Q. c #8FE493",
"!. c #D2C18C",
"~. c #D6C493",
"^. c #DCCB9B",
"/. c #D9C597",
"(. c #CEC393",
"). c #E4D19D",
"_. c #D9CBA5",
"`. c #CCCBBD",
"'. c #E1CCA2",
"]. c #E4D4A4",
"[. c #EAD5A6",
"{. c #E9D9A6",
"}. c #E6D6AB",
"|. c #EAD6AB",
" X c #E6D9AB",
".X c #EAD9AB",
"XX c #E5D9A5",
"oX c #EADCB3",
"OX c #E7D8B3",
"+X c #EEE2B9",
"@X c #F3E3BA",
"#X c #F3E5B9",
"$X c #AFA5C8",
"%X c #B4ACC2",
"&X c #B8AECD",
"*X c #B3A9C7",
"=X c #B8B7C5",
"-X c #B7ADD1",
";X c #BCB3D4",
":X c #C4BDD1",
">X c #C6BDE0",
",X c #BBCBC6",
"<X c #CACCD5",
"1X c #CACBDB",
"2X c #C9C8D8",
"3X c #D9D9DF",
"4X c #D0D0D1",
"5X c #E8DEC6",
"6X c #D9FAD7",
"7X c #D3EBD2",
"8X c #ECE3C7",
"9X c #FAECC4",
"0X c #FBEECB",
"qX c #F5E8C5",
"wX c #FDF0C6",
"eX c #FEF2CD",
"rX c #E8E5D5",
"tX c #FCEFD1",
"yX c #F9EEDE",
"uX c #FEF1D2",
"iX c #FCF2DB",
"pX c #F6F1D8",
"aX c #CEC5E6",
"sX c #D4CCE5",
"dX c #D4CCEB",
"fX c #DAD8E1",
"gX c #D7D0F0",
"hX c #E9FCE7",
"jX c #F7F9EB",
"kX c #EDEEF3",
"lX c #F5F5F4",
"zX c #F4FEF5",
"xX c #FDFDF5",
"cX c #FEFEFE",
"vX c #F6FFFA",
"bX c #EDF1EE",
/* pixels */
"                                              9 e                                                                                                     ",
"                                                j F t 4                                                                                               ",
"                                                  B %.J k                                                                                             ",
"                        J %.q 8                     A %.&.U 0                                                                                         ",
"                        a U y.h.F C 5               f C J %.%.F k                                                                                     ",
"                        q I $.y.h.k.i.k 0           6 B F D %.$.#.+.w             f B q                                                               ",
"                          a $.q.h.h.k.c.r.D 4         w C S I %.*.#.+.B 4         u e.y.L 5               6 g                                         ",
"                          6 S $.t.k.d.c.d.k.i.f p       l Z C L %.;.;.#.+.f         Z *.h.j.g u           6 *.k                                       ",
"                          6 B P $.e.h.h.h.h.h.k.k.$.p 1 l Z C C J +.#.#.#.#.k       j #.*.h.h.*.q         9 @.u.j                                     ",
"                            9 B $.=.e.h.h.h.h.i.h.k.j.U z l B Z C F +.+.$.%.D w     6 L %.-.h.h.e.q       8 L *.p.f                                   ",
"                              g S U =.e.k.h.h.h.h.h.k.k.*.B u l Z Z C F %.$.@.C u   1 C @.*.h.c.k.e.w     1 L #.u.;.                                  ",
"                              6 C I =.q.e.h.k.h.h.k.h.h.l.k.y.g h F Z C S @.@.Z B 0 4 g L #.t.h.p.d.*.j   8 Z +.-.c.k                                 ",
"                                p S L e.%.t.h.k.h.k.k.k.h.k.k.j.o.u B Z Z Z Z Z C B 9 u C @.*.p.c.c.p.p.D 1 C P ;.d.t.0                               ",
"                                q B P U $.*.h.k.k.h.k.k.k.k.k.k.h.h.l f Z Z C C C C l u Z +.%.t.c.p.c.h.p.Z j C +.e.c.&.                              ",
"                  0 0 4           j Z P $.*.*.h.h.k.k.k.k.k.k.k.h.h.h.t.u l B Z C C S f l o.%.%.h.h.h.c.h.h.Z x C #.p.h.t                             ",
"                  0 C j f 6       6 Z C +.%.@.j.h.h.k.k.k.k.x.k.h.c.h.h.h.S p B Z C C f j S $.$.y.h.h.c.h.h.h.D g o.t.c.+.                            ",
"                    j C C j q 9 8   w C D $.$.$.u.c.c.h.c.c.k.k.k.k.k.k.k.c.y.g j D C g l C +.%.*.p.h.c.k.k.k.x.P x @.h.y.q                           ",
"                    j F F C C Z B g f C C o.$.$.*.c.h.h.h.c.h.c.k.k.k.k.k.c.h.i.+.f Z g j C D $.#.i.h.c.k.k.k.k.j.i U e.h.Z                           ",
"                    6 C B C Z Z C C j g C Z +.%.%.t.p.h.h.h.h.h.k.k.k.k.k.c.c.h.h.%.s j 8 C Z %.%.%.p.c.l.k.k.k.h.e.B =.h.+.                          ",
"                    8 C C C C C C C C 0 C C F #.%.%.p.h.h.h.h.c.k.k.h.c.h.h.h.h.k.c.h.S 8 Z +.$.%.#.y.d.k.k.k.k.h.j.=.l u.j.u                         ",
"                      w C Z Z C C Z C B f C C +.%.%.%.i.h.h.h.k.k.x.k.k.k.k.h.h.k.p.h.h.u.l *.$.%.%.*.h.k.k.h.k.k.h.h.l *.j.y.                        ",
"                      8 B C C C C C C l u C Z L %.%.%.*.i.h.h.h.k.k.k.k.h.h.k.k.k.h.h.h.x.-.j +.%.%.%.u.k.h.k.k.j.k.k.j.g h.k.B                       ",
"            f k         f C C Z C C Z C p B C Z L @.$.$.y.i.k.h.k.k.j.k.h.k.h.k.h.h.h.c.h.h.j.l %.%.%.*.h.k.k.k.k.k.k.k.P k.l.U                       ",
"            g #.u.I e e   p C C C Z C C C e Z Z Z @.$.%.$.y.k.h.k.k.k.k.h.k.h.h.h.c.p.p.i.h.h.=.%.%.*.*.h.h.k.k.k.k.k.k.k.k.h.k.w                     ",
"            g %.i.h.h.*.S S p l Z C C Z Z f j C C L %.$.@.*.y.h.k.j.k.k.k.k.h.k.h.h.h.h.l.7.V y f.q.=.=.j.k.k.k.k.k.k.k.k.j.x.k.e.                    ",
"            f F %.h.h.h.k.k.y.B u h l C Z l f x F S $.$.%.@.$.y.k.k.h.h.k.k.h.h.h.h.l.l.n U 6.K.b r.*.q.k.k.k.k.k.k.k.k.k.x.x.x.h.h                   ",
"            4 F &.%.h.c.k.k.k.k.h.=.I p g C e C C S $.%.$.$.$.*.j.k.k.h.j.h.k.h.h.h.f.H m.m.7.aXb h.=.j.k.k.k.k.k.k.k.k.x.l.j.k.h.z             y y y ",
"            < j S %.t.i.j.k.k.k.j.v.v.j.D u w j D @.$.#.@.$.$.$.=.j.h.k.k.h.h.k.l.a.H F.M.3.aXdXK.7.k.j.k.k.x.k.k.k.x.k.l.j.x.x.c.u.6       c 5.n.3.c ",
"              0 C I %.%.d.h.h.h.k.k.k.d.i.*.*.f #.*.%.$.%.%.%.y.j.h.h.k.k.k.k.l.l.7.F.C.8.A.dXdX%X7.h.h.k.k.k.k.k.j.k.k.k.x.k.k.k.i.0   v 4.4.9.4.D.v ",
"                g D %.%.%.h.k.h.h.h.h.h.c.i.%.%.*.$.$.#.*.*.p.h.l.k.h.h.k.j.h.l.N $XF.M.6.*XdXdXsX1.k.h.k.j.k.k.k.k.k.h.k.j.x.k.l.r.v G V.Z.4.V.-X%X  ",
"                0 A S %.$.*.t.h.k.h.h.k.h.p.%.%.$.@.@.%.*.h.k.k.k.h.k.h.k.h.k.r.7.$XZ.m.7.sXdXdXdX2.f.h.k.k.k.k.k.k.k.k.k.j.k.j.m 7.8.Z.8.4.S.dXdX5.  ",
"                  j C D *.$.$.t.h.h.p.h.i.*.%.%.%.%.%.%.e.h.h.h.h.h.k.k.h.j.a.m :X*XA.8.A.dXdXdXdX2.l.h.x.k.k.k.k.k.l.h.k.k.U 7.$XZ.Z.V.8.Z.dXgX1Xr   ",
"                  q C S P $.$.@.%.*.%.%.*.%.%.%.%.%.%.%.i.c.c.h.h.h.k.i.t.e.N F.:XZ.C.8.aXdXdXdXdX>XP h.h.k.k.c.h.h.c.p.d.J H.%XF.Z.8.6.Z.gXdXdXs.    ",
"4 5                 u Z Z +.$.@.%.$.%.$.@.%.$.%.%.%.%.%.$.i.h.h.h.k.i.*.%.U n $X*XZ.C.8.F.gXdXdXsX>XM k.h.k.k.h.k.c.h.c.f.1.%X$XZ.8.8.F.aXgXdXdX6.    ",
"q I q               8 p l B +.@.$.+.+.%.#.%.@.Z D +.@.%.%.t.h.h.k.i.*.*.U V 7.:X-XC.S.8.8.dXdXdXsX>XM k.p.c.c.h.k.k.h.h.N J.;XF.Z.6.Z.aXdXgXaX>X      ",
"0 A $.S j 6         Z L C g u S #.u l +.%.@.Z C C C D #.%.%.%.i.h.*.$.%.Z V 7.-X:XS.Z.M.8.-XdXdXsX$XM k.c.p.c.c.l.k.h.r.c -X-XZ.Z.6.aXdXdXdXdX8.      ",
"  h I %.j.h.V p < 8 1 P @.@.@.l k u U z L D C C Z Z C D @.%.%.$.%.%.%.+.C V s.&X-X$XC.C.8.6.8.:X*X5.H l.h.h.h.c.k.h.i.&.c &X$XZ.3.$XgXdXdXsX2Xr       ",
"  6 S U *.h.k.j.@.u 8 B B L &.$.] z B e.C l Z C C C C Z D %.%.%.%.%.%.F C V N J.;X*XC.V.Z.8.6.3.7.b l.h.p.h.h.c.p.k.r.K c &XZ.V.3.-XdXdXsX1Xc K M     ",
"    p I $.*.h.k.h.h.u.g h B Z Z B B p =.h.j C C C C C C Z %.%.%.%.@.$.F C A A M B.*XF.C.C.C.B.B.H U l.k.h.h.h.h.k.p.q.Z r &XF.V.3.F.dXdXsXJ.M r.j     ",
"    9 B I %.=.k.h.k.k.k.%.f l F Z Z p *.i.h.l C Z C Z C Z @.%.%.%.%.&.&.F A A V V m G G.N.N.N.5.U 7.k.k.p.c.h.h.h.i.I B M 7.$XZ.m.4.8.:XK.a +.d.B     ",
"      6 l $.$.y.h.c.h.c.k.*.f l Z Z f +.y.h.h.j l C C C Z L %.%.%.&.&.*.$.] P B B K K r r t b K %.$.w.i.h.h.h.h.p.%.U V V G 7.m.C.8.6.5.b t y.t.      ",
"        a L *.@.*.h.h.h.h.k.S u B C f +.*.h.c.e.g C C C Z Z &.%.$.I J I +.J U K S V V P U @.*.%.%.$.$.$.t.d.h.p.u.%.=.] Z Z V a r c r M 7.u h.*.      ",
"        6 B L =.=.i.k.k.h.c.j.C p f f L %.t.h.p.I j C B C F &.%.7 + . . . . . @ 6 a q.e.%.*.%.%.%.%.%.%.#.d.p.t.$.$.#.%.+.L L P I U I %.o.i p.*.      ",
"          e Z @.*.=.h.h.h.h.k.@.F C 9 L $.$.i.c.i.u C Z Z l S & @ g.L.=X=X=XG % % X + K &.w.%.%.%.q.%.w.;.-.t.%.&.$.%.w.I K S S L e.%.*.x *.c.w       ",
"0 k f f q < f Z +.=.e.k.c.h.h.+.C Z U =.%.@.*.h.k.U q Z C C * . s.<X1X1X1X1X1X1X2X7.$ . & a w.$.w.%.%.%.%.#.%.;.%.%.w.A @ . . . @ N *.*.F t.p.9       ",
"  h C C C l s h x #.@.*.h.h.p.$.B S @.U t.t.#.p.k.i.p l l x O 7.<X1X1X1X1X1X1X1X2X<X&X9.* X + B %.%.q.%.%.%.%.%.%.%.V @ & ;X:XH X 5 %.*.C *.-.0       ",
"    f l Z x C e Z o.*.$.%.i.h.h.S S =.e.p.h.p.h.h.l.=.j.l 1 $ %X1X,XaX2XfXkXkXkX3X<X<XE.R.; o . 5 ] q.&.&.&.#.$.%.C O 3 :X2X<X2X1.X D s l p.F         ",
"    q l C Z x h f C @.@.$.%.y.L C Z ] %.y.c.p.h.h.h.h.e.5X< % 2X1X<X1XvXvXcXcXcXvXcX7X] : E : o . 5 w.%.%.%.%.&.C @ o z.4XfXfX2XH.X i.8XL u.6         ",
"      t C C C x e l D %.%.%.%.L C Z L *.e.k.h.h.k.k.k.I 5XU % 2X2X<XlXcXcXcXcXcXcXjX` E T T E > = X 5 q.w.%.$.%.& o : ) ,XcXcXkXJ.X 8XpXx.h           ",
"        w k g j B s D %.%.%.%.%.L C L @.&.h.h.h.k.k.l.=.U.U % 2X<XfXcXcXcXcXcXcXcX6X) E R T ' 6X) , . 5 ;.#.%.A . ; ` 6X) zXcXcX4XX 8X8X-.e           ",
"    9 w -.*.;.+.w 1 +.;.*.%.%.*.$.L C @.*.t.h.h.k.h.k.k.z U % 4X<XbXcXcXcXcXcXcXvXW.Q W R T 5X7XQ 9.] @ 4 t.%.F o > Q.rX) hXcXcX<X. 8XU.d             ",
"  8 +.$.u.p.c.d.p.h.h.t.y.t.*.%.*.=.U @.%.%.h.h.h.k.l.k.d iX% K.3XcXcXcXcXcXcXcXxXE.~ ^ W R <._ _ R.4X1.& &.#.O : ! } <.> hXcXcX+ q +X:.1             ",
"    p F $.i.d.x.k.h.h.h.h.h.h.t.*.*.$.=.%.#.u.h.p.c.d.h.g iX& + 4XcXcXcXcXcXcXcXvXW._ ( ^ W W ( / W.lXfXH.%.#.> _ / / { Q zXvXkX+ b.8XY               ",
"      0 B +.t.h.h.h.k.h.h.c.k.k.h.y.%.%.%.t.c.h.h.h.c.u.d iX5X- 7.xXcXcXcXcXcXcXvXW.X.[ ( ( ( { Q kXcXcXT.=.;.>  .[ { [ z.lXvXK & iX_.                ",
"          j +.#.i.h.h.h.h.k.v.h.h.h.h.p.h.x.p.c.p.d.h.-.P tXiXI X l.cXcXcXcXcXcXcXhX)  .{ { {  .` vXvXcX4Xq.#.W.X.0.0.' 7XcXrX@ OX+XP.                ",
"            0 C L %.e.j.k.h.h.j.h.h.h.h.p.p.h.k.h.u.-.x 5XuXtXiX+ @ lXcXcXcXcXcXcXvXW.X.......) 6XvXvXlXl.=.#.7X` Q ) E.hXvXN k 9X^.                  ",
"              z l l o.#.#.=.e.j.j.i.i.i.i.i.i.j.-.+.o.=.uXuX0XuXT.+ 7 bXcXcXcXcXcXcXzXR.} | } R.zXlXxXrX%.*.%.d.kX6XhXzXzXd.0 eX#X                    ",
"            P.'.U.i z x ] O.$.=.*.=.*.*.*.q.e.=.@.C Y j.uXuXeXeXiXT.O 0 jXcXcXcXcXcXvXzXE.R.`.zXxXcXxXl.%.$.F D 4XvXxXxXbXI tX0X_.                    ",
"            '.}.}.}.=.x z Z Z L U =.*.q.$.q.7.P S s o.uXuXuXuXuXuXiXL.+ 7 jXcXcXcXcXcXcXxXxXcXcXcXxXL.Z S C C s o.iXjXpXpXtXqX_.                      ",
"          '.OX|.}.|.}._.b.2 i z B Z Z P P P x z d U.OXeXuXuXtXuXuXuXuX`.J 5 lXcXcXcXcXcXcXvXvXxXjXyXz i i i e _.8XiXeXeXuXwX#XU.                      ",
"        I.[.|.|.|.|.}.OX+X@X8Xb.=.O.O.i i d O.O.U.OXoX+X0X0XtXtXtXuXuXuXiX+.T.jXxXxXxXxXxXjXjXpXiXiXtXtXiXuXuXuXuXuXeXeX0X#XP.                        ",
"        '.|.|.|.|.OXOX9XeXeXtX9X@XY.U.>./._.oX}.OX.X X X+X0XtXuXuXuXuXeXwXeXuXuXiXiXiXiXuXuXeXeXeX0XtXuXiXuXuXeXeXeXeXwX#XY.                          ",
"      P.[.|.|.|.@XqXeX0XtXtX9X_.P.      /.|.|.|.{. X X.XOX.X@X0XeXeXuXeXeXuXeXuXeXtXuXuXuXuXuXeXeXuXtXuXeXwXeXeXeXwX#X.X>.                            ",
"      '.|..XoXwXuXtXuX0XqX'.I.            '.XX X|.|.|.|.|..XOXoX9XeXuX0XeXeXeXeXuXeXuXuXeXuXuXeXeXeX_.Y eXwXeXwXwX XXX^.!.                            ",
"      ].|.9X9XeXwXwXwX^.                    !.XXXX.XOX|.}..X}.}.oX@X@XoX9XwXeXeXeXuXeXuX0XuXuXeXwXeXwX0X@X@X@X{./.~.XX/.                              ",
"    !.].#XwXwX#X+X].P.                        P.^..X|..X|.|.|.}.}.}.}.}.OX.X.X|.@X9X9X9X9X9XoXOX.XoX|.XX.X^.~.P.    P.                                ",
"    /.@XwX_./.                                  ^.}..X|.|.|.|..X.X|.XX.X.X.X.X|.|.XX{..X|. X X}.XXXXXX{.I./.).P.                                      ",
"    >.P.P.                                      ^. X}.|.{.|.{.|..X.X^.^.^.^.^.^.^.^.^.^.^.^.^.^.I.~.I.!.{.[.[.I.                                      ",
"                                                ^.XX|.|.|.{.|.|.|./.                        P.^.XX|.[.{.[.{.{.,.                                      ",
"                                                ^. X|.{.{.{.|.|.[.Y.                          /.|..X|..X.X{.~.                                        ",
"                                                ^.}.|.|.{.{.|..X^.                              Y.XX{.|.{.XX~.                                        ",
"                                                P.[..X[..X[..X^.                                  ~..X.X XXX>.                                        ",
"                                                P.'.{.{.{.{.^.                                      P.).{.I.                                          ",
"                                                  I.{.].{./.                                            !.                                            ",
"                                                    ).].Y.                                                                                            ",
"                                                    !.I.                                                                                              "
};
