/* XPM */
static char *result[] = {
/* columns rows colors chars-per-pixel */
"64 64 234 2 ",
"   c #763913",
".  c #7E4117",
"X  c #824519",
"o  c #864A1C",
"O  c #8A4D1D",
"+  c #824815",
"@  c #8C511C",
"#  c #94581F",
"$  c #8E5221",
"%  c #935622",
"&  c #955A24",
"*  c #9B5C24",
"=  c #965E2C",
"-  c #994F2E",
";  c #9D632A",
":  c #9C6324",
">  c #9B6633",
",  c #A66B2A",
"<  c #A46E35",
"1  c #A97539",
"2  c #AF782D",
"3  c #C95F13",
"4  c #C85E0F",
"5  c #CB6312",
"6  c #CF6913",
"7  c #CA661B",
"8  c #D26D16",
"9  c #D26D1A",
"0  c #D47117",
"q  c #D57419",
"w  c #DC7C1C",
"e  c #D8771A",
"r  c #CA600F",
"t  c #C95537",
"y  c #CB6B26",
"u  c #D47727",
"i  c #CD7334",
"p  c #D77839",
"a  c #D16E2F",
"s  c #E17D2E",
"d  c #AD3850",
"f  c #CA3E71",
"g  c #BF4556",
"h  c #AD7D42",
"j  c #B67248",
"k  c #CD5153",
"l  c #D6734C",
"z  c #CA446A",
"x  c #CD4674",
"c  c #D14577",
"v  c #D05268",
"b  c #BB8637",
"n  c #BF8D2D",
"m  c #DD831E",
"M  c #DC8B1E",
"N  c #E0821F",
"B  c #DB8A25",
"V  c #DC9424",
"C  c #DD992A",
"Z  c #C08C38",
"A  c #D6833A",
"S  c #D89B38",
"D  c #C89639",
"F  c #E28520",
"G  c #E48C21",
"H  c #E79123",
"J  c #E89524",
"K  c #E49B25",
"L  c #EA9B26",
"P  c #EB9E28",
"I  c #E7952B",
"U  c #E39232",
"Y  c #D8A73B",
"T  c #E5A42B",
"R  c #ECA42A",
"E  c #ECAA2D",
"W  c #E6A429",
"Q  c #ECB32F",
"!  c #EEAC31",
"~  c #E7AA36",
"^  c #EFB333",
"/  c #EEB23D",
"(  c #EAB73A",
")  c #F0B334",
"_  c #F1BA34",
"`  c #F0B43B",
"'  c #F2BB3C",
"]  c #F0AE32",
"[  c #F5C435",
"{  c #F6CC36",
"}  c #F5C43B",
"|  c #F6CB3A",
" . c #F8CC3B",
".. c #F7D037",
"X. c #F7D439",
"o. c #F7DB3B",
"O. c #B68C53",
"+. c #D58347",
"@. c #DC9848",
"#. c #D78A55",
"$. c #C99857",
"%. c #DAA543",
"&. c #C8A35D",
"*. c #D5B45B",
"=. c #E3AB46",
"-. c #ECB243",
";. c #E9B642",
":. c #F2BB44",
">. c #F2BB4B",
",. c #F0B644",
"<. c #E5B158",
"1. c #F2BF53",
"2. c #E3AE58",
"3. c #D99766",
"4. c #DA9D72",
"5. c #CC9363",
"6. c #D9B868",
"7. c #DCA37C",
"8. c #D2AC6B",
"9. c #E0A875",
"0. c #E6BA77",
"q. c #E5B165",
"w. c #E39754",
"e. c #F3C244",
"r. c #F7CD43",
"t. c #F7CB4B",
"y. c #F7C94A",
"u. c #F8D444",
"i. c #F8DD46",
"p. c #F8D34C",
"a. c #F8DE4D",
"s. c #F7D941",
"d. c #F4C353",
"f. c #F6CA55",
"g. c #F4C45C",
"h. c #F6CC5D",
"j. c #F8CF56",
"k. c #F8D553",
"l. c #F8DC54",
"z. c #F8D35C",
"x. c #F8DA5D",
"c. c #F7DB5F",
"v. c #EEC042",
"b. c #F8E153",
"n. c #F9E35C",
"m. c #DDC17C",
"M. c #F5CB64",
"N. c #F5CD6B",
"B. c #F4C761",
"V. c #F9D464",
"C. c #F8D56B",
"Z. c #F8D867",
"A. c #E5C775",
"S. c #EED878",
"D. c #F6D274",
"F. c #F8DC74",
"G. c #F7D67B",
"H. c #F8DB79",
"J. c #EFCD69",
"K. c #F9E462",
"L. c #FAE56B",
"P. c #FAE567",
"I. c #FAE674",
"U. c #FAE37B",
"Y. c #FAE97B",
"T. c #F8E578",
"R. c #DA4A85",
"E. c #DE5089",
"W. c #E04E8B",
"Q. c #E3548F",
"!. c #EC5C9C",
"~. c #E65694",
"^. c #EA629C",
"/. c #EF5FA0",
"(. c #EF63A2",
"). c #F169A8",
"_. c #F271AE",
"`. c #F67DBA",
"'. c #F477B5",
"]. c #D47D92",
"[. c #D78894",
"{. c #DEAB88",
"}. c #DEB090",
"|. c #E7BB85",
" X c #E5BB96",
".X c #E1AB84",
"XX c #F682BD",
"oX c #E5BFA5",
"OX c #EBD587",
"+X c #F6DA83",
"@X c #F8DC84",
"#X c #F8DD8B",
"$X c #F7D984",
"%X c #EDCA93",
"&X c #FAE38B",
"*X c #FBEA87",
"=X c #F9E393",
"-X c #FBED93",
";X c #F9E49B",
":X c #FCED9C",
">X c #F6E594",
",X c #E9C9A7",
"<X c #ECD4BB",
"1X c #F2D9B4",
"2X c #EBCFB2",
"3X c #FAE6A3",
"4X c #FCECA3",
"5X c #FBECAC",
"6X c #FCEEB4",
"7X c #FBEEBA",
"8X c #FCF0BC",
"9X c #EDD9C9",
"0X c #F1D6D4",
"qX c #F1D7C8",
"wX c #FAECC0",
"eX c #FCF2C4",
"rX c #FCF4CC",
"tX c #EEE3DB",
"yX c #F3E6D8",
"uX c #FCF5D4",
"iX c #FDF6DB",
"pX c #EFEEEF",
"aX c #EEE8E4",
"sX c #F1EDEC",
"dX c #F3E9E3",
"fX c #FEF9E4",
"gX c #FEFAEB",
"hX c #F9F3EA",
"jX c #EFEFF1",
"kX c #F0EFF0",
"lX c #F4F3F4",
"zX c #F8F7F8",
"xX c #FCFCFC",
"cX c #F9F7F6",
/* pixels */
"xXxXxXkXpXxXxXxXlXjXzXxXxXzXpXkXxXxXxXjXjXxXxXxXaX9X2X%X0.<.<.=.<.<.q.0.OX2XrXhXjXjXzXxXxXzXjXkXxXxXxXkXpXxXxXxXlXjXzXxXxXzXpXpX",
"xXxXxXsXpXzXxXxXlXpXzXxXxXzXpXlXxXxXzXjXjXyX1XA.=.~ T Q Q Q _ _ _ _ Q E T T ~ 2.0.,XyXxXxXlXjXkXxXxXxXpXpXzXxXxXkXpXzXxXxXzXpXpX",
"zXxXzXlXzXzXcXxXlXzXzXzXzXzXlXlXxXxXhX<X0.~ ~ E ^ _ [ { { {  . .{ {  .| [ [ _ Q E T ~ 0.7XsXzXlXzXxXzXlXzXzXxXzXzXzXzXzXcXzXlXzX",
"pXpXzXxXxXlXpXkXxXxXcXpXpXxXxXxXaX,X2.T E Q [ | ..X.u.p.k.x.c.Z.c.c.l.k.p.u.| | } [ ( E S 2.1XgXjXpXzXxXxXlXpXjXxXxXcXpXpXxXxXxX",
"pXpXzXxXxXzXpXkXxXxXxXsXpXxXxX7X<.Y E _ } | r.p.V.T.&X>X4X6X6X6X7X6X5X4X>X*XC.x.p.| | [ _ W T <.<XpXzXxXxXzXpXjXxXxXxXpXpXzXxXxX",
"zXxXzXlXlXzXxXxXlXlXzXxXxXdX0.S W ^ [ { r.z.U.>X5X8XrXiXiXfXfXgXfXfXfXiXiXrX8X5X=XH.z.r. .} _ W S 0.yXzXlXzXxXxXlXlXzXxXxXlXlXzX",
"xXxXxXpXpXzXxXxXlXpXlXxX1X2.T ^ _ | t.V.&X5XwXuXiXfXgXgXgXgXgXgXgXgXgXgXgXgXfXiXuX7X4X&Xz.r.} _ Q K =.<XjXzXxXxXlXpXlXxXxXlXpXpX",
"xXxXxXjXlXzXxXxXlXkXlX,X~ W ^ [ r.z.@X5XeXuXfXfXfXgXfXfXfXfXgXfXgXgXgXfXfXfXgXfXfXiXrX8X4X@Xz.} [ ) T S %XzXxXxXlXpXzXxXxXzXjXlX",
"kXkXzXxXxXlXkXkXxXzX%XC E _ [ t.H.;X8XuXiXiXfXiXfXiXfXiXfXiXfXiXiXfXiXfXfXiXfXiXfXiXfXiXrX7X;XC.y.[ _ E C |.pXlXxXxXzXkXlXzXxXxX",
"kXpXlXxXxXzXkXkXcX|.C E _ [ j.#X5XeXuXiXiXiXuXiXiXiXiXuXiXiXiXiXiXiXiXiXiXiXiXiXiXuXuXiXiXuXeX5X@Xf.} ^ T V 0.aXxXxXzXpXpXzXxXxX",
"lXzXzXzXzXzXzXlX|.C E _ e.M.&X6XrXuXuXuXuXuXuXuXuXuXiXuXiXuXiXuXuXuXuXuXuXuXuXuXuXuXuXuXuXuXuXeX5X#Xh.} _ T C |.zXzXzXzXzXzXxXxX",
"xXxXzXjXkXxXxX%XK E _ } V.>X6XeXrXrXrXrXrXrXrXuXrXrXuXrXrXrXrXrXuXrXuXrXrXuXrXrXrXuXrXrXrXrXrXrXeX5X&XM.} _ W V %XpXlXxXxXlXpXpX",
"xXxXxXpXsXxX1XC W ) ' B.#X6XwXeXeXeXrXeXeXrXrXrXrXrXrXeXrXrXrXrXeXrXrXeXrXeXeXrXrXeXeXeXeXrXeXeXeXwX5X#Xh.' ^ W S ,XzXxXxXlXpXpX",
"zXlXzXxXxXyXS K ^ ' h.#X5X7XwXwXeX8XeX8X8XeX8XeXeXeXeXeXeX8X8XeXeXeXeXeXeXeXeXeXeXeXeXeX8XeXeXeXwXeX7X5X@Xg._ ^ V S yXjXzXzXxXxX",
"pXpXlXxXxXq.K E _ d.$X3X7X7X7X7X8X8X8X8X8X8X8X8X8X8X8X8X8X8X8X8X8X8X8X8X8X8X8X8X8X8X8X8X8X8X8X8X7X7X7X6X3XG.y._ E V q.aXpXzXxXxX",
"lXlXzXxX,XV W ) e.D.;X5X6X6X6X6X6X6X6X6X8X8X6X8X6X6X8X8X8X8X6X8X8X6X8X8X8X6X8X8X8X6X6X8X6X6X6X6X6X6X6X6X5X=XN.' ) W B ,XlXxXxXxX",
"xXxXzXtX@.W E ' B.#X3X6X1X5X5X5X5X6X6X6X5X6X6X6X6X6X6X6X6X6X6X6X6X6X6X6X6X6X6X6X6X6X6X6X5X6X5X6X5X5X5X6X3X3X#Xg.' E K @.iXzXjXjX",
"xXxXxX|.M W ^ d.$X;X3X3X3X5X5X5X5X5X5X5X5X5X5X5X5X6X4X5X5X5X5X6X5X5X5X5X5X5X5X6X5X5X5X5X5X5X5X5X3X5X3X1X1X3X=XG.>.) W M |.zXpXjX",
"xXxXyXS K ! ' N.#X;X3X3X3X3X3X4X3X4X4X4X4X4X4X4X4X4X4X5X4X4X4X4X4X4X4X4X4X4X4X4X4X4X4X4X4X4X4X4X3X4X3X3X3X3X;X#XB.' E H S dXzXlX",
"pXjX XB T ^ 1.D.=X;X=X;X;X;X3X;X3X3X3X:X4X4X:X4X4X4X4X4X4X4X4X4X4X4X4X4X4X4X:X4X:X4X:X4X4X4X3X:X3X;X;X;X;X;X;X=XD.>.) W B %XxXxX",
"lXaX@.H E ` B.+X=X=X;X;X;X;X;X;X;X:X;X;X:X4X:X:X:X:X:X-X:X:X:X:X:X:X:X:X:X:X-X:X:X4X4X4X:X;X;X:X;X;X;X=X;X=X=X#XG.g.^ E B @.cXxX",
"xX<XB W E >.N.@X#X#X#X=X#X=X=X-X>X>X-XOX&.O.6.:X-X-X-X:X-X-X-X-X-X-X-X-X-X-X-X:X-X6.O.&.OX:X>X>X=X=X=X=X=X#X#X#X@XN.,.E K B <XzX",
"xX|.B W ! 1.D.@X#X@X#X#X&X#X&X&X-X-Xm.> . . . O.-X-X-X-X-X-X-X*X-X-X-X-X-X-X-X>XO.X . X = m.-X>X*X&X&X#X#X#X#X+X+XD.>.! T M 9.lX",
"hX@.H R ` B.D.$X$X@X@X@X@X&X@X&X&XOX> @ = & % $ &.-X*X*X*X-X-X*X*X-X*X-X-X*X-X&.o % & & @ > OX&X&X&X&X@X#X@X$X$X$XD.g.! R M @.dX",
"qXB H E ,.B.D.G.G.$X$X$X@X*X@X*X*X&.O & * * * * > OX*X*X*X*X*X*XY.*X*X*X*X*XY.> & * * * * # &.&X&X@XH.&X+X+XG.G.D.D.B.` R H B 0X",
" XB K E >.M.D.D.D.G.G.H.H.H.H.U.+X1 & * * * * * * 8.*XY.Y.Y.Y.Y.Y.Y.Y.Y.Y.*X6.# * * * * * * 1 #XU.U.U.H.H.G.G.G.G.N.B.-.R K m ,X",
"7.M P ! >.B.N.N.N.H.D.D.F.U.F.U.A.; * & < 1 : # # O.*XI.Y.Y.Y.Y.Y.Y.Y.Y.T.*XO.: * ; 1 1 * * ; A.U.F.F.H.D.D.D.D.D.D.B.>.E K m 9.",
"@.M P ! 1.B.N.N.N.C.C.C.C.F.F.F.A.& = &.S.H.A.O.# O.Y.I.I.I.L.Y.Y.Y.L.I.L.T.O.$ 1 A.&XS.&.* & A.I.F.F.C.F.C.C.N.N.B.1.>.E K m @.",
"A N P ! >.B.B.M.N.N.C.C.C.Z.Z.I.6.% &.I.L.L.I.S.< 1 T.L.I.L.L.L.I.L.I.L.L.T.1 < S.L.L.L.I.&.$ 6.F.P.Z.C.C.V.N.M.B.B.g.>.E L M A ",
"B N P ! >.g.g.B.h.M.M.V.V.Z.Z.P.6.h F.P.P.P.L.L.*.b I.L.L.L.L.L.P.P.P.P.L.I.O.*.L.P.L.L.P.S.1 J.Z.Z.Z.V.V.M.M.h.B.B.1.>.! L M u ",
"e H K ! -.1.g.g.h.B.M.z.V.z.V.V.B.*.K.K.K.K.K.K.J.*.P.K.K.K.K.K.K.K.K.K.K.P.&.c.P.K.P.K.n.P.*.h.Z.V.V.V.V.h.g.h.g.g.1.-.E P N e ",
"e M P E -.1.1.1.d.f.j.j.z.z.x.x.c.c.c.n.n.K.n.n.K.K.n.n.n.n.K.n.n.n.n.K.n.n.n.n.n.n.n.n.n.n.Z.x.l.z.k.z.h.f.f.d.1.1.>.-.E P M q ",
"0 G I ! / >.>.>.d.d.f.j.j.j.k.k.l.l.l.b.b.b.n.n.n.b.n.b.n.b.n.n.n.n.n.n.n.b.b.n.n.n.b.b.b.l.l.l.k.k.z.j.f.f.d.d.>.>.,.-.P L G 9 ",
"q G J R / ,.>.>.:.d.y.t.t.p.k.k.l.l.l.l.b.b.b.b.b.b.b.b.b.b.b.b.b.b.b.b.b.b.b.b.b.b.b.b.l.l.l.l.k.p.p.t.f.y.e.>.>.:.-./ P I F 0 ",
"u m J P ! / ` :.:.e.e.y.t.p.p.p.p.p.a.a.i.b.i.b.b.i.b.b.a.a.i.a.a.a.a.b.i.b.b.i.a.a.a.a.a.a.p.p.p.p.t.t.y.e.e.:.,.,.] ! R H m u ",
"u M H L P ! ] ` ' ' } :.v.r.r.u.u.u.s.s.i.i.i.i.i.i.i.i.i.i.i.i.i.i.i.i.i.i.i.i.i.i.i.i.i.u.s.u.u.r.r.:.e.} ' ` ) ) ! R L H m u ",
"+.w H L P R E ) ) ' ~ # # Q X. .X.X.X.s.o.o.o.o.o.o.i.o.o.o.o.o.o.o.o.o.i.o.o.i.o.o.o.o.s.X.X.X. . .D + , _ _ ) Q E R P J H e +.",
"3.w N J L P R ] ^ ) S .   Z { {  .{ X.X.X.o.o.o.o.o.o.o.o.o.o.o.o.o.o.o.o.o.o.o.o.o.o.X.X.X. . . .} :   . Q ) ] E R R P J G q 3.",
" X8 N L L P W E E ^ Q @   : } {  .{ { X.o.X.o.o.o.o.o.o.o.o.o.o.o.o.o.o.o.o.o.o.o.o.X.X.X. .{ { { ,.k d , ) ^ ] R R P H H M 0 }.",
"<Xu M J J P P E E Q ^ 2 . + Y [ { { { ..X.o.o.o.o.o.o.o.o.o.o.o.o.o.o.o.o.o.o.o.o.o.X.......{ { [ #.f c z +.E E R R P L N w u 2X",
"tXp e G J L P R R ] ) Y + . 2 { { { { {  ...X.o.X.o.o.o.o.o.o.o.o.o.o.o.o.o.o.o.X.X.X.....{ { [ ,.v R.W.R.c l P R L J J G e p hX",
"kX4.0 F H J L P R E ] ) , . @ Y [ [ { { ........X.o.X.o.o.o.o.o.o.o.o.o.o.o.X.X.X.......{ { { [ #.f R.~./.~.R.v U L J H w 8 9.xX",
"xX2X8 w N H J P R R E ] S @ o , } [ [ { { { ....X.X.X.o.o.o.o.o.o.o.o.o.X.o...........{ { [ } 1.v R.~.!./././.Q.v s J G u 7 ,XzX",
"xXhXp q N G H L L R E E ) 2 o o D | [ { { { { ........X...X.X.X.X.o.o.o.X.........{ { { } [ :.l f W.~./././._._./.v p w 0 p tXkX",
"xXxX.X8 N N J L L P P E ! ( ; + @ Y { [ [ { { { ..............X.................{ { { [ [ } #.c W.W.Q.!.(._.'.`.'.^.z 9 6 7.kXkX",
"lXlX9Xu e N N H L L P E E ) %.& o = / } [ [ [ { { { { { ..................{ { { [ [ [ [ } @.x R.~.!.~.!.(.'.`.XXXX_.c t y yXxXxX",
"jXpXkX9.8 w N J J L P P R E ` @.= o , Y [ [ [ [ [ { { [ { { { { ....{ { { { { [ [ [ [ | $.z R.~././././._.'.XXXXXX_.R.g 4.zXxXxX",
"lXlXlXyXa 0 N N N H J P P R R ^ %.: o = Y } [ [ [ [ [ { { [ [ { { [ [ { [ [ [ [ [ [ [ n - g R.~././.).'.XXXXXXXXXX).c v 9XxXxXxX",
"xXxXxXlX{.5 q M N H H J P P R R ] =.2 O % Z ( } [ [ [ [ [ [ [ [ [ [ [ [ [ [ _ [ } ;.2 o $ k c Q./.).'.`.XXXXXX`.'.^.f [.zXlXjXjX",
"xXxXxXpXtXl 6 e N N H J J L R R R ] =.Z % O ; @.:.[ [ _ _ [ [ [ [ [ [ [ _ [ } ( b & X : D ! l c Q.).`.`.XXXXXX'.).E.f 0XzXlXjXjX",
"lXlXzXzXxX9Xy 6 m N N H H J L L R R ] ` =.2 $ O ; Z Y ' } [ [ } _ [ [ } ' Y b % o & b =.( R I p c ~._.`.`.'._.(.Q.z [.aXlXzXzXzX",
"pXpXzXxXxXlX}.3 8 w N N N H J J L L P R R -.=.2 * o $ : 2 b D S S D b , * O o ; b %.` E R R I H p v W.~.^.^.~.R.z ].0XpXsXxXxXxX",
"lXpXlXxXxXzXpX4.5 8 w N N J H J J L L P R R ] ` -.S b , & $ O O o @ % : , Z %.-.` E R R P P L J G s k k z c z k ].0XsXsXkXzXxXxX",
"xXxXxXpXjXzXxXgX#.r 8 w N N N H J J L L P R P R E ! ) -.-.=.%.%.%.%.=.;.` ) ] R R R R P L J J H G F s s a t k l qXdXlXxXxXzXkXlX",
"xXxXxXpXpXxXxXxXdX#.r 8 w w N J G H J J L L P P R R R R ! R ! ! ! E R E E R R P P P L L J H H G F N N e 9 3 #.dXsXsXlXxXxXlXjXpX",
"xXxXzXlXlXcXxXzXzXaX3.r 8 w N N G G G J J L J L P P P R R R R R R R R R P P P P L L J H H H G G s w w 8 3 3.dXxXcXkXzXxXxXzXlXlX",
"pXpXzXxXxXlXpXjXxXxXsX4.5 5 e u N G G G G J J J J L L L L L L P P L P P L L L J J J H J N H N N w 0 6 7 7.aXpXlXxXxXzXpXpXzXxXxX",
"pXpXlXxXxXzXpXpXxXxXxXpX Xy 6 0 w w w G G G G J J J J J L J L L L J J J J H J H H H N N N N w e 9 r y  XxXzXpXkXxXxXxXpXpXxXxXxX",
"xXcXzXzXzXzXxXxXcXlXzXxXxX9X#.4 8 e w w w F G G N J L J H H J H H H H H H H H G N N N M N w 0 6 5 #.9XlXlXzXxXzXzXlXzXxXxXzXzXzX",
"xXxXzXpXpXxXxXxXlXpXlXxXxXlXaX}.i 4 8 0 w w w F N N N N H N J N G G G G G G N N N N m e e 6 r a  XcXxXkXkXzXxXxXkXkXlXxXxXlXpXpX",
"xXxXxXpXlXcXxXxXlXjXzXxXxXlXlXlXyX{.i 4 6 0 e e N N N N N N N N N N F F w N w w e e 8 6 3 a {.tXxXxXzXkXlXzXxXxXkXlXlXxXxXlXkXlX",
"lXlXzXxXxXlXjXlXxXxXcXpXlXzXxXxXlXjXtX X+.7 r 6 0 e e w N u N N N w u w w e e e 6 r 7 l }.yXxXxXlXkXzXxXxXlXkXlXxXxXzXlXlXzXxXxX",
"pXpXlXxXxXzXpXjXxXxXxXpXjXzXxXxXjXpXzXxXcX<X7.+.y 5 r 6 6 6 8 8 0 0 9 6 7 3 3 y +.{.<XaXjXxXxXxXkXpXlXxXxXzXpXkXxXxXzXpXpXxXxXxX",
"lXlXzXxXzXzXlXlXxXxXzXlXlXzXxXxXlXlXzXzXxXzXzXsX0XoX9.#.p y y 7 9 y y p #.9.oXqXlXxXzXlXlXzXxXxXlXlXzXxXzXzXlXlXxXxXzXlXlXzXxXxX"
};
