/* XPM */
static char *_c0edf0ac6914125a99c22a3aa8f5615nNQgOfoouayzJXsv[] = {
/* columns rows colors chars-per-pixel */
"60 61 224 2 ",
"   c None",
".  c #101F0E",
"X  c #113910",
"o  c #112710",
"O  c #282725",
"+  c #34312C",
"@  c #383734",
"#  c #2E312A",
"$  c #403D37",
"%  c #274727",
"&  c #1F621F",
"*  c #44413B",
"=  c #403F43",
"-  c #4E4C4D",
";  c #484745",
":  c #504E49",
">  c #5A544B",
",  c #5D5D58",
"<  c #4D5052",
"1  c #615B4C",
"2  c #635E54",
"3  c #615C5A",
"4  c #6A6555",
"5  c #6C6759",
"6  c #6D6A5B",
"7  c #666153",
"8  c #726D5E",
"9  c #756A55",
"0  c #79725C",
"q  c #6C644C",
"w  c #635E63",
"e  c #5F7266",
"r  c #6D6C64",
"t  c #6A6467",
"y  c #736E61",
"u  c #726E6D",
"i  c #786F61",
"p  c #767264",
"a  c #797465",
"s  c #75726A",
"d  c #7A766A",
"f  c #7D7A6C",
"g  c #7D7967",
"h  c #726C76",
"j  c #7E7B71",
"k  c #7A757D",
"l  c #797574",
"z  c #6C6577",
"x  c #80795D",
"c  c #817C6D",
"v  c #857B67",
"b  c #837D72",
"n  c #867E78",
"m  c #0C940D",
"M  c #178816",
"N  c #1AA41B",
"B  c #2E8F2F",
"V  c #28B828",
"C  c #2AB22A",
"Z  c #32C72C",
"A  c #5C9C5D",
"S  c #47B847",
"D  c #5CB259",
"F  c #699969",
"G  c #68AC69",
"H  c #78B879",
"J  c #6DAB76",
"K  c #46D847",
"L  c #51CF53",
"P  c #61C25A",
"I  c #78CC78",
"U  c #69D669",
"Y  c #71ED70",
"T  c #56E353",
"R  c #84806F",
"E  c #8B836C",
"W  c #95886F",
"Q  c #858273",
"!  c #8A8476",
"~  c #86847B",
"^  c #8B867A",
"/  c #8D897B",
"(  c #898975",
")  c #918C7D",
"_  c #988D72",
"`  c #96937A",
"'  c #A49A79",
"]  c #80D07D",
"[  c #7C7587",
"{  c #7D7694",
"}  c #827B84",
"|  c #847B8B",
" . c #837A99",
".. c #887DA1",
"X. c #7CB580",
"o. c #8C8682",
"O. c #8F8B81",
"+. c #8A848D",
"@. c #938E81",
"#. c #918C8A",
"$. c #959283",
"%. c #9A9485",
"&. c #95938A",
"*. c #9C9689",
"=. c #9E9A8B",
"-. c #9B9987",
";. c #8C839B",
":. c #898492",
">. c #9C9692",
",. c #9E9A92",
"<. c #92949B",
"1. c #918A93",
"2. c #A39D8E",
"3. c #A59C87",
"4. c #A49E91",
"5. c #A29F9A",
"6. c #B4A989",
"7. c #A3A095",
"8. c #A5A39B",
"9. c #AAA49A",
"0. c #B3A997",
"q. c #B9B299",
"w. c #ADA186",
"e. c #8B82A4",
"r. c #8C85A6",
"t. c #9187AB",
"y. c #948BAC",
"u. c #948AA5",
"i. c #9C96AA",
"p. c #968CB1",
"a. c #9C91B5",
"s. c #9F94B9",
"d. c #A299AE",
"f. c #A49BB9",
"g. c #ABAAA3",
"h. c #A9A6AC",
"j. c #B4B2AC",
"k. c #AAA5B8",
"l. c #BAB8B8",
"z. c #B1ABB5",
"x. c #93B191",
"c. c #CBBF9C",
"v. c #C7BFAA",
"b. c #87C787",
"n. c #94CF92",
"m. c #A1CC9E",
"M. c #A7D2A6",
"N. c #B9DBB9",
"B. c #B0C9BA",
"V. c #DCCC9C",
"C. c #D8C698",
"Z. c #E0CE9E",
"A. c #E1D29E",
"S. c #DBCDAC",
"D. c #D6C9A8",
"F. c #DED1AC",
"G. c #D5CCB7",
"H. c #DFD4BD",
"J. c #DFD5B0",
"K. c #CDCBBC",
"L. c #E2CEA6",
"P. c #E4D4A5",
"I. c #E9D8A7",
"U. c #E5D5AB",
"Y. c #E9D6AB",
"T. c #E7D8AB",
"R. c #E9D9AB",
"E. c #E9D4A6",
"W. c #E3D5B4",
"Q. c #EBDCB2",
"!. c #E4D7BA",
"~. c #E1DABC",
"^. c #E9DCBB",
"/. c #E4DAB5",
"(. c #EDE0BB",
"). c #EFE5B7",
"_. c #F3E5BC",
"`. c #F1E4B7",
"'. c #A69DC1",
"]. c #ADA3C4",
"[. c #A9A4C3",
"{. c #B2A7CA",
"}. c #B3A9CA",
"|. c #BBB8CA",
" X c #B7ADD0",
".X c #C4BCD7",
"XX c #C8C8C7",
"oX c #CACDDB",
"OX c #C8C7D6",
"+X c #D4D5D7",
"@X c #CBD1CE",
"#X c #E5DCC2",
"$X c #EBDDC3",
"%X c #E4DAC4",
"&X c #C8ECC5",
"*X c #DAEDDA",
"=X c #D6ECD4",
"-X c #EAE2CA",
";X c #F4E5C2",
":X c #F7EAC3",
">X c #FAECC4",
",X c #FBEDCC",
"<X c #F7E9C7",
"1X c #FEF1CD",
"2X c #FDEFD1",
"3X c #E1F4DE",
"4X c #FEF1D2",
"5X c #FEF3DA",
"6X c #EDE6D4",
"7X c #CDC6E4",
"8X c #CEC7E9",
"9X c #D4CBEB",
"0X c #D3C9E5",
"qX c #D9DAE2",
"wX c #E2DFE4",
"eX c #E6E7E8",
"rX c #EBF6EB",
"tX c #FAF9EA",
"yX c #EEF6F2",
"uX c #F3F4F4",
"iX c #F5FDF4",
"pX c #FDFDF5",
"aX c #FDFEFE",
"sX c #F2EEE9",
/* pixels */
"                                    ^ 4                                                                                 ",
"                                      &.s o.j.                                                                          ",
"                                        *.j b #.g.                                                                      ",
"                    b / $.O.8.            s f ~ ~ ~ g.                                                                  ",
"                    b ^ &.>.*.~ g.        ^ p f ( ( ( %.          p &.                                                  ",
"                    5.b ) 2.4.4.&.$.j.      p a f ~ / ( F 4.      ^ / O.,.          ,.!                                 ",
"                      c b @.*.4.=.2.$./ 8.8.d i a f Q / ( Q 4.    8.c ` =.@.j.      5.Q &.                              ",
"                      &.a / @.3.2.2.=.2.=.) p 8 i a a R ( / b #.    c ^ %.2.*.j.    4.c ) -.                            ",
"                        a c ^ @.2.2.2.2.4.2.%.v 5 p a p f / ! a /   d Q ) 2.=.-.g.  2.a ( -.9.                          ",
"                        5.p n ^ ) 2.2.2.2.2.2.4.$.p 8 p p f Q a p f p d / %.4.=.$.%.n 8 ( %.^                           ",
"                          f d ^ ^ %.2.2.4.4.4.4.2.*.^ i 8 p p a p 8 7 0 Q ) 2.2.2.-.a 8 a / *.&.                        ",
"              F o.        8.y j ^ @.3.4.4.4.4.4.4.4.2.%.Q 5 p p s p 5 8 Q / -.2.4.4.*.f p R $.*.,.                      ",
"              Q s p ^       f p Q ^ @.2.2.7.2.4.4.w.4.4.2.@.8 i s a 6 6 d ^ ) 2.2.7.2.=.v i ^ 2.&.                      ",
"                p p p 6 6 O.f 8 c ! ^ @.4.2.2.4.4.4.4.4.2.4.=.f p p 6 6 a Q ) *.2.4.2.2.*.v c $.%.j.                    ",
"                s p p p p p 5 5 a c ^ ) *.2.4.4.4.4.4.4.2.7.4.=.) a 6 7 a c / @.4.4.4.4.2.o.v n %.,.                    ",
"                j p p p p p p 2 i a Q ( @.2.3.4.4.4.4.2.2.4.4.4.2.%.c 1 a Q ^ ) *.4.4.4.2.2.) v %.)                     ",
"                  6 p p p p y 8 4 p c / / ` 2.2.2.2.4.4.4.4.3.4.2.2.>.` d ^ ^ ) @.2.4.4.4.4.2.v / 3.4.                  ",
"                  &.y p a a p y 7 p d Q ^ / &.2.2.2.4.4.4.4.4.4.2.4.2.2.` d ! / ) %.4.4.w.4.2.*.d 4.o.                  ",
"          8 %.7.g.g.j i y a a i 5 6 a f ! ^ / %.2.2.4.4.4.4.4.3.2.2.2.2.2.` ^ / _ $.4.4.4.4.4.4.$.4.*.>.                ",
"          p $.*.$.$.f 5 y a a p 8 4 p p Q ^ / ) %.2.2.2.4.4.4.4.2.2.2.2.o.h n o.) $.4.4.4.4.4.9.4.3.2.&.                ",
"          p Q *.2.2.=.&.a 5 8 i p 6 6 p c / ^ ! ) *.2.2.3.4.4.3.2.4.>.k } u.| o.^ %.2.4.4.4.4.w.4.w.4.2.$.              ",
"          ~ f / =.2.2.2.4.*.) a 8 4 5 a c ! ^ / n ) *.4.4.4.4.2.2.2. .u...].d.o.#.3.2.4.4.3.4.4.4.3.2.2./         z.:.[ ",
"          g.y n ) %.2.2.2.2.4.=.^ a 6 c / / ! / ) ) *.4.2.2.2.4.2.| i.u.p.0X.X1.2.2.2.4.4.4.4.4.4.3.3.4.&.    k.r.{ r.{ ",
"            ~ d ^ ) *.2.4.2.4.4.=.$.Q / / / / ) 3.2.2.4.2.2.2.4.| f.a...}.9X0X1.>.2.4.4.4.4.4.4.4.4.2.4.o.h <.r.r.s.[.l.",
"            g.y f ^ ) @.2.2.2.2.2.%./ / ^ ^ / *.2.4.4.2.2.2.4.1.u.'.t...0X9X9X..4.2.4.4.4.4.2.7.4.3.2.k  ...t...'.8Xf.  ",
"              l a b ^ ^ @.*.*.3.$.) / / / / $.2.2.2.2.2.4.*.o.} {.f.y.'.9X9X9Xd.#.2.4.4.4.4.4.=.4.&.+.f.f.t.r.'.8XoXk.  ",
"                a a Q ^ ^ ( ) ( / / / / / / ) =.2.2.2.2.$./ u d.{.a.p.{.9X9X0XOXl 4.4.w.4.4.2.4.1.1.z.f.p.r.'.8X9X X    ",
"y O.            2 9 p c Q ^ Q ^ / ! c c ! ( ) $.2.2.2.#./ b k ].{.a.t.t.8X9X9X.Xl 4.4.4.4.4.2.>.} k.'.s.r.'.8X9X8X|.    ",
"#.c b @.8.      p a 8 5 f f 8 b ! Q p p a b ^ / ) *.$./ n s | {.{.a.p... X8X9Xk.l 4.4.4.4.4.2.#.[  X'...p.8X9X9XOXk.    ",
"  d n $.%.n y 1 > f Q Q p 4 p a f a p p p a c ^ / / / / b a [ k. X'.p.t...p.f.[ | 4.=.4.4.2.>.n z {.'... X9X9X0Xd.[     ",
"  *.c / %.2.%.c p 8 p f c p 6 ! Q 8 p p p a a ! / / / ( d p u +.k.[.a.a.y.e.{ k ,.=.7.2.4.2.#.c z '.a...{.9X0X|.h j     ",
"    c b ) *.2.2.2./ p 8 a p 5 ! -.Q p a p a a ! ( / / / j s s y k [ u.u.u.;.[ O.7.7.=.2.2.2./ d z p.f.....'..Xn n /     ",
"      f ! ) 3.4.4.4.@.6 y p 6 c %.2.b i i y a c ^ / / ! ~ F b u u l t w t h n ^ #.*.4.4.=.-.Q s s [  .u. . .h 3 #.=.    ",
"      o.f / ) *.2.2.4.n 4 8 5 f @.2.%.p i p a a ~ Q r 3 , , 3 3 t i n n ~ O.^ ^ / / *.=.-.$.( Q a s u w w t n 5 *.,.    ",
"        d R ) ` 2.2.4.3.g 6 7 f ^ @.2./ 5 y a y g : ; , w w ; O @ $ u ^ ^ ^ O./ / / $.-./ / / O.b c d b ^ n ! d %.,.    ",
"j ~ ~ &.b 8 c ( %.4.2.2.R p s Q / ^ *.2.d 5 a y % @ i.OXOXOX|.d.u.- O ; p ~ O.( ^ / / / / / / l @ O O + d ) v ) $.5.    ",
"  s y p 6 4 0 ( ^ %.2.2.! s R / @.@.%.2.@.5 i 5 + u.OXoXoXoX7XoXoX.X<.; . * f ~ o./ / / / ( l # < z.:.O > ^ c / O.      ",
"  g.6 p 0 6 6 f ^ ^ ) =.) g Q / *.2.2.2.*.@.@.> ; .XoXoXqXeXyXyXwX+XB.H & . O 6 o.~ / / ( s # < |.+XoX:.O E a $.-.      ",
"    ^ i p 0 4 8 R ^ / ) c p f ( %.4.4.*.4.*.v.v ; oXOXqXiXaXaXaXpX=XG M & & o O e / / / b ; X A @XeXwXk.+ K.q.(         ",
"      s 5 6 6 4 g ) ) / Q f g ^ ) 4.4.4.4.*.0.W - OX+XuXaXaXaXaXiXM.B m m I A % O r ^ ^ r o & m.x.uXaXXX$ -Xq.&.        ",
"    n ! ( ( 0 > b ) ) ^ / Q a b ) %.2.2.7.2.n n - OXeXuXaXaXaXaXiXb.N m B &XI J e # d ( , X J &XJ yXaXl.* ~._           ",
"  ~ Q $.2.2.2.2.3.*.%.%.) ) ^ / ^ ` 2.2.4.4.c G.: h.sXaXaXaXaXaXrXb.C N N P S n.@Xk d Q % M S U A iXpX< c D.3.          ",
"    n c ) =.2.=.2.2.2.2.3.@.) / / %.2.2.4.2.c !.c 3 wXaXaXaXaXaXrXb.K Z V Z S N.yX+X*.( B L K L H iX@X: D.S.            ",
"      5.F ( *.=.=.2.4.4.2.2.%.3.*.-.2.2.=.=.v #X%X> #.uXaXaXaXaXpXM.L K K T D 3XaXeX9.( b.U Y U N.iXl &.^.              ",
"          Q f ^ @.3.3.2.2.2.2.2.2.2.3.2.-.! q.,X2X2.O XXpXaXaXaXaX*X] Y Y U m.rXpX+X*./ B.G D M.rXXXr D.Q.              ",
"            E 0 v ! n ) @.%.%.%.%.%.&.) E E G.4X,X%Xp - XXaXaXaXaXpX=Xb.I n.3XiXiXl./ / 8.eX3XrXeXO.D.(.                ",
"          U.D.' v 0 v c n n ^ / } @.^ c 0 ' $X4X,X4X%Xs - @XaXaXaXaXiX*X=XeXpXaX@X/ R g f K.tXtX6XD.;X                  ",
"        W.U.E.U.c.6.v q x c v c b b x 0 3.S.4X4X4X4X5X$X%.f XXaXaXaXaXaXaXaXpX5Xv q q 9 6.H.5X4X4X>X#X                  ",
"      !.E.Y.Y.W.U./.W.S.w._ E 0 9 x W 6.U.).:X,X4X4X4X4X,Xv.0.sXpXpXaXpXtXtX5X5X$X$X$X$X,X,X1X1X>X(.                    ",
"      L.Y.Y.Y.Q.`.,X1X,X_.^.%XG.c.L.U.E.R.U.Q.:X,X4X4X,X1X1X1X4X4X5X5X4X4X1X>X1X4X4X4X4X,X4X1X_.).                      ",
"    W.E.Y.Q.;X,X1X,X;X$X$X      Y.E.Y.I.U.Y.Y.R.^.>X1X1X4X4X1X4X4X4X4X4X4X4X1X1X^.U.1X1X1X_.).I.D.                      ",
"    W.Y._.>X,X,X:XQ.6X            W.A.Y.Y.Y.U.Q.Y.Q._.:X;X>X1X1X1X4X4X,X1X1X1X1X^.U._._.Q.F.A.T.                        ",
"    L.`.>X:X`.Q.#X                  H.V.Y.Y.Y.Y.Y.U.U.U.R.Q.Q.Q._.:X>X>X:X(.).R.R.I.I.Z.C.  #X                          ",
"    U._./.$X                          P.Y.Y.Y.Y.Y.R.R.I.I.T.E.E.I.U.E.U.T.P.F.P.A.A.V.Z.S.                              ",
"                                      F.U.Y.Y.Y.Y.Y.E./.~.!.!.!.!.!.~.!.J.V.C.C.C.A.P.I.L.                              ",
"                                      F.T.Y.Y.R.Y.Y.L.                    ^.P.I.Y.I.I.L.                                ",
"                                      F.Y.Y.I.I.Y.I.#X                      #XP.R.T.I.V.                                ",
"                                      H.E.Y.I.I.E.!.                          ^.E.T.A.-X                                ",
"                                        V.I.I.P.^.                              #XU.S.                                  ",
"                                        W.P.P.~.                                                                        ",
"                                          V.                                                                            "
};
