/* XPM */
static char *result[] = {
/* columns rows colors chars-per-pixel */
"64 107 148 2 ",
"   c #141D26",
".  c #161F28",
"X  c #17202A",
"o  c #1A232D",
"O  c #1D2731",
"+  c #1F2933",
"@  c #212B35",
"#  c #232E39",
"$  c #26313C",
"%  c #29333D",
"&  c #233342",
"*  c #2B3641",
"=  c #2E3944",
"-  c #24374A",
";  c #25394D",
":  c #313C47",
">  c #333E49",
",  c #253C52",
"<  c #253E59",
"1  c #36414C",
"2  c #39444F",
"3  c #25415E",
"4  c #29425D",
"5  c #3A4651",
"6  c #3D4954",
"7  c #274563",
"8  c #294461",
"9  c #264D75",
"0  c #254E79",
"q  c #26507C",
"w  c #414C56",
"e  c #424E59",
"r  c #45515D",
"t  c #4A555F",
"y  c #465562",
"u  c #4A5661",
"i  c #4D5965",
"p  c #4E5C6A",
"a  c #525C66",
"s  c #525E6A",
"d  c #4C5F70",
"f  c #55616D",
"g  c #5B656E",
"h  c #556573",
"j  c #596672",
"k  c #5D6A75",
"l  c #5F6C79",
"z  c #636D76",
"x  c #626E7A",
"c  c #65717D",
"v  c #6A747D",
"b  c #255281",
"n  c #255689",
"m  c #255B92",
"M  c #245F9A",
"N  c #25629D",
"B  c #2464A4",
"V  c #236FB3",
"C  c #2370B6",
"Z  c #2374BB",
"A  c #6B7681",
"S  c #6D7984",
"D  c #737C85",
"F  c #787E84",
"G  c #737F8A",
"H  c #217BC4",
"J  c #227EC9",
"K  c #7A8187",
"L  c #75818D",
"P  c #7A848D",
"I  c #7B8691",
"U  c #7E8994",
"Y  c #1E95DE",
"T  c #2183CD",
"R  c #2090DB",
"E  c #1E98E2",
"W  c #1CA4ED",
"Q  c #1AADF5",
"!  c #19B6FB",
"~  c #17BCFF",
"^  c #80878F",
"/  c #828C94",
"(  c #898F95",
")  c #838E99",
"_  c #899097",
"`  c #86919B",
"'  c #8C949C",
"]  c #90979E",
"[  c #8B97A2",
"{  c #8E99A4",
"}  c #929BA4",
"|  c #999EA4",
" . c #949EA9",
".. c #9BA1A6",
"X. c #96A1AC",
"o. c #9AA3AC",
"O. c #9BA6B1",
"+. c #9EA9B4",
"@. c #A1A7AD",
"#. c #A4A9AF",
"$. c #A2ABB4",
"%. c #AAAEB3",
"&. c #A3AEB9",
"*. c #ACB1B6",
"=. c #A6B1BC",
"-. c #ABB4BC",
";. c #B1B6BB",
":. c #B4B9BE",
">. c #ACB6C1",
",. c #AEB9C3",
"<. c #B3BCC5",
"1. c #B9BEC3",
"2. c #B4BEC8",
"3. c #BBC1C5",
"4. c #B7C1CB",
"5. c #BBC4CD",
"6. c #BDC7D0",
"7. c #BFC8D2",
"8. c #C0C3C7",
"9. c #C1C5CA",
"0. c #C4C9CE",
"q. c #C9CBCD",
"w. c #C3CCD5",
"e. c #C9CED3",
"r. c #C6CFD8",
"t. c #CDD1D5",
"y. c #C7D0D9",
"u. c #CCD4DC",
"i. c #D1D6DA",
"p. c #D5D9DD",
"a. c #D9DBDE",
"s. c #CFD7E0",
"d. c #CFD8E0",
"f. c #D4DBE3",
"g. c #D9DEE4",
"h. c #DAE1E6",
"j. c #DDE3E9",
"k. c #E2E4E6",
"l. c #E2E6EB",
"z. c #E5E9EE",
"x. c #EDEEEF",
"c. c #E7ECF0",
"v. c #EDEEF0",
"b. c #EFF0F2",
"n. c #F4F4F4",
"m. c #F6F7F8",
"M. c #F7F8F8",
"N. c #FCFCFC",
/* pixels */
"N.N.N.b.b.M.N.N.n.x.n.N.N.m.x.n.N.N.M.b.b.M.N.N.n.x.n.N.N.m.x.b.N.N.M.b.b.M.N.N.b.x.n.N.N.m.x.b.N.N.M.b.b.M.N.N.n.x.n.N.N.m.x.x.",
"N.N.N.x.b.M.N.N.b.x.n.N.N.m.x.x.N.N.N.x.x.M.N.N.n.x.m.N.N.n.x.b.N.N.M.x.x.M.N.N.b.b.n.N.N.m.x.b.N.N.M.b.b.M.N.N.b.x.n.N.N.m.x.x.",
"M.M.m.n.n.M.M.M.n.m.m.M.M.n.n.m.M.M.M.m.n.M.M.M.n.m.m.N.M.M.m.n.M.M.M.m.n.M.M.N.n.n.m.M.M.m.n.m.M.M.M.n.n.M.M.M.n.m.m.M.M.m.m.n.",
"x.x.m.N.N.n.b.b.N.N.M.b.x.N.N.N.b.x.m.N.N.m.x.b.N.N.M.x.b.M.N.N.n.b.n.N.N.n.x.n.N.N.M.b.b.M.N.N.n.x.m.N.N.n.b.b.N.N.M.b.x.N.N.N.",
"b.x.n.N.N.m.b.n.N.N.M.b.b.M.N.N.n.x.n.N.N.n.x.n.N.N.M.b.b.M.N.N.b.x.m.N.N.m.x.b.N.N.N.b.b.M.N.N.b.x.n.N.N.m.n.b.N.N.M.b.b.M.N.N.",
"M.M.m.m.m.M.M.M.n.n.M.M.M.n.n.M.M.N.M.n.m.M.M.M.n.m.M.M.M.n.n.n.M.M.M.n.m.M.M.M.n.n.n.M.M.M.n.n.M.M.M.n.n.M.M.M.m.n.M.M.M.n.m.m.",
"N.N.M.x.x.M.N.N.n.x.n.N.N.n.x.b.N.N.M.x.x.M.N.N.b.x.n.N.N.n.x.b.N.N.m.x.x.N.N.N.b.x.n.N.N.n.x.b.N.N.N.b.x.M.N.N.b.x.n.N.N.n.x.x.",
"N.N.N.n.b.M.N.N.b.b.m.N.N.n.b.n.N.N.M.b.n.M.N.N.n.b.m.N.N.M.x.b.N.N.N.n.n.M.N.N.b.b.M.N.N.n.b.n.N.N.M.b.n.M.N.N.b.b.m.N.N.n.b.b.",
"b.b.m.N.N.n.b.b.N.N.M.b.b.M.N.N.n.x.n.N.N.M.b.n.M.v.p.5.;.&.X.}  .o.*.5.p.z.b.n.N.N.N.b.b.M.N.N.n.b.n.N.N.n.b.n.N.N.M.b.b.M.N.N.",
"x.x.n.N.N.n.x.b.N.N.M.x.b.M.N.N.b.x.n.N.N.n.k.5.o./ A l k j j h j j k z A L o.q.m.N.N.x.x.N.N.N.b.x.n.N.N.n.x.b.N.N.M.b.x.M.N.N.",
"n.m.M.M.M.M.m.m.N.M.M.m.n.M.M.N.m.n.m.N.x.;.U l j h d s p p p p p p s f h h k c ` 0.x.m.n.M.N.M.n.m.M.M.M.M.m.n.M.M.M.m.n.M.N.N.",
"N.N.M.x.b.M.N.N.b.x.n.N.N.n.x.b.N.N.m.3.U k p p h h f p p p p p p p a d h k k k l c ' p.N.n.x.b.N.N.M.x.b.M.N.N.n.x.n.N.N.n.x.x.",
"N.N.N.x.b.M.N.N.b.x.m.N.N.n.x.n.N.v.O.c f y y d h h d p i u i u u u u i s j l l l c l G 2.x.b.b.N.N.N.x.b.M.N.N.b.b.m.N.N.n.x.b.",
"n.n.M.M.M.m.n.n.M.M.M.n.m.M.M.M.j.' j u y y d h h d i u u r r r r e r y f l c l k l c c ` l.M.M.n.n.n.N.M.M.n.m.M.M.M.n.m.M.M.N.",
"b.x.n.N.N.m.x.n.N.N.M.x.x.M.N.N.-.f y y y d h h f u r r e e w w 6 6 6 r f L ` L c k S *.l.M.M.N.b.x.n.N.N.n.x.b.N.N.M.x.x.N.N.N.",
"b.n.n.N.N.n.x.n.N.N.M.b.n.N.M.N.p.{ l y d h h p y r 6 6 6 5 6 6 6 6 6 6 p A ` ` [ ;.l.N.N.N.n.n.b.n.n.N.N.n.b.n.N.N.M.b.n.M.N.N.",
"N.N.M.b.b.M.N.N.b.b.n.N.N.M.n.m.M.M.z.4.} P c g i w 5 2 5 5 5 6 w t s v ) ;.t.l.N.N.N.N.N.N.N.n.n.N.m.b.b.M.N.N.n.n.m.N.N.m.b.b.",
"N.N.M.x.b.M.N.N.b.x.n.N.N.n.n.M.N.N.N.N.N.M.x.g.t.9.1.;.;.:.3.0.t.a.z.M.N.N.N.N.N.N.N.N.N.N.N.N.b.N.N.x.x.M.N.N.x.x.n.N.N.n.x.x.",
"M.M.M.m.n.M.M.M.m.m.m.m.M.b.b.b.M.M.N.N.N.N.N.N.N.N.N.N.N.N.N.N.N.N.N.N.N.N.N.N.N.N.N.N.N.N.N.N.n.x.n.n.m.m.M.m.m.m.n.M.M.m.n.n.",
"b.b.n.N.N.n.x.n.N.N.M.x.x.x.z.c.c.v.n.n.m.m.n.M.M.N.N.N.N.N.N.N.N.N.N.N.N.N.N.N.N.M.N.N.N.N.N.N.M.x.n.N.N.n.x.n.N.N.M.b.b.N.N.N.",
"b.x.n.N.N.n.x.n.N.N.N.x.l.j.j.z.z.j.t.w.w.i.l.v.n.n.M.N.N.N.N.N.N.N.N.N.l.8...P v c D ( :.z.N.N.N.b.x.N.N.n.x.b.N.N.M.x.x.M.N.N.",
"M.N.M.n.m.M.M.M.n.n.n.x.j.j.j.q.' z i r r u g L $.t.l.n.N.N.N.N.m.g.*.K u > > 2 6 i i y e g *.M.N.n.x.b.n.M.M.N.n.n.m.N.M.m.n.n.",
"N.N.M.b.x.M.N.N.x.x.x.j.j.h.+.t 5 6 6 r 6 1 = * = 6 g D ' | ' U v u 2 * * 1 e i f j k j s e 6 ' n.M.x.z.x.N.N.N.b.b.n.N.N.n.b.x.",
"N.N.M.b.b.N.N.N.n.n.l.h.h.X.6 6 r u i i i i r 2 = = > > 1 > > 1 > > = > 6 f f u e r i s p p r 5 ..M.n.l.v.M.N.N.n.b.m.N.N.n.b.b.",
"n.b.n.N.N.M.b.b.N.N.l.g.<.w 6 r 6 2 * $ % 1 r u 6 = * = = = : : : = 1 6 f e @ X . . @ > e e u e e t.m.z.n.n.x.n.N.N.M.b.b.M.N.N.",
"x.x.m.N.N.n.x.b.N.N.h.p.v 1 r 2 = +         X 1 t 6 2 * = : : : = > 6 u > o o O . .   . * 5 6 u 2 / n.x.b.n.x.b.N.N.M.b.b.M.N.N.",
"n.m.n.M.M.n.n.m.M.n.g.4.6 r 1 1 * X   . X X o X 1 t p : > = = > = 6 e 2 o @ # @ # O o   @ = > 6 w a k.v.x.n.m.m.M.M.M.n.n.m.N.M.",
"N.N.M.b.x.N.N.N.b.l.h.X.1 6 1 6 1 O O & - & O X o e p 2 = = > = = e e @ o O $ 8 0 9 , O # = * > r 6 e.b.z.M.N.N.b.x.n.N.N.m.x.x.",
"N.N.M.b.x.M.N.N.b.l.f.P 1 1 % 6 > + 8 m N b ; o X 2 r 5 = = = = : 6 6 o o @ 8 B T J m - + $ o % r 2 ;.n.z.N.N.N.n.x.n.N.N.n.x.b.",
"n.m.m.N.N.n.n.n.N.x.g.A 1 = @ 6 * , N Y W T q + X 1 r 5 = 1 1 = = 6 6 O o # q T ! ! Z 3 o @ X $ e 2 -.n.z.n.n.n.M.M.M.n.m.M.M.M.",
"x.x.n.N.N.n.b.b.N.b.h.A 1 * O 5 % < C Q ~ E n # X 1 6 1 = = > = : w 6 @ @ @ q J Q W V , + $ o % e 2 3.n.z.x.x.b.N.N.N.x.x.N.N.N.",
"n.b.n.N.N.n.b.n.N.n.h.P 1 1 X % $ - N R W H 9 + X 6 r 6 = 1 = = : e w # o o 4 m Z C q # @ % + > w w i.n.x.b.b.n.N.N.M.x.n.N.N.N.",
"N.N.M.b.b.M.N.N.b.x.l.X.> w o o O + 7 m N 0 - X o w s e > > > > > r r = o o + ; 8 4 $ X O + # e 5 z x.n.z.M.N.N.n.b.n.N.N.m.b.b.",
"N.N.M.x.b.M.N.N.v.x.z.0.w e $     X O + $ + o   = u h 6 > 1 > > 1 6 r r $ X X X . o . .   + 5 s 5 $.N.x.x.M.N.N.b.x.m.N.N.m.x.x.",
"N.M.M.m.n.M.M.M.m.m.c.j.D 1 r @     X X       + r i i 5 1 > > > > 2 e y r % o         . + 5 k r z z.m.x.x.m.M.M.n.m.m.M.m.N.n.n.",
"x.x.m.N.N.n.x.b.N.N.b.z.9.w e u = O X X X O = e r r w > > : : : > 2 6 r u s t 2 = % = 5 s x u i q.N.m.x.m.n.x.b.N.N.M.x.x.M.N.N.",
"x.x.m.N.N.m.x.n.N.N.m.z.c.$.6 r f i r 6 6 r r 6 6 5 2 = > : > : : : 2 6 e r p j k x l z g t j q.N.N.n.x.N.n.x.b.N.N.M.b.x.M.N.N.",
"M.N.M.n.n.m.M.M.m.n.m.x.z.z.*.a 6 r u r w 5 1 > 2 6 f G | ;.1.:.#.( v a r 6 6 w r u y u f } k.N.N.N.b.z.n.m.M.N.m.n.n.N.M.M.n.m.",
"N.N.M.b.x.m.N.N.n.x.n.n.z.c.v.t.} z u e 6 e a D | 8.k.n.N.N.N.N.N.N.N.l.t.:...' _ _ o.3.l.N.N.N.N.n.z.x.x.m.N.N.b.x.n.N.N.n.x.x.",
"N.N.m.n.n.N.N.M.n.x.m.M.v.z.c.z.z.j.t.0.0.t.p.z.b.m.m.m.N.N.N.N.N.N.N.N.N.N.N.N.N.N.N.N.N.N.N.N.M.n.x.b.n.m.N.N.n.b.n.N.N.n.b.n.",
"n.b.n.N.N.m.b.b.N.N.M.b.b.x.z.z.z.z.c.c.z.c.v.b.c.m.m.M.N.N.N.N.N.N.N.N.N.N.N.N.N.N.N.N.N.N.N.N.n.x.n.N.N.n.b.b.N.N.M.b.b.N.N.N.",
"x.x.m.N.N.m.x.b.N.N.M.n.x.v.x.x.x.z.x.z.j.c.c.v.n.m.m.M.N.N.N.N.N.N.N.N.N.N.N.N.N.N.N.N.N.N.N.m.x.l.m.N.N.n.x.b.N.N.M.x.x.M.N.N.",
"n.m.m.m.M.M.n.m.m.M.N.m.m.n.n.z.z.z.c.z.c.z.c.c.c.m.m.M.N.N.N.N.N.N.N.N.N.N.N.N.N.N.N.N.N.N.n.v.z.n.M.M.M.M.M.m.M.M.m.m.n.M.M.M.",
"N.N.N.x.b.M.N.N.x.x.n.N.N.m.x.x.z.z.z.z.l.z.z.z.c.c.m.m.N.N.N.N.N.N.N.N.N.N.N.N.N.N.N.N.M.n.v.c.m.N.M.x.b.M.N.N.b.b.n.N.N.n.x.b.",
"N.N.M.x.x.M.N.N.n.x.n.N.N.n.b.n.c.l.z.c.z.c.z.c.v.b.n.m.N.N.N.N.N.N.N.N.N.N.N.N.N.N.N.N.n.x.c.v.N.N.N.x.b.M.N.N.b.b.m.N.N.n.b.x.",
"n.n.m.N.M.M.n.n.N.N.m.n.n.N.M.M.b.c.z.z.j.c.l.c.c.v.v.n.M.M.N.N.N.N.N.N.N.N.N.N.N.N.m.n.v.l.n.M.n.n.n.N.M.M.n.n.M.M.M.n.m.M.N.M.",
"b.x.n.N.N.n.x.b.N.N.M.x.v.N.N.N.b.v.c.l.z.l.h.z.c.c.c.c.b.M.M.N.N.N.N.N.N.N.N.N.N.n.v.z.l.b.N.N.x.x.n.N.N.n.x.b.N.N.M.x.x.M.N.N.",
"b.b.n.N.N.n.b.n.M.N.M.b.n.m.N.M.n.n.v.l.j.j.g.g.h.j.c.c.b.b.b.m.N.M.N.N.N.N.N.n.b.x.z.z.v.N.N.N.n.n.m.N.N.n.b.n.N.N.m.b.n.N.N.N.",
"N.N.N.b.b.M.N.N.n.b.m.N.N.n.b.n.N.N.M.x.k.h.g.u.d.h.j.l.c.c.c.v.c.n.b.m.M.M.m.v.j.j.v.N.N.m.x.n.N.N.N.x.b.M.N.N.n.b.n.N.N.m.b.b.",
"N.N.M.x.x.M.N.N.b.x.n.N.N.m.x.b.N.N.N.b.x.x.h.y.u.u.f.f.f.f.d.f.f.f.f.g.j.j.f.u.5.u.v.N.N.n.x.b.N.N.N.x.x.M.N.N.b.x.n.N.N.m.x.x.",
"M.M.M.n.m.m.M.m.n.m.m.M.M.M.n.m.M.M.M.m.m.M.l.7.4.5.4.2.,.,.,.,.,.2.5.r.f.f.f.f.u.u.u.z.M.m.m.m.M.M.m.n.m.m.m.M.n.M.m.M.M.m.n.n.",
"x.x.m.N.N.n.x.b.N.N.M.x.x.M.N.N.b.x.n.N.N.z.3.2.4.4.6.5.4.4.5.6.7.r.s.f.h.j.l.l.h.f.u.p.x.M.N.N.b.x.m.N.N.n.x.b.N.N.M.x.x.N.N.N.",
"b.x.n.N.N.m.x.b.N.N.M.b.b.M.N.N.b.x.m.N.N.c.4.2.5.7.w.w.w.y.y.u.s.d.f.g.j.c.v.b.l.2./ <.v.N.N.N.b.x.n.N.N.m.x.b.N.N.M.b.b.M.N.N.",
"M.N.M.n.n.M.N.N.n.n.m.N.N.n.n.n.M.N.m.n.m.k.6.6.w.w.y.y.y.u.u.s.d.f.f.j.j.v.m.v.-.j u ` c.b.n.n.M.N.M.n.n.M.N.N.n.n.n.N.M.M.n.n.",
"N.N.M.b.x.M.N.N.b.x.n.N.N.n.x.b.N.N.N.l.1.z ) 0.y.u.y.y.s.u.s.d.f.f.g.j.c.b.n.3.i 2 u <.l.l.j.x.N.N.M.x.x.M.N.N.b.b.n.N.N.n.x.b.",
"N.N.M.n.b.M.N.N.n.b.n.N.N.n.b.n.N.N.i.<.I 5 y $.u.d.d.s.s.s.d.f.f.f.h.c.v.b.i.f O @ U g.l.f.i.b.N.N.M.n.b.M.N.N.n.b.m.N.N.n.b.b.",
"b.b.m.N.N.n.x.n.N.N.N.x.b.N.N.N.b.b.t.7.O.u 2 z w.d.d.s.s.f.f.f.h.j.j.c.v.c.) @ . e 5.l.z.' 8.N.n.x.m.N.N.m.x.n.N.N.M.b.b.N.N.N.",
"x.x.n.N.N.n.x.b.N.N.M.x.x.M.N.N.b.x.k.t.2.c 5 > O.s.f.f.f.f.g.g.h.l.z.c.v.w.e   O G f.v.0.2 _ M.b.x.m.N.N.n.x.b.N.N.M.x.x.M.N.N.",
"n.M.M.M.N.m.M.m.M.M.m.m.n.m.M.M.m.m.9.2.w.[ 6 % x r.f.f.g.h.g.j.l.z.c.c.z.%.# . > +.j.v.]   : *.n.n.n.m.N.m.M.m.M.M.M.M.n.M.M.M.",
"N.N.M.x.x.M.N.N.b.x.n.N.N.m.x.b.N.n.z G 6.&.y % e 6.d.f.g.j.l.l.z.c.c.c.j.$.% # 6 ,.g.h.' K *.a.N.M.n.z.l.M.N.N.b.x.n.N.N.n.x.b.",
"N.N.N.x.x.M.N.N.b.b.n.N.N.n.j.h.c.1.> * [ >.z $ y <.s.g.j.k.l.z.z.z.z.z.g.2.i > j -.g.l.m.N.N.N.N.N.N.x.z.b.N.N.b.x.n.N.N.m.b.x.",
"n.n.m.N.N.m.n.n.N.N.M.n.z.q.<.<.2.>.) s S 3.o.a A 2.s.g.j.l.z.c.b.v.x.z.g.u.O.A U >.j.M.N.N.N.N.N.N.N.m.x.l.b.n.N.N.M.n.n.M.M.N.",
"x.x.n.N.N.n.x.x.N.N.M.p.5.,.2.6.7.5.4.-.O.o.i.g.-.2.u.f.k.l.z.x.z.k.i.9.-.$.+.>.u.l.v.M.N.N.N.N.N.N.N.N.n.x.l.x.N.N.M.b.b.M.N.N.",
"b.b.m.N.N.n.n.n.N.N.g.5.5.7.w.t.u.u.r.7.,.[ 3.m.p.( j s g v z a t w : $ @ # w *.m.j.j.n.N.N.N.N.N.N.N.N.N.n.z.x.M.N.M.b.n.M.N.N.",
"N.N.M.x.b.M.N.N.b.g.5.7.r.u.u.d.f.f.g.u.5.+.l.N.n.k.q...5 = $         O o D p.m.l.f.h.n.N.N.N.N.N.N.N.N.N.N.n.l.x.x.m.N.N.m.b.b.",
"N.N.N.x.x.M.N.N.j.u.r.w.u.s.s.f.g.h.j.f.5.<.N.N.x.a.i.t.a : : o .     + % / 2.3.0.g.b.N.N.N.N.N.N.N.N.N.N.N.m.x.l.x.n.N.N.m.x.x.",
"N.M.m.M.m.M.m.h.s.d.f.f.f.f.f.f.f.h.j.f.w.e.N.v.2.X.[ [ _ [ } ' [ ) I U ) [  .O.>.l.m.m.N.N.N.N.N.N.N.N.N.N.N.b.z.b.m.N.N.m.m.M.",
"x.x.n.N.N.n.t.w.u.d.f.j.j.z.j.h.f.f.d.y.5.g.x.i.-.5.u.g.h.j.j.j.j.h.f.s.r.w.7.7.y.j.v.m.N.N.N.N.N.N.N.N.N.N.N.m.x.l.n.x.x.m.N.N.",
"x.x.n.N.N.z.7.w.y.s.f.j.z.z.c.z.c.j.u.5.w.x.b.t.<.7.d.h.j.j.j.j.h.h.f.s.r.w.u.s.g.c.v.M.N.N.N.N.N.N.N.N.N.N.N.N.b.z.z.x.b.M.N.N.",
"M.N.M.n.n.t.7.w.y.s.f.h.l.z.z.v.v.v.l.w.t.m.M.w.,.w.d.h.j.j.j.j.j.h.f.s.y.u.y.f.z.v.b.M.N.N.N.N.N.N.N.N.N.N.N.N.n.z.z.M.N.m.n.n.",
"N.N.N.x.z.r.w.w.y.s.g.j.l.c.c.c.v.v.v.h.g.M.N.u.+.7.f.j.z.j.j.j.h.g.f.s.6.>.-.u.c.b.n.m.N.N.N.N.N.N.N.N.N.N.N.N.n.z.x.N.N.n.x.x.",
"N.N.m.n.x.w.w.w.w.d.g.h.j.j.c.c.z.c.j.w.f.M.N.i. .<.g.j.j.j.j.h.h.g.f.w.U A G $.j.m.n.m.N.N.N.N.N.N.N.N.N.N.N.N.m.x.b.N.N.m.n.n.",
"n.x.m.N.n.y.w.7.y.d.g.g.j.j.c.j.l.9.z g z.m.n.a.U I u.h.h.h.h.h.h.g.d. .= = 6 f ' t.m.m.N.N.N.N.N.N.N.N.N.N.N.N.N.z.n.x.b.M.N.N.",
"x.x.m.N.N.u.w.r.y.s.f.h.j.j.j.j.2.2 o r q.m.x.1.y > $.h.h.h.h.h.f.g.w.f O $ : 6 i g q.N.N.N.N.N.N.N.N.N.N.N.N.N.m.n.N.x.x.M.N.N.",
"m.M.m.M.m.i.w.y.w.s.d.g.h.h.g.u.g o o : ^ b.1.w $ + i y.g.g.f.f.f.d.O.$ + % @ # 1 > g i.N.N.N.N.N.N.N.N.N.N.N.N.n.n.m.m.M.M.m.M.",
"N.N.M.x.x.g.r.w.w.y.d.f.g.u.w.$...F + $ 6 D t o + O X U d.d.d.d.u.7.c X # % O O : > * / z.N.N.N.N.N.N.N.N.N.N.N.b.x.n.N.N.n.x.x.",
"N.N.M.b.x.n.h.r.w.u.u.-.U U 3.i.N.o.$ % > 6 $   o + @ % =.u.y.y.w.+.2 X $ # . + > = 6 { 7.1.i.N.N.N.N.N.N.N.N.m.x.x.n.N.N.m.x.b.",
"n.m.m.N.N.n.x.i.7.X.v 6 $ ' N.N.k.G a r s I A 6 $ @ O > A <.6.4.2.U $ + * 6 s I S f U +.2.) 5 F 9.l.M.N.N.N.N.n.M.N.M.n.n.M.N.N.",
"x.x.n.N.N.n.x.k.4.D w % : 8.N.N.2.G U [ &.5.7.2.@./ j / 1.<.>.>.O.L S ` +.<.4.,.>.+.X.X.-.' # $ 5 t P  .:.g.m.n.N.N.M.b.x.M.N.N.",
"n.b.n.N.N.m.n.n.N.n.U $ : 8.N.n.[ } &.4.w.s.g.h.h.i.w.>.o.X.X.w.3.=.7.f.f.u.6.,.&.+. .{ +.I @ = w u u r i ' n.n.M.N.M.n.b.M.N.N.",
"N.N.M.b.b.N.N.N.x.n.#.> % %.m.e.) >.w.u.f.g.g.j.j.f.r.6.>.X.[ { >.4.r.f.f.d.w.2.>.O.{ { O.A # 5 i f = r f ;.N.N.b.b.m.N.N.n.b.b.",
"N.N.M.x.x.M.N.N.n.b.e.w # ^ x.o. .w.f.g.g.g.z.l.z.f.s.7.2.>.O.O.<.7.s.d.g.d.y.6.>.+. .[  .k : e j 6 = r c i.N.N.b.x.n.N.N.n.x.x.",
"N.m.M.m.n.M.M.M.m.n.x.v # a a.) =.f.j.c.z.z.z.z.l.f.s.w.2.>.+.+.4.w.d.d.f.d.s.w.2.>.O.X.O.f 5 u l : 1 i I x.M.m.M.M.M.M.M.M.M.M.",
"x.x.m.N.N.n.x.b.N.N.N.:.1 > ( I <.f.l.z.v.x.z.z.l.f.s.r.6.2.&.>.5.w.s.d.f.f.d.u.7.2.>.>.&.s 5 s k = 5 g &.n.x.n.N.N.M.x.b.M.N.N.",
"x.b.n.N.N.n.b.b.N.N.M.x./ * : G 4.f.l.c.v.v.x.c.j.f.s.r.6.,.&.>.6.y.s.d.f.f.f.f.s.r.7.6.,.i 6 k A 1 6 A a.M.x.x.N.N.M.b.x.M.N.N.",
"N.M.M.n.n.M.N.M.m.n.m.N.x./ a } 7.f.j.c.b.v.x.z.j.f.s.7.6.2.>.>.6.y.s.d.f.f.h.h.f.s.s.f.w.y 6 S 3.f p &.x.M.N.N.n.b.n.N.N.M.n.n.",
"N.N.M.b.x.M.N.N.b.x.n.N.N.n.w.4.w.d.j.c.v.v.c.z.g.f.s.7.6.2.&.,.6.y.d.f.f.j.j.j.j.h.h.l.l.' x 1.N.t.0.k.x.M.N.N.b.x.n.N.N.n.x.b.",
"N.N.m.n.n.M.N.M.n.n.n.N.M.m.k.w.7.w.f.j.c.c.z.z.g.f.s.r.2.2.&.,.6.7.s.d.h.j.l.l.c.c.c.m.M.m.v.N.N.N.N.n.n.m.N.N.n.b.m.N.N.n.b.n.",
"b.x.n.N.N.m.x.n.N.N.M.b.x.M.v.<.>.,.2.7.f.j.z.l.f.f.s.6.2.,.&.,.5.7.d.d.f.l.l.l.z.l.j.z.v.N.N.N.M.b.m.N.N.n.b.b.N.N.M.x.b.M.N.N.",
"x.x.n.N.N.m.x.x.N.N.N.x.x.N.M.u.>.,.,.,.,.2.s.f.f.f.s.7.2.,.+.,.5.7.s.d.f.h.s.s.w.5.4.,.5.j.n.m.n.x.n.N.N.m.x.b.N.N.N.x.x.M.N.N.",
"M.M.M.m.M.M.M.m.m.m.M.M.M.M.M.k.6.s.f.d.r.2.,.,.4.7.7.6.,.>.+.=.<.6.y.w.7.6.6.5.5.4.4.5.7.g.z.z.n.M.M.m.M.m.m.m.M.M.m.m.M.M.M.M.",
"N.N.M.b.x.M.N.N.b.x.n.N.N.n.x.e.r.d.l.z.z.f.y.,.&.O.O.&.&.+.X.+.,.,.>.>.<.4.6.6.5.7.7.y.u.h.l.v.N.N.M.x.x.M.N.N.b.x.n.N.N.n.x.x.",
"N.N.M.b.b.M.N.N.x.x.m.N.N.m.f.7.s.j.z.c.z.j.f.s.2.&.O.U I S G U ` ` X.>.5.7.w.7.w.w.y.f.p.h.j.b.N.N.M.b.x.M.N.N.b.x.m.N.N.n.x.b.",
"n.b.m.N.M.M.n.n.N.N.M.n.n.n.w.7.f.j.c.c.l.j.f.d.7.,.+.{ I A d A A U +.,.6.y.y.y.u.u.u.f.f.g.j.m.n.n.n.N.N.m.n.n.M.N.M.n.n.M.N.N.",
"b.x.n.N.N.n.x.b.N.N.M.x.v.h.6.s.g.c.v.c.z.h.s.s.7.2.&. .U A A r.u.X.+.,.4.w.u.u.d.g.h.h.h.h.h.x.b.x.n.N.N.n.x.x.N.N.M.x.x.M.N.N.",
"b.b.n.N.N.n.b.n.N.N.M.n.v.w.r.f.j.v.m.c.l.j.d.r.4.,.O.` S p A c.b.X.X.,.5.7.y.u.f.j.z.j.h.h.h.j.x.n.n.N.N.n.n.n.N.N.M.b.n.M.N.N.",
"N.N.N.n.x.N.N.N.n.x.n.N.e._ ' o.*.8.8.:.:.*.| ] / P _ ^ ] ..8.x.M.@.P ] &.5.r.u.h.c.b.b.j.j.h.h.k.M.M.x.b.M.N.N.b.b.n.N.N.n.b.x.",
"N.N.m.x.x.M.N.N.b.x.n.N.b.q.:.+.] @.....<.9.q.a.p.h.b.N.N.M.b.b.N.N.h.;.] ]  .#.-.-.:.;.$.X.' / o.m.N.b.x.M.N.N.b.x.n.N.N.n.x.b.",
"n.m.m.m.m.m.M.m.m.m.m.m.m.N.M.N.M.M.M.N.N.N.M.M.M.M.m.M.m.m.M.M.m.M.M.N.m.k.q.:..._ ] ' ] @.;.3.a.n.M.M.M.M.M.M.M.M.M.M.m.m.M.M.",
"b.x.m.N.N.n.x.b.N.N.N.x.x.M.N.N.b.x.n.N.N.n.x.b.N.N.M.x.b.M.N.N.b.x.n.N.N.n.b.n.N.N.N.n.n.N.N.N.n.x.n.N.N.n.x.b.N.N.M.b.b.M.N.N.",
"x.b.n.N.N.M.b.b.N.N.M.b.b.M.N.N.b.x.n.N.N.n.b.b.N.N.M.b.b.M.N.N.b.x.n.N.N.n.x.b.N.N.M.b.x.N.N.M.b.b.n.N.N.n.x.b.N.N.N.b.x.M.N.N.",
"N.N.M.b.b.M.N.N.n.n.n.N.N.n.n.n.N.N.M.n.n.m.N.N.n.n.n.N.N.n.b.b.N.N.M.n.n.M.N.N.n.n.m.N.N.n.n.n.N.N.M.b.n.M.N.N.n.n.n.N.N.n.b.n.",
"N.N.M.b.b.M.N.N.b.x.n.N.N.n.x.x.N.N.M.x.x.M.N.N.b.x.n.N.N.n.x.b.N.N.M.x.x.M.N.N.b.x.n.N.N.n.x.x.N.N.M.x.x.M.N.N.b.x.n.N.N.n.x.x.",
"N.M.M.n.n.M.N.M.n.n.n.N.N.n.n.n.M.N.M.n.n.M.N.M.n.n.n.N.N.M.n.n.N.M.M.n.n.M.N.N.n.b.M.M.N.m.n.n.M.N.M.n.n.M.N.M.n.b.n.N.N.m.b.n.",
"b.x.m.N.N.n.b.b.N.N.M.b.b.M.N.N.b.x.n.N.N.m.b.b.N.N.M.x.b.M.N.N.b.x.m.N.N.n.x.b.N.N.M.b.b.M.N.N.b.x.n.N.N.m.b.b.N.N.M.b.b.M.N.N.",
"x.b.n.N.N.n.x.b.N.N.M.x.x.M.N.N.b.x.n.N.N.m.x.b.N.N.M.b.x.N.N.N.b.b.n.N.N.n.x.b.N.N.M.x.x.M.N.N.b.x.n.N.N.n.x.b.N.N.M.x.x.N.N.N.",
"n.n.M.M.M.M.m.n.M.M.M.m.n.m.N.m.m.n.m.M.M.M.n.M.M.N.m.n.m.m.M.M.n.M.M.M.M.M.M.m.M.M.M.m.n.m.N.m.m.m.M.M.N.m.n.m.M.M.n.M.m.m.M.M."
};
