/* XPM */
static char *result[] = {
/* columns rows colors chars-per-pixel */
"90 64 183 2 ",
"   c #1D93AA",
".  c #2F93A7",
"X  c #2296AC",
"o  c #2D97AA",
"O  c #2599AE",
"+  c #2B9AAD",
"@  c #3292A4",
"#  c #3B94A4",
"$  c #3095A8",
"%  c #369BAC",
"&  c #3B9CAC",
"*  c #259CB1",
"=  c #2B9EB2",
"-  c #319EB2",
";  c #3C9FB0",
":  c #26A1B5",
">  c #2DA2B6",
",  c #2EA6B9",
"<  c #34A3B6",
"1  c #3BA4B5",
"2  c #34A6B9",
"3  c #3BA6B8",
"4  c #35A9BB",
"5  c #3CABBC",
"6  c #4397A6",
"7  c #4C99A6",
"8  c #439CAB",
"9  c #4A9EAD",
"0  c #509FAE",
"q  c #599FAB",
"w  c #4FA0AF",
"e  c #51A1AF",
"r  c #45A4B3",
"t  c #4CA4B3",
"y  c #44A8B7",
"u  c #4AA8B7",
"i  c #41A5B8",
"p  c #43ACBC",
"a  c #4BADBD",
"s  c #53A5B3",
"d  c #5DA6B3",
"f  c #54A9B6",
"g  c #5CA9B6",
"h  c #53ADBB",
"j  c #5BADBA",
"k  c #45B0BF",
"l  c #4BB0BF",
"z  c #54B0BE",
"x  c #5CB2BE",
"c  c #60A3AF",
"v  c #6DA1AE",
"b  c #71A3AF",
"n  c #62A5B3",
"m  c #6EA4B0",
"M  c #65A9B6",
"N  c #6BAAB6",
"B  c #63AEBB",
"V  c #6CADBA",
"C  c #73A6B1",
"Z  c #74A9B6",
"A  c #7AABB6",
"S  c #74AEBA",
"D  c #7AAEBA",
"F  c #62B2BE",
"G  c #6BB2BE",
"H  c #73B2BE",
"J  c #7BB1BD",
"K  c #3CAFC0",
"L  c #3EB0C0",
"P  c #44AFC0",
"I  c #45B2C2",
"U  c #4CB3C2",
"Y  c #4DB9C7",
"T  c #4EBBC8",
"R  c #53B4C2",
"E  c #5BB5C3",
"W  c #54B9C6",
"Q  c #5BB9C6",
"!  c #54BCC9",
"~  c #5CBDCA",
"^  c #63B5C4",
"/  c #6BB6C4",
"(  c #63B9C6",
")  c #6BB9C7",
"_  c #64BCC9",
"`  c #6CBCC9",
"'  c #73B6C3",
"]  c #7DB5C2",
"[  c #73B9C6",
"{  c #7CB9C6",
"}  c #74BCCA",
"|  c #7CBDCB",
" . c #57C1CC",
".. c #5DC1CC",
"X. c #63C2CD",
"o. c #6BC2CE",
"O. c #72C2CE",
"+. c #7CC1CE",
"@. c #65C6D0",
"#. c #6BC6D0",
"$. c #66C8D2",
"%. c #6CCAD3",
"&. c #73C5D1",
"*. c #7BC6D1",
"=. c #73CBD4",
"-. c #7CCBD5",
";. c #7ECFD8",
":. c #74D0D7",
">. c #7BD2D9",
",. c #81B2BD",
"<. c #82B6C3",
"1. c #82B9C6",
"2. c #89BAC5",
"3. c #85BDCB",
"4. c #88BFCD",
"5. c #84C0CE",
"6. c #89C0CE",
"7. c #84C3D0",
"8. c #8AC2D0",
"9. c #83CBD5",
"0. c #8BCBD5",
"q. c #86CFD8",
"w. c #8BCFD8",
"e. c #94CCD6",
"r. c #9CCED6",
"t. c #90CED8",
"y. c #9ACFD8",
"u. c #84D2DA",
"i. c #8CD3DB",
"p. c #8CD8DF",
"a. c #94D4DC",
"s. c #9BD4DC",
"d. c #96D8DF",
"f. c #9AD8DF",
"g. c #A2D6DD",
"h. c #AAD7DE",
"j. c #A2D8DF",
"k. c #95D9E1",
"l. c #9DDBE1",
"z. c #A4DBE2",
"x. c #ABDCE2",
"c. c #B2DDE3",
"v. c #B9DEE3",
"b. c #A6E0E5",
"n. c #ACE0E6",
"m. c #B3E1E6",
"M. c #BBE1E6",
"N. c #B5E3E8",
"B. c #BCE4E9",
"V. c #BEE8EC",
"C. c #C6DFE3",
"Z. c #C2E2E6",
"A. c #CAE2E6",
"S. c #C3E6EA",
"D. c #CAE6E9",
"F. c #C5E9EC",
"G. c #CBE9ED",
"H. c #D4E7EA",
"J. c #D4EAED",
"K. c #DBEBED",
"L. c #CDEDF0",
"P. c #D3EEF1",
"I. c #DCEFF0",
"U. c #D5F0F2",
"Y. c #DCF1F3",
"T. c #E3EDEE",
"R. c #EEEFEF",
"E. c #F0EFEF",
"W. c #EFF0EF",
"Q. c #F0F0EF",
"!. c #E4EFF0",
"~. c #ECEFF0",
"^. c #E3F3F4",
"/. c #ECF2F3",
"(. c #E6F6F8",
"). c #EBF7F8",
"_. c #EDF9FA",
"`. c #F3F4F4",
"'. c #F8F7F7",
"]. c #F7F8F7",
"[. c #F3F7F8",
"{. c #F5FBFB",
"}. c #FCFEFE",
/* pixels */
"}.}.}.}.E.E.E.].}.}.}.`.E.E.`.}.}.}.}.W.R.R.].}.}.}.[.E.W.Q.}.}.{.].W.K.D.F.}.}.}.[.R.E.`.}.}.}.}.R.R.R.'.}.}.}.`.T.~./.{.}.}.}.~.E.E.].}.}.}.`.E.~.~.).}.}.].~.~.~.'.}.}.}.`.K.A.C.",
"}.}.}.[.Z.T.R.'.}.}.}.I.A.Z.J.[.}.}.[.T.T.T.^.{.}.(.H.D.K.P.F.U.(.[.S.u.i.F.L.G.}.`.R.E.E.}.}.}.}.R.R.K.D.^._.}.`.!.H.H.P.}.}.I.K.~.D.L.(.}.{.!.~.~./.[._.J.I.x.r.8.v._.}.}.H.9.+.v.",
"}.{.U.S.s.A.R.[.}.}.^.s.` R 0.S.x.n.x.9.x.G.G.F.z.b.a.k.n.p.:.u.b.L.l.%.=.l.k.b.F.s.H.R.R.}.}.}.[.J.S.9.-.B.w.N.C.v.w.a.F.Y.Y.F.S.A.q.;.#.9.9.*.x.Z.H.F.s.x.c.9.1 o P s.P.S.0.` h.R.",
"}.Y.b.-.*.Z.H.J.Z.s.O.a i 3 E _ U ! ! 5 ( a.N.Y.-.~ o.a.>.$.%.>.$.u.=.! ! o.;.a.U 5 _ x.N.).^.J.Y.F.x.o.9.z.` 9.Q #.W &.V.z.q.v.k.-.#.Y ~ P P p O.-.z.` *.t.9.P < o 5 k.&.3 U q.D.`.",
"W.D.i._ 3 p R 9.) h p 1 p i p 3 Y  .! I 5 Q w.m.#.T l W W  .@.=.X. .U 3 5 k U a < * * W X.` q.x.J.Y.=._ #.w.O.Q Q X.( W ;.:.#.*.=._ ..$.$.~ K P 3 W &.I P &.} K 2 < P _ 3 * > o.^.}.",
"R.J.a.~ < > 2 U E $ - X X   * * 5 I U I l W a.f.X.@.Q ` %.@.:.%...T Y I U a I a 3 < > > = o 5 E 9.t.U W U R R U U U U 5 U ! ~ ` ` _ @.$.:.$.W Y 2 U ~ K 2 p _ p + + > 4 2 > 3 ` P.}.",
"R.m.n.;.U W ~ U r r 1 * - 2 3 3 U ....I 5 T Q R U T W X.&.o.o.X.! ....Q Q W U i i > > 4 < 1 2 < < p U 5 > > < 2 > < < * > k R x ( P P W ~ ! 4 = * > 5 > X       * * 2 I P 2 ! a.^.}.",
"[.J.S.-.W T ! 3 - r U p P I I 5 I X.W 5 5 ! W  .! ! ~ E o.=.*.@...@.$...! ..! a = * 2 4 ; 1 2 5 R R Q R 3 2 = 2 = * O   2 W x j E R R W ~ W I > : 2 : =         O * : 4 2 2 P -.^.`.",
"}.^.g.^ R U a ; % 9 r ; P R ^ E ^ } ) U a a z X.#._ Q ( } } 3.| X.X.( Q E ` ( x u u y u y r u z R a ( ^ h a 1 a 3 R a < u x G G ^ R E ^ / ^ R 5 ; i + o O O - X + = 1 < = ; ( Z.R.R.",
"[.x.0.u r u f 8 @ % & % t f B B ] ' V j u r u ( ^ E g Q ) [ } [ V M V V ] ] G s s F x F G / G V s h j B f f 8 f x G h y i f N H / ^ M / S N s w a f R R 9 w t i 8 8 9 9 & t 5.D.R.R.",
"}.J.o.U 3 5 I 5 - - 3 P W ` | } *.7.| ` .. . .=.&.&.#.` | | 7.7.+.O.| [ { | Q k U U ! ` } ` } } R E ` ` ` ` R ( E ( I 5 3 a ` O.` ` ` ` } ) R a U E ! P K P W U a U U i p U *.t.H.R.",
"[.I.;.~ W a p 3 1 5 p 5 ( } ` } } 7.| ` U ! X.o.#.} | *.3.*.*.| +.{ } { { | X.~ l U X.` ` } ^ R a ( ` | } &.} | ) ` E E Q ( } | } } } ` } ` ^ a P U 3 K i P ^ E 5 i a < i ( 9.w./.}.",
"R.R.M.o._ 3 3 < * = > * E ^ ^ [ } | ` ` U Q Q _ ` } } *.| | *.| } [ } { [ +._ o.` ` O.O.} +.} _ _ } +.5.3.7.} | | *.} ` +.+.+.5.| &.} | } } } E ^ ^ R ) _ ~ ) ! U p l 1 a R 3 0.}.}.",
"R.R.v.x.( 5 I 4 2 2 4 p E ^ ) | | } } } _ } | *.*.| | *.| 9.7.4.| { | 3.{ | ` O.+.5.5.+.| 5.3.7.5.5.5.5.4.4.| | | *.} } | +.| 9.3.*.| | 3.| 3.[ ' { | | ) ~ ^ W U U R U E R ` h.}.}.",
"/.R.h.O.P P I K 4 > 2 P R ^ } | | | } ` ) ` ` ` } ` ` ` } | | 3.+.| | { ' / ) ) 5.5.} [ [ | 3.3.3.5.5.3.4.*.| | 3.*.| | 3.7.3.7.7.3.| 3.3.| | 3.[ | | | ` Q _ Q ( ~ ~ _ E *.z.c.{.}.",
"}.^.+.Q U K K 2 2 : = p a ^ } | | | | } ) ` } } | | } } } | 3.| 3.{ | ' J } | [ | | } | [ { 3.{ 3.3.3.3.4.8.| 3.3.4.3.*.7.5.| 7.7.| 3.| | 3.3.3.| | | | } E _ ~ E ....X.*.*.*.g./.`.",
"}.F.o.z.c.*...U p 4 4 U ..} | | | | { O.[ ) | } [ } | | [ 3.4.4.3.{ 4.{ { 3.3.3.| 4.3.3.| 3.4.3.8.4.4.3.3.6.3.4.3.5.5.5.8.5.7.7.3.4.4.7.7.7.3.3.| 3.3.| [ _ } ` %.:.%.-.k.a.0.H.R.E.",
"}.P.z.S.r.^ Q R l < 1 u z ^ { ' 1.J ' { { | { | { ] 3.3.| 3.4.3.3.{ 3.{ ] | { { 3.| 3.3.3.3.3.3.{ 3.3.3.3.1.1.3.3.3.3.3.3.3.3.4.3.3.4.4.3.3.3.3.| | } | / E ) E _ Q ( &.*.w.y.K.E.R.",
"}.D.a.z.t w u u r & u z F G ] J ] ] ] J D H S Z C ' Z ] ] ] 1.1.1.1.<.<.] ] ] D ] ] <.<.] ] { 1.<.] J ] ] 1.1.] J J D S D D D J 1.<.1.3.1.1.1.] A ' ' ' c 0 n i r & % 8 V e.y.I.`.`.",
"R.D.l.l.;.W ! T R u ~ _ ( } 5.+.5.5.5.5.3.5.3.{ 3.1.1.<.3.4.4.4.4.4.4.4.4.3.3.3.3.4.4.4.4.] 4.4.6.8.4.4.8.8.4.4.3.4.5.3.3.3.1.1.4.4.3.3.3.3.4.4.3.{ { ] ^ R R 3 3 < 1 U } x.y.(.}.}.",
"R.K.S.q.E U #.Y Q u ..Q Q } | +.7.| 3.4.6.5.6.3.3.3.3.] 3.4.4.4.4.4.{ 4.4.3.4.3.3.3.3.3.3.1.4.4.8.8.4.8.4.8.4.8.8.8.7.3.3.6.3.] 3.4.4.3.3.3.3.3.| ' [ } ^ E E i 3 p p i P ( t.^.}.}.",
"E.R.M.&.~ X.%.%.X...%.o.` } +.3.3.3.7.3.6.3.4.8.4.3.1.] 4.3.4.3.3.3.{ 4.3.3.4.3.3.3.3.3.4.<.4.4.8.8.6.3.3.8.8.4.8.4.4.8.3.4.1.] 3.3.4.3.3.1.3.3.3.| | ' ' ^ ^ E I P 4 U P p R y.{.}.",
"`./.k.p.=.@.%.%.%.X.=.#.o.} | 5.3.7.3.7.4.4.6.8.4.3.1.] 3.3.3.4.4.3.3.3.3.4.4.4.4.3.4.4.3.1.3.4.4.6.4.8.8.4.8.7.4.8.8.4.4.3.1.J 3.1.1.3.3.3.3.| { | | / / ^ ^ E U L 3 a p 5 3 ( G.^.",
"}.}.b.X.@. .T T ~ R U ~ X.} | 3.7.4.3.3.3.7.3.4.4.3.3.] 3.3.3.3.3.3.3.4.4.4.4.3.3.3.4.4.4.1.4.3.3.8.3.6.8.8.8.8.4.4.4.4.3.3.4.1.3.3.3.3.3.3.3.3.| | / / / n E P < i a W U p 5 _ v.K.",
"}.}.N.=.X.! U T Q h 5 ! Q ) | 5.7.7.3.3.3.7.4.7.4.4.3.{ 3.3.4.3.3.3.3.4.4.4.4.4.3.3.3.3.3.1.4.3.4.4.3.4.8.4.4.4.8.8.4.4.4.4.3.3.4.3.3.3.3.3.3.3.4.| | { / ^ ` Q U W Q X.R l R +.J.R.",
"}.{.n.X.! U I I k < , U ( } | 5.4.3.3.| 3.4.4.4.4.3.1.] 4.4.4.4.4.3.3.3.4.4.4.4.3.4.4.4.3.1.4.4.7.4.4.4.8.8.8.4.4.8.4.4.4.4.3.] 4.3.4.4.3.3.3.3.| | | | / E } ) ( _ X.( Q R l _ Z.~.",
"[./.z.Q p 2 1 < < + O y x / { | 3.| | { ] { 1.3.1.1.1.] 3.1.{ 3.1.1.1.<.4.4.4.4.3.3.3.3.4.<.3.1.4.1.4.4.4.4.4.1.3.3.3.1.1.3.1.D 3.1.] 3.3.1.1.] 3.} { { ) ^ ' / ( ~ W E x ^ ^ 0.G.].",
"R.K.( ` 3 3 i ; 1 - o u j H 1.1.1.2.1.1.<.2.2.2.2.<.2.D <.<.] ] ] ] <.] { 3.4.4.3.3.3.3.4.1.<.2.<.<.2.2.2.4.2.4.3.2.2.2.2.1.2.D <.1.] { ] ] <.] { { ] ] ' ^ ' ' ) R z l u r f g.F.(.",
"R.H.( 5 5 5 ! K I 5 , U ) | 5.3.3.8.1.6.5.6.8.6.4.4.4.4.4.4.3.3.3.3.4.4.4.4.8.4.4.4.4.4.4.2.3.3.3.3.3.3.3.8.4.8.4.4.4.4.4.4.4.4.4.4.3.3.3.3.3.1.3.| | [ ^ R / ) E U E a 5 W =.B.P.}.",
"E.~.g.5 > > I 4  . .5 W } +.3.3.3.6.3.6.6.5.3.3.4.4.4.3.4.3.3.4.3.3.3.4.4.3.4.4.4.4.4.3.1.3.3.3.3.3.1.3.3.4.4.4.4.4.4.3.2.3.4.3.4.3.3.3.3.3.3.1.1.| } ` / R ^ / f < 3 < 4  .X.z.J.}.",
"}.}.I.} a p _ ! X.X. .O.5.5.3.3.3.6.3.5.5.5.4.3.1.3.3.3.4.3.4.3.3.3.3.3.3.3.4.4.3.3.3.3.4.3.3.3.3.3.3.3.3.4.3.8.4.4.3.3.3.3.4.3.4.4.4.4.4.3.4.{ 1.| | [ [ R ^ ) R i i a U #.i.m.Z./.",
"}.}.(.a.U W ( U ..U 3 ( } | | | 3.6.3.3.3.3.3.4.4.3.3.3.4.4.3.4.3.3.3.3.{ 4.3.3.4.3.4.3.3.4.3.3.3.3.3.3.3.3.3.7.3.3.4.4.3.3.4.3.3.3.3.4.4.3.3.] { 3.[ } } ^ ) } ` R a U W l.S.D.K.R.",
"}.}.U.9.Q W W W ~ U ! } | | 3.3.3.3.1.3.1.1.3.3.3.3.4.3.3.3.4.3.4.3.3.1.] 3.4.3.3.3.3.1.1.3.3.3.3.3.3.1.3.3.1.4.3.1.8.3.3.3.3.3.4.3.1.4.4.3.1.] { { | } } ^ ) ) ( U U P U -.f.J.R.R.",
"}.}.^.O...~ ....~ R U ) | { | { 3.3.1.3.3.3.4.4.3.3.3.3.3.3.3.4.4.3.3.1.] 4.4.3.3.3.3.3.1.1.3.1.3.1.1.1.3.3.1.1.3.4.4.4.3.3.3.3.3.3.3.4.4.1.1.] ' } | | } ^ E ^ _ R R R R _ t.!.`.`.",
"`.E.R.c.u.#.$...E R P ^ ` } | 3.3.| 1.3.3.4.3.3.4.3.3.3.4.3.4.1.3.3.1.] ] 3.3.3.3.3.3.3.1.3.3.3.3.3.3.1.1.3.1.3.3.4.4.4.3.3.3.3.3.3.3.3.{ 1.3.] ' [ | | { ^ E E ` R P P P I i.Y.}.}.",
"R.R.K.M.x.i.o.l E R R E / } ' ] ] { { { 1.{ 3.3.1.1.] ] ] 1.1.1.1.1.1.] ] ] 1.3.1.{ 1.1.1.1.1.3.1.1.1.] 1.3.1.1.1.1.3.1.3.1.1.1.<.3.1.1.1.] ] ' ] { ' ' { { ) ) ) U P K I ~ 9.L.}.}.",
"E.T.G.s.9.;.Q u x u ! E / ] ] ] 1.] ] ] ] ] ] 1.1.1.] Z ] ] <.1.<.3.1.4.] ] A ] ] ] ] ] ] D ] ] ] ] 1.] <.1.1.1.] ] <.1.1.<.S D <.J 1.<.<.<.1.{ ' C ' ' ] ] } _ / E ! ~ _ -.x.B.{.}.",
"`.`.D.i.a.=.~ X.+.^ O.O.*.3.| 3.3.3.3.3.3.3.4.4.4.4.3.] 8.8.4.4.4.4.4.4.3.3.3.3.4.4.4.4.1.D 3.3.3.3.4.1.3.3.8.4.4.3.4.8.4.8.3.J 6.8.6.6.4.4.4.3.3.{ | 3.3.{ } ` / E ! ! @.q.B.F.^.{.",
"}.(.a.u.-.X.~  .} / } | +.3.| 3.3.4.3.4.4.4.3.3.4.4.3.2.4.4.4.7.4.4.4.8.4.4.4.4.4.4.4.4.3.<.1.3.3.3.1.3.3.4.3.4.4.3.4.3.4.8.3.1.6.4.6.8.8.6.4.4.3.[ 3.3.3.3.` ` ^ R ! ~ ` ` t.P.R.R.",
"}.}.m.u.d.X.I 5 ^ x _ o.&.| 3.3.3.| 3.4.3.4.3.4.4.4.3.4.8.4.3.4.4.4.4.4.t.4.4.4.4.4.4.3.2.<.3.3.4.3.3.1.4.4.3.4.3.4.3.3.4.4.4.1.8.8.3.4.8.4.8.7.3.| 3.4.3.| ` ~ E E ! _ %.%.w.T.E.R.",
"}.}.F.N.=.! L 5 W h E ( } } [ { 3.| | 4.4.4.3.4.4.4.3.4.3.4.3.4.4.4.4.4.8.8.4.4.4.3.3.3.3.<.1.3.3.{ 3.3.3.3.3.8.4.4.3.3.4.8.3.1.6.3.3.4.6.6.3.7.7.| 3.5.7.| ^ a R R R W o.X.@.M.W.Q.",
"'.).F.z.T , , I i % R a E E [ | 3.| | | 3.3.4.3.4.4.{ { 4.3.3.3.4.4.4.4.4.4.7.4.4.3.3.| 1.S 3.] 3.3.3.3.3.8.4.8.4.8.3.3.4.4.1.1.4.4.3.4.6.3.{ 3.| | | +.| } _ R i 3 3 3 ( X.%.n.`.].",
"E.R.D.W L 4 4 4 p y ^ R ( ` | 3.3.| | 3.3.3.3.4.4.4.1.1.4.3.3.3.4.4.4.8.4.8.4.3.3.3.3.3.3.] ] 3.3.3.3.8.4.3.3.3.3.3.3.3.4.4.1.1.6.4.3.3.6.3.3.3.7.| 3.3.| } O.#.~ W U R ) X.$.l.].}.",
"E.R.J.i.$...Y 5 R h ) R ( } +.+.3.3.3.4.3.3.3.3.4.4.1.{ 4.4.4.3.4.4.0.4.4.4.4.3.3.| 3.3.1.] 3.4.3.3.8.8.3.8.3.3.8.3.3.8.3.4.3.{ 6.6.3.5.6.3.5.3.| 7.7.5.| +.+.%._ U E ~ o.X.$.l._.}.",
"Q.D.a.o.%.X.l 5 ^ h / U R ^ } 4.3.3.{ 3.| 3.1.3.4.| { ] 3.3.4.4.3.| 3.3.3.3.3.3.3.*.3.3.1.] 3.3.3.3.3.3.3.3.3.3.3.3.3.3.3.3.{ ] 5.3.1.5.5.1.5.| | | | } } ` ( Q 5 = a W W Q @.b._.}.",
"}.v.f r u 8 # 6 q 7 n 0 N Z S D ] A D A ] ' D Z C m v C Z C C C C C b Z ] 1.<.] ] ] <.A A A A A ,.D ,.,.,.,.Z D S Z C Z C C v C C C b C C b b C D ] J J S S S d t 9 g F x F +.N./.`.",
"}.S.W T 5 < > 3 ^ R R R / ^ / [ 3.1.{ } | 3.3.| { { ' | | { { [ } | { ] ] 4.4.4.4.4.4.3.1.3.3.3.3.3.4.3.4.4.1.| | | 3.| ] | ] | | 1.1.1.3.| { <.1.3.3.3.| | } W W W ..%...X.X.i.G.E.",
"}.S.T L 4 > , 4 ^ R R a R a R [ { } ' } } } } | } | | | 3.} | } } ) [ { ' ] 3.4.3.3.3.{ ' { ] 3.3.{ 3.3.| 8.| 5.+.| | | | } | 3.5.5.| | | | { { | 3.+.| } / ^ P 5 5 5 U 5 T U q.S.W.",
"}.J.#.L L T L K X.` E p U h ^ | { | [ ) } ) } | | } } | | } } } [ ^ / ^ E | | 4.3.3.} ' { { ] 3.] { | | | | | | 3.} } [ } | } | | | } | | [ ' ' { 3.| | } } ^ 4 , 4 L T I L 5 q.S.`.",
"`.H.*.I , , K , W } } E E ^ / | | ' ' ) ) ) ) [ ( ) | } } } } } / ^ ^ E ^ | 3.4.| } ) ) { } } { | { | 3.| { } } | } / / [ } } } [ [ } | | [ R ^ ' | | } } } ) 3 , K 4 K 5 4 4 u.^.].",
"E.K.&.2 : , , , E ` } _ ( E ) | } } / ^ ^ ^ / / / ^ ` [ } } } } ) ( R p h } 3.*.} ( [ { { ) } | [ { | [ / } [ [ ) ( P E ) [ ) ) E / } } } ) K P ) | | | } ` } P , , , , 4 I L i.(.}.",
"E.A.U > : : * > R ^ h 5 i ; R ^ E ^ E ^ E U R U P P / ` } | *.} ) ( R i a [ | | ( 2 E [ } [ ' [ [ [ [ [ / } / ) ^ ( a P ^ ^ ^ E U R } } } E = 3 } | } } ` ` } U I Y L L L T 5 o.N.{.",
"`.D.U > 4 3 < 3 E ` ^ R U p E E R E E ^ R E ^ R ; P E / ` } | 7.| ` _ _ ( *.8.7.=.&.` ` } [ } [ ) } } } ) ) ^ E ( E R ! ^ ` ^ U a a ^ } ) U K I ` | } } ) ` _ I 5 U 4 5 I I 4 a s.).",
"}._.x.! ~ X.Q ..` | | | ` X.` } ` ' ' ` E ^ / ^ Q ^ ) } } } #._ _ U P K p ( 7.*.#.| } } } ' / ) E ^ } } / ' ^ R E E W _ ` O.^ R E E E } ` a P ! &.| | | ` ` O.Q  .Q ! ! X. .U U i.T.",
"}.}.v.F f s r h g N S H g h j g n d d 0 6 0 e t w w s ^ ' ^ ^ j h u i ; r s V V M S ' N V n n ' n s V B j E w t h w 8 w d B h j G f t V G f u f / S V V N B V E x j z z x E f z g.R.",
"}.}.z.~ U W p k h g } ^ U P p p U p 1 1 = P a U U R u R } #.} ~ P p 4 3 K P ~ R U ) ^ U u o i E i * i i = i X * > < i i P h ; i R i i E a < p I ~ } Q ` ( ! _ ! W W R k p I a _ c.R.",
"[.[.P.h.=. .I Y a R ` W P a 3 p a U p a I @.X.W W W l z _ ~ X.! 2 2 5 U U I _ _ ~ _ E 5 a ; l E 2 , K 2 3 5 * X X > U P 5 P = + 2 4 p P 3 2 2 U _ #.Q _ R I W K 4 5 5 , 4 5 l W v.).",
"W.W.W.I.b.=.W X.X.~ &.=._ W a I I U U Y T ..! ! Y k 3 l W W $.Y 2 > 2 2 5 I _ ~ ~ X.W ! ` / X.X.I L K 3 U 2 = * * 1 } 8.( P = $ * > 1 3 < 2 p ! $.! @.~ p 2 P K 4 5 I 5 I 5 k _ z.{.",
"W.W.I.N.u.=.o.-.i.&.;.>.X.-.~ U I W X.=...%...X.#.l i z ~ X.=.@.I 2 K 5 L I ~ @.! X.! @.O.^ ..X.! I P _ Q p i a R h.v.P.m.} R ^ > > 3 > > 2 4 T -.~ ~ ~ I 4 I Y Y W %.@.T X.z.m.P.}.",
"W.W.S.b.p.u.-.;.s.Z.a.u.%.%.%.=.;.d.-.#.! %.#.#.a.` 3 i Y  .W P 2 2 4 K K I ~ @.....W $.o.X.%.>.>.>.-.x.c.v.v.D.c.P.G.L.z.` ^ s a I 3 i p 2 2 i.z.u.i.k.#.I _ =.U X.f.q.X.=.n.{.}.}.",
"{.{.Y.F.F.n.%.=.O.^.z.l.p.=.u.d.Y.V.>.f.l.l.z.V.G.N.q.X.=.;.@.U 5 W U ~ ! @.i.p.=.k.;.s.s.x.S.P.x.&._ k.s./.{.{.!.J.c.F.P.P.g._ W _ X.-.N.u.a.!./.Z.V.m.=.a.F.z.0.f.n.x.P.^.P.^./.`.",
"}.}.}.Y.N.l.i.a.N.)._.T.H.K.S.U.}._.Y.J.!.J.J.G.Y.S.x.a.p.a.N.N.z.q.u.;.:.>.z.z.u.u.x.!.E.(.{.}._.B.l.v.N.^.}.}.!.T.K.D.P.(.[.m.a.s.j.m.^.V.}.`.~.~.F.V.G._.^.J.R.T.).}.}.{.T.T.R.R.",
"}.}.}.{.R.T.T.Y.{._.}.[.R.W./.}.}.}.).D.W.W./.(.}._.N.S.J.!.}.}.{.P.D.D.m.z.l.n.S.w.g.T.~.I.(.}.'.~.K.~.^.{.}.}.`.~.~.~.[.}.}.'.T.R.R.`.}.[.}.`.R.R.~.(.}.}.[.R.R.R.'.}.}.}.).R.E.E.",
"}.}.}.}.E.E.R.[.}.}.}.`.R.W.W.}.}.].}.R.R.R.[.}.}.].I.T.R.E.}.}.}.}.E.~.~._.{.{.}.!.!.I.~.}.}.}.}.E.E.~.'.}.}.}.`.E.E.E.}.}.}.'.E.R.E.}.}.}.}.`.E.E./.}.}.}.}.E.R.E.'.}.}.}.`.R.Q.Q."
};
